<?xml version="1.0" encoding="UTF-8"?>
<svg version="1.1" xmlns="http://www.w3.org/2000/svg" width="109" height="69">
<path d="M0 0 C35.97 0 71.94 0 109 0 C109 22.77 109 45.54 109 69 C73.03 69 37.06 69 0 69 C0 46.23 0 23.46 0 0 Z " fill="#FDFDFD" transform="translate(0,0)"/>
<path d="M0 0 C1.32 0 2.64 0 4 0 C4 9.57 4 19.14 4 29 C2.68 29 1.36 29 0 29 C-0.309375 27.63875 -0.309375 27.63875 -0.625 26.25 C-1.95492126 23.10654976 -2.94624742 21.57180606 -5.87109375 19.8125 C-10.6802309 17.97708619 -15.91333493 17.57357054 -21 17 C-20.505 17.99 -20.505 17.99 -20 19 C-19.61517943 23.07909806 -19.55878143 25.29089873 -21.75 28.8125 C-24.48922244 31.47563292 -26.50800081 32.87649013 -30.359375 33.1953125 C-31.14828125 33.17210937 -31.9371875 33.14890625 -32.75 33.125 C-33.54921875 33.10695312 -34.3484375 33.08890625 -35.171875 33.0703125 C-35.77515625 33.04710937 -36.3784375 33.02390625 -37 33 C-37 33.99 -37 34.98 -37 36 C-38.32 36 -39.64 36 -41 36 C-41 35.01 -41 34.02 -41 33 C-42.32 33 -43.64 33 -45 33 C-45 33.99 -45 34.98 -45 36 C-46.32 36 -47.64 36 -49 36 C-49 35.01 -49 34.02 -49 33 C-50.32 33 -51.64 33 -53 33 C-53 33.99 -53 34.98 -53 36 C-54.32 36 -55.64 36 -57 36 C-57 35.01 -57 34.02 -57 33 C-57.58007812 33.04640625 -58.16015625 33.0928125 -58.7578125 33.140625 C-64.41230827 33.40188883 -67.52891958 32.81677597 -72 29 C-74.44576827 25.33134759 -74.23607254 23.32799657 -74 19 C-73.67 18.34 -73.34 17.68 -73 17 C-75.31 17 -77.62 17 -80 17 C-80 17.99 -80 18.98 -80 20 C-81.32 20 -82.64 20 -84 20 C-84 16.37 -84 12.74 -84 9 C-82.68 9 -81.36 9 -80 9 C-80 10.32 -80 11.64 -80 13 C-72.41 13 -64.82 13 -57 13 C-57 11.68 -57 10.36 -57 9 C-55.68 9 -54.36 9 -53 9 C-53 10.32 -53 11.64 -53 13 C-51.68 13 -50.36 13 -49 13 C-49 11.68 -49 10.36 -49 9 C-47.68 9 -46.36 9 -45 9 C-45 10.32 -45 11.64 -45 13 C-43.68 13 -42.36 13 -41 13 C-41 11.68 -41 10.36 -41 9 C-39.68 9 -38.36 9 -37 9 C-37 10.32 -37 11.64 -37 13 C-33.4994157 12.88891335 -29.99979245 12.75857986 -26.5 12.625 C-25.02660156 12.57859375 -25.02660156 12.57859375 -23.5234375 12.53125 C-17.71599291 12.29895222 -12.5824655 11.61792695 -7 10 C-6.28875977 9.85651123 -5.57751953 9.71302246 -4.84472656 9.56518555 C-4.2359668 9.37867432 -3.62720703 9.19216309 -3 9 C-1.8624787 6.91965706 -1.8624787 6.91965706 -1.25 4.4375 C-0.88648437 3.19806641 -0.88648437 3.19806641 -0.515625 1.93359375 C-0.34546875 1.29550781 -0.1753125 0.65742188 0 0 Z " fill="#0B0B0B" transform="translate(94,16)"/>
<path d="M0 0 C8.19057816 -0.48179872 8.19057816 -0.48179872 11.625 1.5625 C13 4 13 4 13 7.625 C12 11 12 11 10.4375 12.4375 C6.90004954 13.25383472 3.62833901 13.12094463 0 13 C0 8.71 0 4.42 0 0 Z " fill="#EBEBEB" transform="translate(57,32)"/>
<path d="M0 0 C0 3.96 0 7.92 0 12 C-1.588125 12.061875 -3.17625 12.12375 -4.8125 12.1875 C-5.70582031 12.22230469 -6.59914063 12.25710937 -7.51953125 12.29296875 C-10 12 -10 12 -11.796875 10.640625 C-13 9 -13 9 -13.4375 6.5625 C-13 4 -13 4 -11.5625 1.6875 C-7.68376006 -0.86679216 -4.5868186 -0.26981286 0 0 Z " fill="#F1F1F1" transform="translate(37,32)"/>
<path d="M0 0 C1.32 0 2.64 0 4 0 C4 4.29 4 8.58 4 13 C2.68 13 1.36 13 0 13 C0 8.71 0 4.42 0 0 Z " fill="#E3E3E3" transform="translate(49,32)"/>
<path d="M0 0 C1.32 0 2.64 0 4 0 C4 4.29 4 8.58 4 13 C2.68 13 1.36 13 0 13 C0 8.71 0 4.42 0 0 Z " fill="#E3E3E3" transform="translate(41,32)"/>
</svg>
