<?xml version="1.0" encoding="UTF-8"?>
<svg version="1.1" xmlns="http://www.w3.org/2000/svg" width="101" height="98">
<path d="M0 0 C33.33 0 66.66 0 101 0 C101 32.34 101 64.68 101 98 C67.67 98 34.34 98 0 98 C0 65.66 0 33.32 0 0 Z " fill="#FCFCFC" transform="translate(0,0)"/>
<path d="M0 0 C2.31 0.33 4.62 0.66 7 1 C7.99 4.465 7.99 4.465 9 8 C7.35 7.67 5.7 7.34 4 7 C4.99 8.98 4.99 8.98 6 11 C5.29101562 10.88140625 4.58203125 10.7628125 3.8515625 10.640625 C-0.29720848 11.16348381 -2.04741221 13.71907405 -4.625 16.75 C-5.67432017 17.93633857 -6.7238034 19.12253293 -7.7734375 20.30859375 C-8.30420898 20.91815918 -8.83498047 21.52772461 -9.38183594 22.15576172 C-11.95428353 25.08760679 -14.60454879 27.94666712 -17.25 30.8125 C-18.17237233 31.81855468 -19.09429599 32.82502103 -20.015625 33.83203125 C-20.67046875 34.54746094 -21.3253125 35.26289062 -22 36 C-19.69 34.35 -17.38 32.7 -15 31 C-12.65081668 33.44706596 -12.0129092 34.91447653 -11.5 38.3125 C-12.25996763 43.91726124 -15.11736661 46.92261143 -18.8125 51 C-21 52 -21 52 -24.9375 51.3125 C-26.99885774 50.90979013 -26.99885774 50.90979013 -29 51 C-31.76978723 53.13504432 -32.74988021 53.90791628 -34 57 C-34.12951014 59.34463159 -34.12951014 59.34463159 -33.9375 61.8125 C-33.60045837 67.84281243 -36.0633964 71.58486431 -40 76 C-43.76446763 79.42365163 -46.58310461 79.49513642 -51.515625 79.37109375 C-55.21907833 78.81790497 -57.16287929 77.38915428 -60 75 C-59.67 74.01 -59.34 73.02 -59 72 C-60.65 72.99 -62.3 73.98 -64 75 C-65.0625 73.125 -65.0625 73.125 -66 71 C-65.505 70.01 -65.505 70.01 -65 69 C-65.66 69 -66.32 69 -67 69 C-70.27600071 63.50099881 -72.02065158 59.43010495 -71 53 C-68.17330324 48.15976581 -64.34015337 44.78005112 -59 43 C-57.50001115 42.97837854 -55.99893393 43.00224135 -54.5 43.0625 C-49.9156164 43.24030914 -47.57388537 41.96370982 -44 39 C-43.34 38.34 -42.68 37.68 -42 37 C-42.226875 35.7625 -42.45375 34.525 -42.6875 33.25 C-43.08371031 30.74522215 -43.25069045 29.48040262 -42.06640625 27.2109375 C-39.95305171 24.66487832 -37.74996049 22.83330699 -35 21 C-30.04254494 20.68016419 -26.51961078 20.74019461 -22 23 C-22 23.66 -22 24.32 -22 25 C-15.20224377 19.1419336 -8.59764677 13.08083111 -2 7 C-2.495 5.02 -2.495 5.02 -3 3 C-1.35 3.33 0.3 3.66 2 4 C1.01 2.02 1.01 2.02 0 0 Z " fill="#E4E4E4" transform="translate(83,9)"/>
<path d="M0 0 C2.5 1 2.5 1 4 2 C2.4435894 5.9693075 -0.31230633 8.3163627 -3.4375 11.0625 C-9.38489531 16.42897096 -15.13112003 21.97804927 -20.8125 27.625 C-21.60003662 28.39980713 -22.38757324 29.17461426 -23.19897461 29.97290039 C-28.57047884 35.33423239 -33.37802058 40.98233304 -38 47 C-41 46 -41 46 -42.6875 43.4375 C-44.19767475 39.48228041 -44.98229949 36.1368385 -44 32 C-41.19274341 27.15724121 -37.32771896 23.77590632 -32 22 C-30.50001115 21.97837854 -28.99893393 22.00224135 -27.5 22.0625 C-22.9156164 22.24030914 -20.57388537 20.96370982 -17 18 C-16.34 17.34 -15.68 16.68 -15 16 C-15.226875 14.7625 -15.45375 13.525 -15.6875 12.25 C-16.08371031 9.74522215 -16.25069045 8.48040262 -15.06640625 6.2109375 C-10.58893276 0.81671127 -6.87143804 -0.71894322 0 0 Z " fill="#0B0B0B" transform="translate(56,30)"/>
<path d="M0 0 C2.97944058 2.32768796 3.91985712 3.52804749 4.5625 7.3125 C3.71121121 12.89317093 0.88101575 15.92439642 -2.8125 20 C-5 21 -5 21 -8.9375 20.3125 C-10.99885774 19.90979013 -10.99885774 19.90979013 -13 20 C-15.76978723 22.13504432 -16.74988021 22.90791628 -18 26 C-18.12951014 28.34463159 -18.12951014 28.34463159 -17.9375 30.8125 C-17.60045837 36.84281243 -20.0633964 40.58486431 -24 45 C-27.76446763 48.42365163 -30.58310461 48.49513642 -35.515625 48.37109375 C-39.21907833 47.81790497 -41.16287929 46.38915428 -44 44 C-38.66433498 38.48647948 -32.96286841 33.29838745 -27.06640625 28.390625 C-17.0894608 20.0657759 -8.39860385 9.88256768 0 0 Z " fill="#0A0A0A" transform="translate(67,40)"/>
<path d="M0 0 C2.31 0.33 4.62 0.66 7 1 C7.66 3.31 8.32 5.62 9 8 C6.525 7.505 6.525 7.505 4 7 C4.66 8.32 5.32 9.64 6 11 C5.28972656 10.88269531 4.57945313 10.76539063 3.84765625 10.64453125 C-0.27839437 11.15958009 -2.0015039 13.67273207 -4.5625 16.6875 C-5.62199469 17.88577147 -6.68190236 19.0836779 -7.7421875 20.28125 C-8.28069336 20.89871094 -8.81919922 21.51617188 -9.37402344 22.15234375 C-11.92311487 25.04896897 -14.55773693 27.86430353 -17.1875 30.6875 C-22.17541488 36.08014854 -27.10437815 41.52333212 -32 47 C-35.47899158 45.60840337 -36.48052501 44.36748512 -38 41 C-23.98298915 26.80580784 -23.98298915 26.80580784 -17.7265625 21.5078125 C-15.27214668 19.36436339 -13.02410377 17.03491674 -10.7421875 14.7109375 C-7.9604329 11.97907984 -4.98937336 9.50131241 -2 7 C-2.495 5.02 -2.495 5.02 -3 3 C-0.525 3.495 -0.525 3.495 2 4 C1.34 2.68 0.68 1.36 0 0 Z " fill="#0B0B0B" transform="translate(83,9)"/>
<path d="M0 0 C1.98 0.66 3.96 1.32 6 2 C1.98067697 6.81214979 -2.21226111 11.37166278 -6.640625 15.80859375 C-7.24888123 16.42017838 -7.85713745 17.031763 -8.48382568 17.66188049 C-9.75646742 18.93954318 -11.03042842 20.21589307 -12.30566406 21.4909668 C-14.26396128 23.45147706 -16.21409085 25.41988471 -18.1640625 27.38867188 C-19.4057613 28.63330024 -20.64793169 29.87745835 -21.890625 31.12109375 C-22.76560638 32.00685341 -22.76560638 32.00685341 -23.65826416 32.9105072 C-27.77114386 37 -27.77114386 37 -30 37 C-30.859375 34.35546875 -30.859375 34.35546875 -31 31 C-29.11139009 28.74889883 -27.49109537 27.13338999 -25.25 25.3125 C-24.15086429 24.37130085 -23.05190086 23.42990047 -21.953125 22.48828125 C-20.97859375 21.66714844 -20.0040625 20.84601563 -19 20 C-18.41734375 19.39542969 -17.8346875 18.79085937 -17.234375 18.16796875 C-16 17 -16 17 -14 17 C-13.76152344 16.4328125 -13.52304688 15.865625 -13.27734375 15.28125 C-11.73031477 12.51836033 -9.84581785 10.68958559 -7.5625 8.5 C-4.76053263 5.80420273 -2.24646003 3.17827143 0 0 Z " fill="#242424" transform="translate(85,52)"/>
<path d="M0 0 C3.16115776 1.36983503 3.9927092 1.9890638 6 5 C4.27563834 6.60960555 2.54586672 8.21264034 0.8125 9.8125 C-0.15042969 10.70582031 -1.11335938 11.59914063 -2.10546875 12.51953125 C-4.64644472 14.69702078 -7.07768383 16.39192474 -10 18 C-10.66 16.68 -11.32 15.36 -12 14 C-10.5645497 12.22750476 -9.12656197 10.45706424 -7.6875 8.6875 C-6.88699219 7.70136719 -6.08648437 6.71523437 -5.26171875 5.69921875 C-3.57311644 3.68397834 -1.90369301 1.80511991 0 0 Z " fill="#0F0F0F" transform="translate(29,66)"/>
<path d="M0 0 C0.66 0.33 1.32 0.66 2 1 C-2.51368729 5.56425086 -7.0350822 10.120758 -11.56201172 14.671875 C-13.10222626 16.22216905 -14.64064397 17.77425036 -16.17724609 19.328125 C-18.38172953 21.55677105 -20.59252046 23.77898391 -22.8046875 26 C-23.49432587 26.69996094 -24.18396423 27.39992188 -24.89450073 28.12109375 C-25.53501373 28.76175781 -26.17552673 29.40242188 -26.83544922 30.0625 C-27.39948456 30.63097656 -27.9635199 31.19945313 -28.54464722 31.78515625 C-30 33 -30 33 -32 33 C-32 31.35 -32 29.7 -32 28 C-31.30688721 27.95883057 -30.61377441 27.91766113 -29.8996582 27.87524414 C-25.82331449 26.64482466 -23.48631879 23.98225022 -20.60546875 20.99609375 C-20.01325027 20.39821548 -19.4210318 19.80033722 -18.81086731 19.18434143 C-16.92679531 17.27792983 -15.05712846 15.35806809 -13.1875 13.4375 C-11.91043146 12.14036347 -10.63244661 10.84412838 -9.35351562 9.54882812 C-6.22495948 6.37623663 -3.10924811 3.19151172 0 0 Z " fill="#080808" transform="translate(87,56)"/>
<path d="M0 0 C0.66 0 1.32 0 2 0 C0.36033597 4.17208992 -2.69271529 6.98121629 -5.8125 10.078125 C-6.38202393 10.64956238 -6.95154785 11.22099976 -7.53833008 11.80975342 C-8.7395668 13.01234789 -9.94331997 14.21243334 -11.14941406 15.41015625 C-13.00040955 17.25040717 -14.84045446 19.10112633 -16.6796875 20.953125 C-17.84831724 22.12043384 -19.01756684 23.28712251 -20.1875 24.453125 C-20.73962158 25.00929504 -21.29174316 25.56546509 -21.8605957 26.13848877 C-25.77006365 30 -25.77006365 30 -28 30 C-26.67504335 26.98168412 -25.37434571 25.24036974 -22.8125 23.1875 C-18.38256588 19.44412394 -14.28714065 15.40919091 -10.1875 11.3125 C-9.52919189 10.65854248 -8.87088379 10.00458496 -8.19262695 9.33081055 C-7.56573975 8.70215088 -6.93885254 8.07349121 -6.29296875 7.42578125 C-5.7311792 6.86286377 -5.16938965 6.29994629 -4.59057617 5.7199707 C-2.91902763 3.98487511 -2.91902763 3.98487511 -1.41918945 1.78588867 C-0.95085693 1.19654541 -0.48252441 0.60720215 0 0 Z " fill="#B1B1B1" transform="translate(85,55)"/>
<path d="M0 0 C0.99 0.33 1.98 0.66 3 1 C1.52278578 4.45201639 -0.43794001 6.64961936 -3.125 9.25 C-3.84945312 9.95640625 -4.57390625 10.6628125 -5.3203125 11.390625 C-5.87460937 11.92171875 -6.42890625 12.4528125 -7 13 C-7.99 12.67 -8.98 12.34 -10 12 C-8.52278578 8.54798361 -6.56205999 6.35038064 -3.875 3.75 C-3.15054688 3.04359375 -2.42609375 2.3371875 -1.6796875 1.609375 C-1.12539063 1.07828125 -0.57109375 0.5471875 0 0 Z " fill="#2D2D2D" transform="translate(45,56)"/>
<path d="M0 0 C-0.57053665 3.77235429 -2.16643421 5.62716051 -4.8125 8.3125 C-5.84310547 9.38951172 -5.84310547 9.38951172 -6.89453125 10.48828125 C-9 12 -9 12 -11.26171875 11.73046875 C-11.83535156 11.48941406 -12.40898437 11.24835938 -13 11 C-3.73033708 0 -3.73033708 0 0 0 Z " fill="#2B2B2B" transform="translate(44,53)"/>
<path d="M0 0 C0.66 0.99 1.32 1.98 2 3 C-3.25442525 7.76636599 -8.50216911 12.51492743 -14 17 C-14 14 -14 14 -12.6796875 12.3515625 C-12.08414063 11.78179687 -11.48859375 11.21203125 -10.875 10.625 C-9.92367187 9.71041016 -9.92367187 9.71041016 -8.953125 8.77734375 C-7.21341487 7.19420753 -5.44531484 5.67644685 -3.625 4.1875 C-0.9683878 2.2707913 -0.9683878 2.2707913 0 0 Z " fill="#D2D2D2" transform="translate(60,32)"/>
<path d="M0 0 C0.66 0.33 1.32 0.66 2 1 C0.04761147 3.00612399 -1.91137822 5.00492433 -3.875 7 C-4.43058594 7.57234375 -4.98617187 8.1446875 -5.55859375 8.734375 C-7.00134404 10.19450782 -8.4974374 11.60149298 -10 13 C-10.66 13 -11.32 13 -12 13 C-12 11.35 -12 9.7 -12 8 C-11.319375 7.979375 -10.63875 7.95875 -9.9375 7.9375 C-5.53084593 6.53112104 -3.05237626 3.3690493 0 0 Z " fill="#151515" transform="translate(67,76)"/>
<path d="M0 0 C-1.4258086 3.45195767 -3.09746334 5.1014256 -6.125 7.25 C-7.21167969 8.03117187 -7.21167969 8.03117187 -8.3203125 8.828125 C-8.87460937 9.21484375 -9.42890625 9.6015625 -10 10 C-10 7 -10 7 -8.3203125 5.17578125 C-7.59585937 4.56089844 -6.87140625 3.94601563 -6.125 3.3125 C-5.40570312 2.68988281 -4.68640625 2.06726563 -3.9453125 1.42578125 C-2 0 -2 0 0 0 Z " fill="#CACACA" transform="translate(36,71)"/>
<path d="M0 0 C0.66 0.33 1.32 0.66 2 1 C0.38113585 2.67262717 -1.2452729 4.33795537 -2.875 6 C-3.77992187 6.928125 -4.68484375 7.85625 -5.6171875 8.8125 C-8 11 -8 11 -10 11 C-8.55218207 7.55571735 -6.72305391 5.63869038 -3.875 3.25 C-3.15054688 2.63640625 -2.42609375 2.0228125 -1.6796875 1.390625 C-0.84824219 0.70226562 -0.84824219 0.70226562 0 0 Z " fill="#BDBDBD" transform="translate(67,74)"/>
<path d="M0 0 C0.99 0.33 1.98 0.66 3 1 C1.35 2.65 -0.3 4.3 -2 6 C-2.99 5.67 -3.98 5.34 -5 5 C-3.35 3.35 -1.7 1.7 0 0 Z " fill="#C5C5C5" transform="translate(59,46)"/>
</svg>
