<?xml version="1.0" encoding="UTF-8"?>
<svg version="1.1" xmlns="http://www.w3.org/2000/svg" width="96" height="94">
<path d="M0 0 C31.68 0 63.36 0 96 0 C96 31.02 96 62.04 96 94 C64.32 94 32.64 94 0 94 C0 62.98 0 31.96 0 0 Z " fill="#FDFDFD" transform="translate(0,0)"/>
<path d="M0 0 C1.3293457 0.00483398 1.3293457 0.00483398 2.68554688 0.00976562 C4.05356445 0.02233398 4.05356445 0.02233398 5.44921875 0.03515625 C6.38056641 0.03966797 7.31191406 0.04417969 8.27148438 0.04882812 C10.55996248 0.06056391 12.84830683 0.07698262 15.13671875 0.09765625 C14.47671875 2.07765625 13.81671875 4.05765625 13.13671875 6.09765625 C12.13253906 6.13503906 11.12835938 6.17242188 10.09375 6.2109375 C-8.43170717 6.89610336 -8.43170717 6.89610336 -23.86328125 16.09765625 C-23.77784789 19.34412399 -23.14163733 20.78218603 -20.98828125 23.22265625 C-9.73472968 29.97478719 6.37377672 30.80254316 19.01171875 28.34375 C25.10320055 26.69827557 30.06809232 24.96444343 35.13671875 21.09765625 C35.97563891 18.58089578 36.13671875 16.72059175 36.13671875 14.09765625 C35.47671875 14.09765625 34.81671875 14.09765625 34.13671875 14.09765625 C34.46671875 12.77765625 34.79671875 11.45765625 35.13671875 10.09765625 C36.45671875 9.76765625 37.77671875 9.43765625 39.13671875 9.09765625 C42.88060791 12.80854936 43.60884594 15.40669998 43.69250488 20.45640564 C43.68440796 21.26485428 43.67631104 22.07330292 43.66796875 22.90625 C43.67370911 24.17276146 43.67370911 24.17276146 43.67956543 25.46485901 C43.6822804 27.24587195 43.67494821 29.02692504 43.65820312 30.80786133 C43.63681286 33.52321025 43.65800356 36.23590557 43.68359375 38.95117188 C43.68094988 40.68620372 43.67582366 42.42123392 43.66796875 44.15625 C43.67606567 44.96267441 43.6841626 45.76909882 43.69250488 46.59996033 C43.60523016 51.88973576 42.59644019 54.87519673 39.13671875 59.09765625 C27.88123188 68.81063529 11.85587795 68.90960297 -2.17626953 68.32421875 C-11.79339003 67.5133258 -22.03387554 64.15856724 -28.86328125 57.09765625 C-31.41262527 53.27364022 -31.1691332 50.13673827 -31.1640625 45.703125 C-31.16834763 44.87815018 -31.17263275 44.05317535 -31.17704773 43.20320129 C-31.18279 41.45733558 -31.18329204 39.71144594 -31.17895508 37.96557617 C-31.17580523 35.3054063 -31.1992194 32.64635967 -31.22460938 29.98632812 C-31.22688352 28.28776181 -31.22758533 26.58919253 -31.2265625 24.890625 C-31.23577225 24.09980026 -31.24498199 23.30897552 -31.25447083 22.4941864 C-31.21407701 17.62619282 -30.50830899 14.33680898 -27.86328125 10.09765625 C-20.47332226 3.28642898 -9.94171034 -0.06414007 0 0 Z " fill="#040404" transform="translate(41.86328125,19.90234375)"/>
<path d="M0 0 C0.99 0.33 1.98 0.66 3 1 C2.855625 1.70125 2.71125 2.4025 2.5625 3.125 C1.98521625 6.07556141 1.48304859 9.03270151 1 12 C2.66666667 12.33333333 4.33333333 12.66666667 6 13 C6.763125 13.28875 7.52625 13.5775 8.3125 13.875 C11.26584639 14.30826421 11.26584639 14.30826421 13.89453125 11.69140625 C14.88286114 10.66327784 15.85515567 9.61954107 16.8125 8.5625 C17.31458984 8.03333984 17.81667969 7.50417969 18.33398438 6.95898438 C19.56995168 5.65239036 20.78688595 4.32783937 22 3 C22.99 3.33 23.98 3.66 25 4 C23.07465785 8.62923795 19.59767255 11.41593477 15.99609375 14.78125 C13.97295632 17.0300603 13.4361603 18.0842983 13 21 C12.505 22.485 12.505 22.485 12 24 C12.66 24 13.32 24 14 24 C14.875 26.6875 14.875 26.6875 15 30 C10.99383274 34.41705621 6.62027519 36.28060415 1 38 C-0.175625 38.391875 -1.35125 38.78375 -2.5625 39.1875 C-15.41146317 42.15457956 -31.36668191 40.32245549 -43 34 C-45.5 32.125 -45.5 32.125 -47 30 C-47.125 27.5625 -47.125 27.5625 -46 25 C-41.40740099 20.05412415 -36.4691963 18.51733923 -30 17 C-29.24460937 16.82082031 -28.48921875 16.64164063 -27.7109375 16.45703125 C-24.0465462 15.83925923 -20.39499002 15.63960625 -16.6875 15.4375 C-15.94693359 15.39431641 -15.20636719 15.35113281 -14.44335938 15.30664062 C-12.62908536 15.20129568 -10.8145645 15.10021684 -9 15 C-8.731875 14.195625 -8.46375 13.39125 -8.1875 12.5625 C-7.795625 11.716875 -7.40375 10.87125 -7 10 C-6.01 9.67 -5.02 9.34 -4 9 C-3.01788795 7.16696677 -3.01788795 7.16696677 -2.375 5 C-1.06951872 1.06951872 -1.06951872 1.06951872 0 0 Z " fill="#F8F8F8" transform="translate(64,10)"/>
<path d="M0 0 C0.99 0.33 1.98 0.66 3 1 C2.855625 1.70125 2.71125 2.4025 2.5625 3.125 C1.98521625 6.07556141 1.48304859 9.03270151 1 12 C2.66666667 12.33333333 4.33333333 12.66666667 6 13 C6.763125 13.28875 7.52625 13.5775 8.3125 13.875 C11.26584639 14.30826421 11.26584639 14.30826421 13.89453125 11.69140625 C14.88286114 10.66327784 15.85515567 9.61954107 16.8125 8.5625 C17.31458984 8.03333984 17.81667969 7.50417969 18.33398438 6.95898438 C19.56995168 5.65239036 20.78688595 4.32783937 22 3 C22.99 3.33 23.98 3.66 25 4 C23.34763349 8.29067546 20.1094793 11.1429553 16.8984375 14.296875 C16.30197418 14.89050842 15.70551086 15.48414185 15.0909729 16.09576416 C13.1903019 17.98526627 11.28278526 19.86768392 9.375 21.75 C8.08287532 23.03209065 6.79120324 24.31463761 5.5 25.59765625 C2.33855521 28.73708432 -0.8290461 31.87017801 -4 35 C-4.99 34.67 -5.98 34.34 -7 34 C-7.33 33.34 -7.66 32.68 -8 32 C-8.66 32.99 -9.32 33.98 -10 35 C-11.32 35 -12.64 35 -14 35 C-13.39163277 29.45312232 -11.44444566 24.81814835 -9.25 19.75 C-8.89164063 18.91041748 -8.53328125 18.07083496 -8.1640625 17.20581055 C-5.6490049 11.36429524 -3.00016566 5.61088673 0 0 Z " fill="#DFDFDF" transform="translate(64,10)"/>
<path d="M0 0 C0.99 0.33 1.98 0.66 3 1 C1.34763349 5.29067546 -1.8905207 8.1429553 -5.1015625 11.296875 C-5.69802582 11.89050842 -6.29448914 12.48414185 -6.9090271 13.09576416 C-8.8096981 14.98526627 -10.71721474 16.86768392 -12.625 18.75 C-13.91712468 20.03209065 -15.20879676 21.31463761 -16.5 22.59765625 C-19.66144479 25.73708432 -22.8290461 28.87017801 -26 32 C-26.99 31.67 -27.98 31.34 -29 31 C-27.34763349 26.70932454 -24.1094793 23.8570447 -20.8984375 20.703125 C-20.30197418 20.10949158 -19.70551086 19.51585815 -19.0909729 18.90423584 C-17.1903019 17.01473373 -15.28278526 15.13231608 -13.375 13.25 C-12.08287532 11.96790935 -10.79120324 10.68536239 -9.5 9.40234375 C-6.33855521 6.26291568 -3.1709539 3.12982199 0 0 Z " fill="#0B0B0B" transform="translate(86,13)"/>
<path d="M0 0 C0.99 0.33 1.98 0.66 3 1 C2.37850295 4.67608893 1.35034346 7.83032973 -0.125 11.25 C-2.39203088 16.56854751 -4.61666753 21.90177903 -6.8125 27.25 C-7.4231155 28.73440033 -8.03378759 30.21877739 -8.64453125 31.703125 C-9.09183594 32.79109375 -9.53914063 33.8790625 -10 35 C-11.32 35 -12.64 35 -14 35 C-13.39163277 29.45312232 -11.44444566 24.81814835 -9.25 19.75 C-8.89164063 18.91041748 -8.53328125 18.07083496 -8.1640625 17.20581055 C-5.6490049 11.36429524 -3.00016566 5.61088673 0 0 Z " fill="#171717" transform="translate(64,10)"/>
<path d="M0 0 C1.32 0 2.64 0 4 0 C4 8.58 4 17.16 4 26 C2.68 26 1.36 26 0 26 C0 17.42 0 8.84 0 0 Z " fill="#FEFEFE" transform="translate(46,56)"/>
<path d="M0 0 C1.32 0 2.64 0 4 0 C4 8.58 4 17.16 4 26 C2.68 26 1.36 26 0 26 C0 17.42 0 8.84 0 0 Z " fill="#FBFBFB" transform="translate(30,54)"/>
<path d="M0 0 C0 8.58 0 17.16 0 26 C-1.32 26 -2.64 26 -4 26 C-4 17.75 -4 9.5 -4 1 C-2 0 -2 0 0 0 Z " fill="#FDFDFD" transform="translate(66,54)"/>
<path d="M0 0 C1.98 0.99 1.98 0.99 4 2 C4 10.25 4 18.5 4 27 C0 23 0 23 -0.45410156 20.43457031 C-0.4331543 19.49194336 -0.41220703 18.54931641 -0.390625 17.578125 C-0.37773437 16.55332031 -0.36484375 15.52851562 -0.3515625 14.47265625 C-0.31804688 13.40917969 -0.28453125 12.34570312 -0.25 11.25 C-0.23195313 10.17105469 -0.21390625 9.09210937 -0.1953125 7.98046875 C-0.14821415 5.31941212 -0.082456 2.66015746 0 0 Z " fill="#FAFAFA" transform="translate(16,48)"/>
<path d="M0 0 C0.66 0 1.32 0 2 0 C2.11622939 3.74973906 2.1872595 7.49901464 2.25 11.25 C2.28351563 12.31347656 2.31703125 13.37695312 2.3515625 14.47265625 C2.36445312 15.49746094 2.37734375 16.52226563 2.390625 17.578125 C2.41157227 18.52075195 2.43251953 19.46337891 2.45410156 20.43457031 C1.87271731 23.71907875 0.50740841 24.89169466 -2 27 C-2.05784708 22.87505849 -2.09354407 18.75022056 -2.125 14.625 C-2.14175781 13.449375 -2.15851563 12.27375 -2.17578125 11.0625 C-2.18222656 9.94101562 -2.18867187 8.81953125 -2.1953125 7.6640625 C-2.20578613 6.62717285 -2.21625977 5.5902832 -2.22705078 4.52197266 C-2 2 -2 2 0 0 Z " fill="#FAFAFA" transform="translate(78,48)"/>
<path d="M0 0 C4.75 0.75 4.75 0.75 7 3 C5.25 5.0625 5.25 5.0625 3 7 C0.75 6.75 0.75 6.75 -1 6 C-0.67 4.02 -0.34 2.04 0 0 Z " fill="#1E1E1E" transform="translate(65,22)"/>
<path d="M0 0 C0.66 0.33 1.32 0.66 2 1 C1.34 3.31 0.68 5.62 0 8 C-2.97 7.505 -2.97 7.505 -6 7 C-5.071875 6.6596875 -5.071875 6.6596875 -4.125 6.3125 C-1.38589791 4.62070165 -0.94975528 3.00755839 0 0 Z " fill="#CDCDCD" transform="translate(57,20)"/>
</svg>
