<?xml version="1.0" encoding="UTF-8"?>
<svg version="1.1" xmlns="http://www.w3.org/2000/svg" width="105" height="100">
<path d="M0 0 C34.65 0 69.3 0 105 0 C105 33 105 66 105 100 C70.35 100 35.7 100 0 100 C0 67 0 34 0 0 Z " fill="#FDFDFD" transform="translate(0,0)"/>
<path d="M0 0 C3.76687864 1.88343932 4.79421646 2.69132469 7 6 C0.31397429 13.33945929 -6.46568741 20.51572266 -13.52734375 27.49609375 C-16.31557823 30.31956658 -18.92041862 33.2571047 -21.49609375 36.2734375 C-23.55498359 38.63714999 -25.75032538 40.81849734 -28 43 C-32.2742558 41.4169423 -34.26531794 38.49431596 -37 35 C-34.69 32.69 -32.38 30.38 -30 28 C-31.32 28.33 -32.64 28.66 -34 29 C-33.55047256 24.64790368 -30.68697713 22.27053372 -27.72265625 19.359375 C-26.93283607 18.56880707 -26.93283607 18.56880707 -26.12705994 17.76226807 C-25.01513644 16.65268083 -23.89952865 15.54677502 -22.78051758 14.44433594 C-21.06344507 12.75093205 -19.36015619 11.04452251 -17.65820312 9.3359375 C-16.57631205 8.25962076 -15.49365563 7.18407268 -14.41015625 6.109375 C-13.89864517 5.59695251 -13.38713409 5.08453003 -12.86012268 4.55657959 C-9.23104034 1 -9.23104034 1 -7 1 C-7.33 2.65 -7.66 4.3 -8 6 C-5.36 4.02 -2.72 2.04 0 0 Z " fill="#0D0D0D" transform="translate(74,28)"/>
<path d="M0 0 C4.2742558 1.5830577 6.26531794 4.50568404 9 8 C8.175 9.010625 7.35 10.02125 6.5 11.0625 C3.82478548 14.79570896 3.47629114 17.37390506 4 22 C4.42854995 24.31036915 4.42854995 24.31036915 5 26 C1 26 1 26 -1.19824219 24.3034668 C-1.97329102 23.52656494 -2.74833984 22.74966309 -3.546875 21.94921875 C-4.39121094 21.10552734 -5.23554688 20.26183594 -6.10546875 19.39257812 C-6.97816406 18.49990234 -7.85085937 17.60722656 -8.75 16.6875 C-9.63816406 15.80642578 -10.52632812 14.92535156 -11.44140625 14.01757812 C-18 7.39349918 -18 7.39349918 -18 4 C-17.41992188 4.10699219 -16.83984375 4.21398437 -16.2421875 4.32421875 C-9.25559872 5.39641802 -5.87218683 3.91479122 0 0 Z " fill="#080808" transform="translate(34,66)"/>
<path d="M0 0 C0.46676446 5.7178646 -0.52787792 9.49768785 -4 14 C-6.56473925 16.78009904 -9.23684095 19.41792176 -12 22 C-15.40062014 20.59284684 -16.89229698 18.97131772 -19 16 C-16.40804932 13.32122054 -13.79952892 10.65919367 -11.1875 8 C-10.44951172 7.236875 -9.71152344 6.47375 -8.95117188 5.6875 C-8.23896484 4.965625 -7.52675781 4.24375 -6.79296875 3.5 C-6.1383667 2.8296875 -5.48376465 2.159375 -4.80932617 1.46875 C-3 0 -3 0 0 0 Z " fill="#0F0F0F" transform="translate(97,8)"/>
<path d="M0 0 C-0.33 1.65 -0.66 3.3 -1 5 C-1.99 5 -2.98 5 -4 5 C-3.67 5.66 -3.34 6.32 -3 7 C-4.28935919 8.14842923 -5.58156579 9.29366227 -6.875 10.4375 C-7.59429687 11.07558594 -8.31359375 11.71367188 -9.0546875 12.37109375 C-11 14 -11 14 -13 15 C-14.51413291 16.72611151 -15.93568097 18.51358949 -17.3671875 20.30859375 C-19.11574792 22.11990156 -20.70219852 23.01025434 -23 24 C-22.67 24.66 -22.34 25.32 -22 26 C-23.65 26.66 -25.3 27.32 -27 28 C-26.55047256 23.64790368 -23.68697713 21.27053372 -20.72265625 18.359375 C-19.93283607 17.56880707 -19.93283607 17.56880707 -19.12705994 16.76226807 C-18.01513644 15.65268083 -16.89952865 14.54677502 -15.78051758 13.44433594 C-14.06344507 11.75093205 -12.36015619 10.04452251 -10.65820312 8.3359375 C-9.57631205 7.25962076 -8.49365563 6.18407268 -7.41015625 5.109375 C-6.89864517 4.59695251 -6.38713409 4.08453003 -5.86012268 3.55657959 C-2.23104034 0 -2.23104034 0 0 0 Z " fill="#151515" transform="translate(67,29)"/>
<path d="M0 0 C1.98 1.65 3.96 3.3 6 5 C5.07456291 6.34173403 4.13422595 7.67320159 3.1875 9 C2.40439453 10.11375 2.40439453 10.11375 1.60546875 11.25 C1.07566406 11.8275 0.54585938 12.405 0 13 C-0.99 13 -1.98 13 -3 13 C-3.33 11.35 -3.66 9.7 -4 8 C-4.99 7.67 -5.98 7.34 -7 7 C-4.69 4.69 -2.38 2.38 0 0 Z " fill="#060606" transform="translate(75,28)"/>
<path d="M0 0 C-1.44253657 3.36591866 -3.33264727 5.51047079 -6 8 C-6.99 7.67 -7.98 7.34 -9 7 C-7.88121617 5.82737096 -6.75476949 4.66204862 -5.625 3.5 C-4.68527344 2.52546875 -4.68527344 2.52546875 -3.7265625 1.53125 C-2 0 -2 0 0 0 Z " fill="#CCCCCC" transform="translate(55,45)"/>
<path d="M0 0 C-1.44077046 3.36179774 -3.24750021 5.59156268 -6 8 C-6.66 8 -7.32 8 -8 8 C-6.48291727 4.46014029 -4.24676932 0 0 0 Z " fill="#E7E7E7" transform="translate(64,36)"/>
<path d="M0 0 C0.66 0 1.32 0 2 0 C2.33 1.65 2.66 3.3 3 5 C1.68 5.33 0.36 5.66 -1 6 C-1.66 5.01 -2.32 4.02 -3 3 C-2.01 3 -1.02 3 0 3 C0 2.01 0 1.02 0 0 Z " fill="#CDCDCD" transform="translate(69,36)"/>
<path d="M0 0 C0.99 0.33 1.98 0.66 3 1 C2.67 2.65 2.34 4.3 2 6 C0.68 5.67 -0.64 5.34 -2 5 C-2 4.34 -2 3.68 -2 3 C-1.01 3 -0.02 3 1 3 C0.67 2.01 0.34 1.02 0 0 Z " fill="#DBDBDB" transform="translate(59,46)"/>
<path d="M0 0 C0.99 0.66 1.98 1.32 3 2 C2.67 3.32 2.34 4.64 2 6 C0.68 6 -0.64 6 -2 6 C-2 5.34 -2 4.68 -2 4 C-1.34 4 -0.68 4 0 4 C0 2.68 0 1.36 0 0 Z " fill="#DDDDDD" transform="translate(50,55)"/>
</svg>
