<?xml version="1.0" encoding="UTF-8"?>
<svg version="1.1" xmlns="http://www.w3.org/2000/svg" width="94" height="94">
<path d="M0 0 C31.02 0 62.04 0 94 0 C94 31.02 94 62.04 94 94 C62.98 94 31.96 94 0 94 C0 62.98 0 31.96 0 0 Z " fill="#FDFDFD" transform="translate(0,0)"/>
<path d="M0 0 C3.15856443 0.59720756 3.92386937 0.91963989 6.25 3.375 C8.3775579 6.56633685 8 8.24598613 8 12 C7.01 12.33 6.02 12.66 5 13 C4.67 13.99 4.34 14.98 4 16 C2 15 2 15 1 13 C-6.77695897 17.03803639 -11.91170179 22.95417462 -17.61523438 29.44335938 C-18.83574823 30.81536155 -20.09483578 32.15284032 -21.359375 33.484375 C-22.00390625 34.17015625 -22.6484375 34.8559375 -23.3125 35.5625 C-23.86550781 36.14128906 -24.41851562 36.72007813 -24.98828125 37.31640625 C-26.22200348 38.97714101 -26.22200348 38.97714101 -25.73828125 41.09765625 C-25.04312615 43.04811558 -25.04312615 43.04811558 -23.875 44.875 C-22.52533885 48.1527485 -22.7143362 49.68434074 -24 53 C-26.0078125 54.25 -26.0078125 54.25 -28.4375 55.4375 C-32.3758789 57.33474092 -32.3758789 57.33474092 -34.375 61.25 C-34.58125 62.4875 -34.7875 63.725 -35 65 C-36.48779897 70.82310721 -37.63460776 74.69822016 -43 78 C-46.83109546 79.91554773 -50.84351428 79.68596547 -55 79 C-62.51760908 75.54746842 -68.50774597 69.48658931 -72 62 C-73.09485101 56.87307698 -72.6165869 53.25601035 -70.3125 48.5625 C-66.13671526 43.93527908 -62.30147098 42.61534467 -56.1875 41.8125 C-55.02605469 41.65394531 -53.86460938 41.49539062 -52.66796875 41.33203125 C-51.78753906 41.22246094 -50.90710938 41.11289062 -50 41 C-49.80664062 40.36191406 -49.61328125 39.72382812 -49.4140625 39.06640625 C-49.15367188 38.24011719 -48.89328125 37.41382813 -48.625 36.5625 C-48.36976562 35.73878906 -48.11453125 34.91507813 -47.8515625 34.06640625 C-47 32 -47 32 -45 31 C-39.85551474 30.61173696 -37.27228108 31.20573699 -33 34 C-31.87464844 32.96552734 -31.87464844 32.96552734 -30.7265625 31.91015625 C-28.03410087 29.43657597 -25.33658986 26.96855682 -22.63818359 24.50146484 C-21.11534575 23.10571928 -19.59843948 21.70350961 -18.08203125 20.30078125 C-17.20933594 19.50027344 -16.33664063 18.69976563 -15.4375 17.875 C-14.65246094 17.15054687 -13.86742187 16.42609375 -13.05859375 15.6796875 C-11 14 -11 14 -8 13 C-7.86271484 11.89591797 -7.86271484 11.89591797 -7.72265625 10.76953125 C-6.88361172 7.55394976 -5.68711608 6.10072452 -3.4375 3.6875 C-2.79683594 2.99011719 -2.15617187 2.29273438 -1.49609375 1.57421875 C-1.00238281 1.05472656 -0.50867188 0.53523437 0 0 Z " fill="#050505" transform="translate(81,10)"/>
<path d="M0 0 C0.66 0.66 1.32 1.32 2 2 C1.625 5.125 1.625 5.125 1 8 C-2.375 8.625 -2.375 8.625 -6 9 C-6.66 8.34 -7.32 7.68 -8 7 C-7.75 3.4375 -7.75 3.4375 -7 0 C-4.29393021 -1.35303489 -2.8671629 -0.7884698 0 0 Z " fill="#EFEFEF" transform="translate(43,54)"/>
<path d="M0 0 C0.66 0 1.32 0 2 0 C3.35386936 1.65002828 4.68678142 3.3174387 6 5 C6.66 5.33 7.32 5.66 8 6 C7.34 7.32 6.68 8.64 6 10 C4.82460004 9.07347299 3.65989423 8.13336613 2.5 7.1875 C1.52546875 6.40439453 1.52546875 6.40439453 0.53125 5.60546875 C-1 4 -1 4 -1 1 C-0.67 0.67 -0.34 0.34 0 0 Z " fill="#E5E5E5" transform="translate(29,61)"/>
<path d="M0 0 C0.99 0.33 1.98 0.66 3 1 C3 1.99 3 2.98 3 4 C2.01 4.33 1.02 4.66 0 5 C-0.33 5.99 -0.66 6.98 -1 8 C-1.66 7.67 -2.32 7.34 -3 7 C-2.25 2.25 -2.25 2.25 0 0 Z " fill="#717171" transform="translate(86,18)"/>
</svg>
