<?xml version="1.0" encoding="UTF-8"?>
<svg version="1.1" xmlns="http://www.w3.org/2000/svg" width="102" height="124">
<path d="M0 0 C33.66 0 67.32 0 102 0 C102 40.92 102 81.84 102 124 C68.34 124 34.68 124 0 124 C0 83.08 0 42.16 0 0 Z " fill="#FEFEFE" transform="translate(0,0)"/>
<path d="M0 0 C2.125 0.375 2.125 0.375 4 1 C4 1.99 4 2.98 4 4 C4.7734375 3.96519531 5.546875 3.93039063 6.34375 3.89453125 C14.26013927 3.68878351 20.35188727 3.56140726 26.3125 9.1796875 C29.77342583 12.92522894 32.93140999 16.79325508 35.8125 21 C38.25319472 24.53856117 38.25319472 24.53856117 42 26 C46.03541127 25.73965089 49.25212884 25.2594655 53.0625 23.9375 C56.49201608 22.84297359 59.4220224 22.8568809 63 23 C63.69555664 24.62963867 63.69555664 24.62963867 64 27 C62.77514648 29.7512207 62.77514648 29.7512207 60.87109375 32.92578125 C60.52980942 33.50182602 60.18852509 34.07787079 59.8368988 34.67137146 C59.09925895 35.91208097 58.35577405 37.14933014 57.6071167 38.38342285 C56.43077348 40.32359421 55.27159844 42.27316268 54.11572266 44.22558594 C50.41464265 50.45408519 46.63054798 56.61896049 42.71484375 62.71484375 C42.06523682 63.73860107 41.41562988 64.7623584 40.74633789 65.81713867 C39.5286062 67.72563323 38.29041259 69.62127569 37.02905273 71.5012207 C34.22631464 75.89987665 32.56489825 78.84146877 33.1328125 84.140625 C33.41898438 85.41421875 33.70515625 86.6878125 34 88 C34.99 88.33 35.98 88.66 37 89 C37 89.99 37 90.98 37 92 C26.11 92 15.22 92 4 92 C4.33 90.68 4.66 89.36 5 88 C5.66 88 6.32 88 7 88 C6.938125 87.05125 6.87625 86.1025 6.8125 85.125 C6.874375 84.09375 6.93625 83.0625 7 82 C8.485 81.01 8.485 81.01 10 80 C9.29691358 75.24921205 8.58805372 70.49930126 7.875 65.75 C7.71143005 64.66054077 7.71143005 64.66054077 7.54455566 63.54907227 C5.50109852 49.98087261 3.27861652 36.44604733 0.96826172 22.92089844 C-1.7047569 7.22353179 -1.7047569 7.22353179 -2 2 C-1.34 1.34 -0.68 0.68 0 0 Z " fill="#070707" transform="translate(27,16)"/>
<path d="M0 0 C6.5280445 -0.47476687 11.44202884 0.39184151 17 4 C18.93848991 5.93042966 20.62060546 7.93185573 22.30078125 10.08984375 C24.05941694 12.06679283 25.4694374 12.8453774 27.8125 14 C30.86959033 15.94915156 31.03060745 17.13695775 31.84765625 20.79296875 C32.24218004 23.68331975 32.49807228 26.57165021 32.7109375 29.48046875 C32.76729203 32.84500006 32.76729203 32.84500006 34 35 C35.08318662 30.91721966 34.83473185 27.82121165 34.0625 23.6875 C33.77052734 22.08455078 33.77052734 22.08455078 33.47265625 20.44921875 C33.31667969 19.64097656 33.16070312 18.83273438 33 18 C35.64 18 38.28 18 41 18 C40.01 18.33 39.02 18.66 38 19 C38 21.97 38 24.94 38 28 C38.66 28 39.32 28 40 28 C38.94757366 34.34644973 34.54505749 40.15286342 31.34863281 45.64160156 C29.94780765 48.09127048 28.60990795 50.56940497 27.2734375 53.0546875 C26.3503913 54.70392782 25.42594144 56.35238343 24.5 58 C24.08637207 58.7955127 23.67274414 59.59102539 23.24658203 60.41064453 C21.97093262 62.62121774 20.92028746 64.31456784 19 66 C15.8894958 66.65211902 13.12512903 66.49506995 10 66 C9.91959473 65.39115967 9.83918945 64.78231934 9.75634766 64.1550293 C9.38195772 61.33215051 9.00349446 58.50983127 8.625 55.6875 C8.49867187 54.73037109 8.37234375 53.77324219 8.2421875 52.78710938 C7.48482703 47.1637079 6.59471658 41.58842097 5.55322266 36.01098633 C4.54504481 30.52384717 3.63266686 25.02009911 2.71289062 19.51757812 C2.37079079 17.47486641 2.025234 15.43275614 1.6796875 13.390625 C1.463125 12.09640625 1.2465625 10.8021875 1.0234375 9.46875 C0.82669434 8.29763672 0.62995117 7.12652344 0.42724609 5.91992188 C0 3 0 3 0 0 Z " fill="#EDEDED" transform="translate(33,31)"/>
<path d="M0 0 C5.05296625 1.29261927 7.51959759 3.16263324 11 7 C11.84949219 7.721875 12.69898438 8.44375 13.57421875 9.1875 C16.50723657 12.58810038 16.93179938 15.37085736 17.25 19.6875 C17.54412081 24.4904845 17.54412081 24.4904845 19 29 C20.08318662 24.91721966 19.83473185 21.82121165 19.0625 17.6875 C18.77052734 16.08455078 18.77052734 16.08455078 18.47265625 14.44921875 C18.31667969 13.64097656 18.16070312 12.83273438 18 12 C20.64 12 23.28 12 26 12 C25.01 12.33 24.02 12.66 23 13 C23 15.97 23 18.94 23 22 C23.66 22 24.32 22 25 22 C24.3874112 24.85612139 23.51257825 27.14156348 22.07421875 29.6796875 C21.68943359 30.36160156 21.30464844 31.04351562 20.90820312 31.74609375 C20.50537109 32.44863281 20.10253906 33.15117188 19.6875 33.875 C19.29626953 34.56980469 18.90503906 35.26460937 18.50195312 35.98046875 C17.35531981 37.9999125 16.18411599 40.00234216 15 42 C14.65533691 42.5971582 14.31067383 43.19431641 13.95556641 43.80957031 C12.43934386 46.29335786 11.51359478 47.8002687 8.75 48.875 C8.1725 48.91625 7.595 48.9575 7 49 C4.86733092 38.03414836 3.00463446 27.04414853 1.31518555 16.00146484 C1.03733582 14.23708677 0.72992305 12.47741852 0.41796875 10.71875 C-0.13974495 7.0910048 -0.06320525 3.66590452 0 0 Z " fill="#E9E9E9" transform="translate(48,37)"/>
<path d="M0 0 C1.9375 2.125 1.9375 2.125 3 4 C2.01 4 1.02 4 0 4 C0.53510016 13.47207143 1.81815977 22.66818933 3.5 32 C3.72558594 33.28261719 3.95117188 34.56523438 4.18359375 35.88671875 C5.07504918 40.93478294 5.97758466 45.97662599 7 51 C7.99 50.505 7.99 50.505 9 50 C8.35341074 53.49158202 7.03960471 56.0974856 5 59 C3.515 59.495 3.515 59.495 2 60 C-0.07490852 47.94787181 -1.91861646 35.87698458 -3.61181641 23.765625 C-4.2940719 18.90487644 -4.99178317 14.04633668 -5.6875 9.1875 C-5.94147161 7.41016559 -6.19538415 5.63282273 -6.44921875 3.85546875 C-6.63097656 2.58316406 -6.81273437 1.31085937 -7 0 C-7.99 -0.33 -8.98 -0.66 -10 -1 C-5.9761071 -2.34129763 -3.92371185 -1.47139194 0 0 Z " fill="#EFEFEF" transform="translate(49,34)"/>
<path d="M0 0 C0.99 0 1.98 0 3 0 C4.81101516 5.43304549 5.59832434 10.82538669 6.36328125 16.4921875 C7.16877614 22.34262409 8.12403176 28.16971345 9.0625 34 C9.32426025 35.62977783 9.32426025 35.62977783 9.59130859 37.29248047 C9.84195068 38.84926514 9.84195068 38.84926514 10.09765625 40.4375 C10.25516357 41.41702637 10.4126709 42.39655273 10.57495117 43.40576172 C10.90526912 45.4218206 11.25695309 47.43438373 11.6171875 49.4453125 C11.99485537 51.96566745 12.10106988 54.32938774 12.0625 56.875 C12.05347656 57.65617187 12.04445313 58.43734375 12.03515625 59.2421875 C12.02355469 59.82226562 12.01195312 60.40234375 12 61 C11.34 61 10.68 61 10 61 C7.13334919 48.86077479 5.10204532 36.64845659 3.3125 24.3125 C3.15015366 23.19442963 3.15015366 23.19442963 2.98452759 22.05377197 C1.92266008 14.71039064 0.90658198 7.36425869 0 0 Z " fill="#222222" transform="translate(39,34)"/>
<path d="M0 0 C1.32 0.33 2.64 0.66 4 1 C4.98598587 5.76266388 5.7418952 10.55216411 6.5 15.35546875 C6.86863151 17.96498254 6.86863151 17.96498254 8 20 C9.08318662 15.91721966 8.83473185 12.82121165 8.0625 8.6875 C7.86785156 7.61886719 7.67320313 6.55023438 7.47265625 5.44921875 C7.31667969 4.64097656 7.16070312 3.83273438 7 3 C9.64 3 12.28 3 15 3 C14.01 3.33 13.02 3.66 12 4 C12 6.97 12 9.94 12 13 C12.66 13 13.32 13 14 13 C13.31753247 16.86108345 11.53092043 19.82768052 9.5625 23.1875 C8.63630859 24.78658203 8.63630859 24.78658203 7.69140625 26.41796875 C6 29 6 29 4 30 C3.42855046 26.04924711 2.85893113 22.09823515 2.29101562 18.14697266 C2.0975101 16.80249885 1.9035023 15.45809724 1.70898438 14.11376953 C1.42967176 12.18280735 1.15230785 10.25156361 0.875 8.3203125 C0.70742188 7.15773926 0.53984375 5.99516602 0.3671875 4.79736328 C0 2 0 2 0 0 Z " fill="#EDEDED" transform="translate(59,46)"/>
<path d="M0 0 C3.45186669 2.30124446 3.68954695 3.53197038 4.5390625 7.4453125 C5.39466312 12.18737018 6.0475597 16.94996277 6.68066406 21.72607422 C7.05430583 24.38670066 7.47632218 27.03804725 7.8984375 29.69140625 C8.20333259 31.69007251 8.50802003 33.68877046 8.8125 35.6875 C8.97290771 36.6563916 9.13331543 37.6252832 9.29858398 38.62353516 C9.43337158 39.53538574 9.56815918 40.44723633 9.70703125 41.38671875 C9.8356958 42.20358154 9.96436035 43.02044434 10.09692383 43.86206055 C10 46 10 46 8.51831055 47.78833008 C8.01726807 48.18818115 7.51622559 48.58803223 7 49 C4.86733092 38.03414836 3.00463446 27.04414853 1.31518555 16.00146484 C1.03733582 14.23708677 0.72992305 12.47741852 0.41796875 10.71875 C-0.13974495 7.0910048 -0.06320525 3.66590452 0 0 Z " fill="#1C1C1C" transform="translate(48,37)"/>
<path d="M0 0 C5.28 0.33 10.56 0.66 16 1 C14.97038242 6.14808788 13.65675751 8.62920538 11 13 C10.01 12.67 9.02 12.34 8 12 C8 9.03 8 6.06 8 3 C6.68 3 5.36 3 4 3 C4.15597656 3.73605469 4.31195313 4.47210938 4.47265625 5.23046875 C4.66730469 6.20628906 4.86195312 7.18210937 5.0625 8.1875 C5.25972656 9.15042969 5.45695312 10.11335938 5.66015625 11.10546875 C6.00814948 14.06941105 5.88352885 16.15756146 5 19 C4.34 19.33 3.68 19.66 3 20 C2.49395076 17.60530271 1.99500483 15.20948283 1.5 12.8125 C1.28537109 11.80219727 1.28537109 11.80219727 1.06640625 10.77148438 C0.30028186 7.03206773 0 3.85912726 0 0 Z " fill="#AAAAAA" transform="translate(63,47)"/>
<path d="M0 0 C1.93457031 0.7434082 1.93457031 0.7434082 4 2 C4.72949219 3.86010742 4.72949219 3.86010742 5.046875 6.10546875 C5.23056641 7.33426758 5.23056641 7.33426758 5.41796875 8.58789062 C5.52753906 9.44576172 5.63710938 10.30363281 5.75 11.1875 C5.87503906 12.02603516 6.00007813 12.86457031 6.12890625 13.72851562 C6.80660195 18.49845076 7.32539148 23.17544557 7 28 C6.34 28.66 5.68 29.32 5 30 C2.99083262 24.70628073 2.16994265 19.44771024 1.375 13.875 C1.2409375 12.98167969 1.106875 12.08835937 0.96875 11.16796875 C0.41243521 7.3702688 0 3.85263752 0 0 Z " fill="#1C1C1C" transform="translate(56,46)"/>
<path d="M0 0 C0.99 0 1.98 0 3 0 C4.82740271 5.5342074 5.40036883 10.62984825 5.625 16.4375 C5.66367187 17.26443359 5.70234375 18.09136719 5.7421875 18.94335938 C5.83553092 20.96191073 5.91880961 22.98092331 6 25 C5.34 25 4.68 25 4 25 C2.68 16.75 1.36 8.5 0 0 Z " fill="#202020" transform="translate(39,34)"/>
<path d="M0 0 C2.64 0 5.28 0 8 0 C7.01 0.33 6.02 0.66 5 1 C5 3.97 5 6.94 5 10 C5.66 10 6.32 10 7 10 C6.42655063 12.86724686 6.1385485 13.8614515 4 16 C2.06757715 12.65479742 1.4536147 9.55232518 0.875 5.75 C0.70742187 4.67234375 0.53984375 3.5946875 0.3671875 2.484375 C0.24601562 1.66453125 0.12484375 0.8446875 0 0 Z " fill="#F5F5F5" transform="translate(66,49)"/>
<path d="M0 0 C3.52461202 2.34974135 3.77325461 3.87391345 4.66015625 7.890625 C5.09942448 10.61711748 5.13771487 13.24570252 5 16 C4.34 16 3.68 16 3 16 C2.67 16.66 2.34 17.32 2 18 C0.59545452 11.88019467 -0.23268915 6.28260706 0 0 Z " fill="#272727" transform="translate(48,37)"/>
<path d="M0 0 C0.99 0 1.98 0 3 0 C3.36590746 1.72672034 3.71722195 3.45653655 4.0625 5.1875 C4.25972656 6.15042969 4.45695312 7.11335938 4.66015625 8.10546875 C5.00814948 11.06941105 4.88352885 13.15756146 4 16 C3.34 16.33 2.68 16.66 2 17 C1.66151348 15.10507994 1.32943089 13.20901534 1 11.3125 C0.814375 10.25675781 0.62875 9.20101562 0.4375 8.11328125 C0.04931926 5.35095938 -0.08259976 2.78257957 0 0 Z " fill="#212121" transform="translate(64,50)"/>
<path d="M0 0 C0.66 0 1.32 0 2 0 C3.69832609 5.83799592 4.25287193 10.93107371 4 17 C3.34 17 2.68 17 2 17 C0.4943096 11.19233704 -0.21824777 6.0018137 0 0 Z " fill="#151515" transform="translate(47,78)"/>
<path d="M0 0 C0.66 0 1.32 0 2 0 C3.3271261 3.9813783 3.06915913 7.85045227 3 12 C2.34 12 1.68 12 1 12 C-0.3271261 8.0186217 -0.06915913 4.14954773 0 0 Z " fill="#080808" transform="translate(42,47)"/>
</svg>
