<?xml version="1.0" encoding="UTF-8"?>
<svg version="1.1" xmlns="http://www.w3.org/2000/svg" width="118" height="108">
<path d="M0 0 C38.94 0 77.88 0 118 0 C118 35.64 118 71.28 118 108 C79.06 108 40.12 108 0 108 C0 72.36 0 36.72 0 0 Z " fill="#FEFEFE" transform="translate(0,0)"/>
<path d="M0 0 C0.68128967 -0.00175232 1.36257935 -0.00350464 2.06451416 -0.00531006 C4.32688917 -0.00972789 6.58918663 -0.00679084 8.8515625 -0.00341797 C10.4171551 -0.00409103 11.9827476 -0.00506107 13.54833984 -0.00631714 C16.83366895 -0.00779402 20.11897092 -0.00563988 23.40429688 -0.00097656 C27.62476766 0.00472073 31.84517486 0.00144167 36.06564331 -0.00454903 C39.29972822 -0.00815491 42.53379795 -0.00701593 45.7678833 -0.00442123 C47.32448331 -0.00375204 48.88108468 -0.00458012 50.43768311 -0.00690079 C52.60953446 -0.00942777 54.78128146 -0.00558612 56.953125 0 C58.19143066 0.00079559 59.42973633 0.00159119 60.70556641 0.00241089 C63.4765625 0.12939453 63.4765625 0.12939453 64.4765625 1.12939453 C64.57612528 3.30202133 64.60455969 5.47792559 64.60595703 7.65283203 C64.60858551 8.67476654 64.60858551 8.67476654 64.61126709 9.71734619 C64.61568492 11.9797212 64.61274788 14.24201866 64.609375 16.50439453 C64.61004806 18.06998713 64.6110181 19.63557963 64.61227417 21.20117188 C64.61375105 24.48650098 64.61159691 27.77180295 64.60693359 31.05712891 C64.6012363 35.27759969 64.60451536 39.49800689 64.61050606 43.71847534 C64.61411194 46.95256025 64.61297296 50.18662998 64.61037827 53.42071533 C64.60970907 54.97731534 64.61053716 56.53391671 64.61285782 58.09051514 C64.6153848 60.26236649 64.61154315 62.43411349 64.60595703 64.60595703 C64.60516144 65.8442627 64.60436584 67.08256836 64.60354614 68.35839844 C64.4765625 71.12939453 64.4765625 71.12939453 63.4765625 72.12939453 C61.3039357 72.22895731 59.12803144 72.25739172 56.953125 72.25878906 C56.27183533 72.26054138 55.59054565 72.2622937 54.88861084 72.26409912 C52.62623583 72.26851695 50.36393837 72.26557991 48.1015625 72.26220703 C46.5359699 72.26288009 44.9703774 72.26385013 43.40478516 72.2651062 C40.11945605 72.26658308 36.83415408 72.26442894 33.54882812 72.25976562 C29.32835734 72.25406834 25.10795014 72.25734739 20.88748169 72.26333809 C17.65339678 72.26694397 14.41932705 72.26580499 11.1852417 72.2632103 C9.62864169 72.2625411 8.07204032 72.26336919 6.51544189 72.26568985 C4.34359054 72.26821683 2.17184354 72.26437518 0 72.25878906 C-1.23830566 72.25799347 -2.47661133 72.25719788 -3.75244141 72.25637817 C-6.5234375 72.12939453 -6.5234375 72.12939453 -7.5234375 71.12939453 C-7.62300028 68.95676773 -7.65143469 66.78086347 -7.65283203 64.60595703 C-7.65458435 63.92466736 -7.65633667 63.24337769 -7.65814209 62.54144287 C-7.66255992 60.27906786 -7.65962288 58.0167704 -7.65625 55.75439453 C-7.65692306 54.18880193 -7.6578931 52.62320943 -7.65914917 51.05761719 C-7.66062605 47.77228808 -7.65847191 44.48698611 -7.65380859 41.20166016 C-7.6481113 36.98118937 -7.65139036 32.76078217 -7.65738106 28.54031372 C-7.66098694 25.30622881 -7.65984796 22.07215909 -7.65725327 18.83807373 C-7.65658407 17.28147372 -7.65741216 15.72487235 -7.65973282 14.16827393 C-7.6622598 11.99642257 -7.65841815 9.82467557 -7.65283203 7.65283203 C-7.65203644 6.41452637 -7.65124084 5.1762207 -7.65042114 3.90039062 C-7.41283072 -1.28423102 -4.56852963 0.00293521 0 0 Z " fill="#000000" transform="translate(31.5234375,16.87060546875)"/>
<path d="M0 0 C2.97 0 5.94 0 9 0 C9.33 13.53 9.66 27.06 10 41 C10.99 41 11.98 41 13 41 C13 48.59 13 56.18 13 64 C8.71 64 4.42 64 0 64 C0 42.88 0 21.76 0 0 Z " fill="#FEFEFE" transform="translate(28,21)"/>
<path d="M0 0 C2.97 0 5.94 0 9 0 C9 21.12 9 42.24 9 64 C4.71 64 0.42 64 -4 64 C-4 56.41 -4 48.82 -4 41 C-2.515 40.505 -2.515 40.505 -1 40 C-0.67 26.8 -0.34 13.6 0 0 Z " fill="#FEFEFE" transform="translate(83,21)"/>
<path d="M0 0 C1.65 0 3.3 0 5 0 C5.33 13.53 5.66 27.06 6 41 C6.99 41 7.98 41 9 41 C9 48.59 9 56.18 9 64 C4.71 64 0.42 64 -4 64 C-4 56.41 -4 48.82 -4 41 C-2.515 40.505 -2.515 40.505 -1 40 C-0.67 26.8 -0.34 13.6 0 0 Z " fill="#FEFEFE" transform="translate(66,21)"/>
<path d="M0 0 C1.65 0 3.3 0 5 0 C5.33 13.53 5.66 27.06 6 41 C6.99 41 7.98 41 9 41 C9 48.59 9 56.18 9 64 C4.71 64 0.42 64 -4 64 C-4 56.41 -4 48.82 -4 41 C-2.515 40.505 -2.515 40.505 -1 40 C-0.67 26.8 -0.34 13.6 0 0 Z " fill="#FEFEFE" transform="translate(49,21)"/>
</svg>
