<?xml version="1.0" encoding="UTF-8"?>
<svg version="1.1" xmlns="http://www.w3.org/2000/svg" width="68" height="102">
<path d="M0 0 C22.44 0 44.88 0 68 0 C68 33.66 68 67.32 68 102 C45.56 102 23.12 102 0 102 C0 68.34 0 34.68 0 0 Z " fill="#FCFCFC" transform="translate(0,0)"/>
<path d="M0 0 C2.29844979 2.23775375 2.95001908 3.64465747 3.39872742 6.83477783 C3.40983047 7.92731873 3.42093353 9.01985962 3.43237305 10.14550781 C3.46206429 12.00698456 3.46206429 12.00698456 3.49235535 13.90606689 C3.49912456 15.25508472 3.50557149 16.6041042 3.51171875 17.953125 C3.52856935 19.33747958 3.54672012 20.72181889 3.56611633 22.10614014 C3.6135817 25.74254588 3.64341308 29.37888972 3.66955566 33.01550293 C3.69937893 36.72920963 3.74590312 40.44270313 3.79101562 44.15625 C3.87700916 51.43739414 3.94437161 58.71855384 4 66 C5.32 66 6.64 66 8 66 C7.82210937 64.40671875 7.82210937 64.40671875 7.640625 62.78125 C6.84785764 54.57217793 6.43854707 49.18774401 11 42 C11 40.68 11 39.36 11 38 C11 37.01 11 36.02 11 35 C14.88136584 35.55612455 16.62756918 37.27673138 19.328125 40.03515625 C20.12734375 40.84404297 20.9265625 41.65292969 21.75 42.48632812 C22.575 43.33646484 23.4 44.18660156 24.25 45.0625 C25.51070312 46.34350586 25.51070312 46.34350586 26.796875 47.65039062 C28.87147597 49.76035412 30.93875832 51.87699708 33 54 C32.67 54.99 32.34 55.98 32 57 C29.03 56.505 29.03 56.505 26 56 C23.15140178 60.27289733 23.26095719 64.51253544 22.7578125 69.5546875 C21.71837665 74.28037007 19.48920626 76.72979466 15.875 79.8125 C10.8570399 81.88513569 5.77409591 82.09282566 0.6796875 80.0859375 C-3.94162012 77.44275417 -5.95871385 75.02046052 -8 70 C-9.84621448 56.80499652 -6.82138994 42.40365994 -5.36352539 29.27832031 C-4.24957295 19.60159648 -4.24957295 19.60159648 -3.9375 9.875 C-3.94652344 8.94429687 -3.95554687 8.01359375 -3.96484375 7.0546875 C-3.97644531 6.37664063 -3.98804687 5.69859375 -4 5 C-6.45421978 5.34278127 -6.45421978 5.34278127 -9 6 C-9.474375 6.680625 -9.94875 7.36125 -10.4375 8.0625 C-12 10 -12 10 -15.0625 10.4375 C-16.031875 10.293125 -17.00125 10.14875 -18 10 C-18.66 9.01 -19.32 8.02 -20 7 C-17.69 7 -15.38 7 -13 7 C-12.7525 6.401875 -12.505 5.80375 -12.25 5.1875 C-9.28518607 -0.00092438 -5.8059133 -0.73893442 0 0 Z " fill="#0C0C0C" transform="translate(28,10)"/>
</svg>
