<?xml version="1.0" encoding="UTF-8"?>
<svg version="1.1" xmlns="http://www.w3.org/2000/svg" width="236" height="227">
<path d="M0 0 C77.88 0 155.76 0 236 0 C236 74.91 236 149.82 236 227 C158.12 227 80.24 227 0 227 C0 152.09 0 77.18 0 0 Z " fill="#1F1F21" transform="translate(0,0)"/>
<path d="M0 0 C4.36986873 3.26513305 8.45819368 6.84776872 12 11 C12 11.99 12 12.98 12 14 C11.40832031 13.38511719 10.81664062 12.77023438 10.20703125 12.13671875 C9.41683594 11.32847656 8.62664062 10.52023438 7.8125 9.6875 C7.03519531 8.88699219 6.25789063 8.08648437 5.45703125 7.26171875 C1.30327147 3.35731503 1.30327147 3.35731503 -4 2 C-5.25124046 3.66274199 -5.25124046 3.66274199 -6 6 C-5.35416491 9.18810561 -5.35416491 9.18810561 -4 12 C-3.34 12.33 -2.68 12.66 -2 13 C-1.85175781 13.61101562 -1.70351562 14.22203125 -1.55078125 14.8515625 C-0.90314787 17.37779199 0.05134209 18.47562464 1.8125 20.375 C8.85349634 28.31520792 8.85349634 28.31520792 9.25 32.875 C9.1675 33.57625 9.085 34.2775 9 35 C9.66 35 10.32 35 11 35 C11.9625714 40.67532095 12.18318554 46.18632475 12.1875 51.9375 C12.19974609 52.79279297 12.21199219 53.64808594 12.22460938 54.52929688 C12.25661134 68.51415616 6.44090863 79.88264513 -2.890625 90.0625 C-10.45437114 97.45816289 -21.64234488 103.11661574 -32.40625 103.1328125 C-33.64568359 103.13474609 -33.64568359 103.13474609 -34.91015625 103.13671875 C-35.76480469 103.13285156 -36.61945313 103.12898438 -37.5 103.125 C-38.35464844 103.12886719 -39.20929688 103.13273437 -40.08984375 103.13671875 C-40.91613281 103.13542969 -41.74242187 103.13414062 -42.59375 103.1328125 C-43.34333984 103.13168457 -44.09292969 103.13055664 -44.86523438 103.12939453 C-47.02957078 102.99820763 -48.90515043 102.53736989 -51 102 C-52.175625 101.95875 -53.35125 101.9175 -54.5625 101.875 C-63.12492962 100.8667139 -70.43110966 94.17093254 -76 88 C-78.34609953 90.34609953 -78.61437192 91.674059 -79.3125 94.875 C-79.51488281 95.73867187 -79.71726562 96.60234375 -79.92578125 97.4921875 C-80.01909114 100.64507956 -79.09119704 101.72350702 -77 104 C-88.90696428 98.62606037 -95.55911809 84.55624453 -100 73 C-103.64746248 60.66104864 -104.00183366 44.94694728 -99 33 C-98.62875 32.104021 -98.62875 32.104021 -98.25 31.18994141 C-90.85593483 13.81303246 -78.81675586 0.87322328 -61.31640625 -6.7109375 C-40.87087658 -14.65796317 -18.31674474 -12.01785903 0 0 Z " fill="#252525" transform="translate(153,56)"/>
<path d="M0 0 C0 0.66 0 1.32 0 2 C1.32 2.33 2.64 2.66 4 3 C4 3.66 4 4.32 4 5 C4.61875 5.309375 5.2375 5.61875 5.875 5.9375 C7.25 6.625 8.625 7.3125 10 8 C10 8.66 10 9.32 10 10 C10.66 10 11.32 10 12 10 C12 10.66 12 11.32 12 12 C15.0831351 10.80100302 18.06279492 9.52299523 21 8 C24.7960025 10.53066833 25.27925223 12.84152623 27 17 C28.22338275 19.44146006 28.22338275 19.44146006 30 21 C32.56781183 21.13031563 32.56781183 21.13031563 35 21 C34.98259766 22.28197266 34.98259766 22.28197266 34.96484375 23.58984375 C34.95582031 24.69457031 34.94679687 25.79929688 34.9375 26.9375 C34.92009766 28.59072266 34.92009766 28.59072266 34.90234375 30.27734375 C34.68737429 32.91447634 34.68737429 32.91447634 36 34 C36.04063832 35.66617115 36.042721 37.33388095 36 39 C36.99 39.33 37.98 39.66 39 40 C38.01 40.33 37.02 40.66 36 41 C36.99 41.66 37.98 42.32 39 43 C38.649375 43.5775 38.29875 44.155 37.9375 44.75 C36.83487562 47.3962985 36.95046049 48.37615122 38 51 C38.66 51.66 39.32 52.32 40 53 C40.33 53.99 40.66 54.98 41 56 C42.65 56 44.3 56 46 56 C46.66 54.35 47.32 52.7 48 51 C48.66 51 49.32 51 50 51 C49.74379316 49.3934324 49.46944129 47.7897517 49.1875 46.1875 C48.96126953 44.84751953 48.96126953 44.84751953 48.73046875 43.48046875 C48.21077905 40.95481164 48.21077905 40.95481164 46.44921875 39.51953125 C44.31997864 37.28698569 44.60061412 35.52384907 44.625 32.5 C44.61726562 31.5409375 44.60953125 30.581875 44.6015625 29.59375 C45.05081797 26.66918495 45.71071834 25.792665 48 24 C54.55351216 32.01390484 56.25882886 44.90567431 56 55 C56.33 55.66 56.66 56.32 57 57 C57.12660557 59.65871699 57.19035436 62.27837916 57.1875 64.9375 C57.18669434 65.70223633 57.18588867 66.46697266 57.18505859 67.25488281 C57.09912 75.25896793 56.12771328 82.58810803 53 90 C52.34 90 51.68 90 51 90 C51.12181641 91.01707031 51.12181641 91.01707031 51.24609375 92.0546875 C50.91463742 96.02164107 49.10331864 98.81085008 47.0625 102.125 C44.15779419 106.87782571 44.15779419 106.87782571 42 112 C41.34 112 40.68 112 40 112 C39.6596875 112.7734375 39.6596875 112.7734375 39.3125 113.5625 C37.51782382 116.89547005 35.50034985 120.14703671 33 123 C32.34 123 31.68 123 31 123 C31 123.66 31 124.32 31 125 C30.34 125 29.68 125 29 125 C29 125.66 29 126.32 29 127 C26.83000205 128.89949136 24.65451222 130.67856049 22.375 132.4375 C21.75753906 132.92798828 21.14007813 133.41847656 20.50390625 133.92382812 C11.43189103 141 11.43189103 141 7 141 C6.67 141.99 6.34 142.98 6 144 C1.91281362 146.55449148 -2.1176145 147.59697114 -6.7734375 148.53125 C-8.72667264 148.9424574 -10.64970889 149.49201844 -12.5625 150.0625 C-34.77366655 156.12009088 -62.88631398 150.56488891 -82.625 139.375 C-87.85063752 136.29872495 -87.85063752 136.29872495 -89 134 C-84.53150008 132.51050003 -81.56406563 131.73220399 -77 133 C-76.01 133 -75.02 133 -74 133 C-73.95875 133.598125 -73.9175 134.19625 -73.875 134.8125 C-73.13229501 137.31710185 -73.13229501 137.31710185 -70.125 138.6875 C-66.14387993 140.35957043 -63.29445248 141.11606628 -59 141 C-57.6955829 138.90802879 -57.6955829 138.90802879 -58.625 136 C-59.70630691 132.8686227 -59.70630691 132.8686227 -62.3125 131.6875 C-64.86632 131.03419721 -67.40791884 130.47748863 -70 130 C-73 129 -73 129 -75 127 C-76.98387708 125.96838392 -78.98276656 124.96476382 -81 124 C-81 123.34 -81 122.68 -81 122 C-82.32 121.67 -83.64 121.34 -85 121 C-84 119 -84 119 -83 118 C-84.32 118 -85.64 118 -87 118 C-86.67 116.68 -86.34 115.36 -86 114 C-87.32 113.67 -88.64 113.34 -90 113 C-88.92598892 110.08482708 -88.22189824 108.22189824 -86 106 C-86.60328125 105.28714844 -87.2065625 104.57429688 -87.828125 103.83984375 C-94.98755602 95.26007399 -99.56219183 87.66328995 -103 77 C-103.22945312 76.29230469 -103.45890625 75.58460937 -103.6953125 74.85546875 C-108.55570649 56.9541585 -103.82800586 37.34205127 -95.0625 21.5625 C-94.57692627 20.67522217 -94.57692627 20.67522217 -94.08154297 19.77001953 C-91.88525044 15.96710905 -89.53410736 13.56712033 -86 11 C-85.195625 10.195625 -84.39125 9.39125 -83.5625 8.5625 C-59.86539312 -15.13460688 -27.86808154 -13.93404077 0 0 Z M-84 13 C-84.62390625 13.59039062 -85.2478125 14.18078125 -85.890625 14.7890625 C-97.80305261 26.96978802 -102.51732454 44.12335689 -102.34765625 60.66601562 C-101.86014558 77.74171818 -94.22125183 93.1644287 -82 105 C-81 106 -80 107 -79 108 C-78.01 107.505 -78.01 107.505 -77 107 C-77.50917969 106.60941406 -78.01835938 106.21882813 -78.54296875 105.81640625 C-80 104 -80 104 -79.92578125 101.58984375 C-79.72339844 100.71457031 -79.52101563 99.83929688 -79.3125 98.9375 C-79.02826172 97.62072266 -79.02826172 97.62072266 -78.73828125 96.27734375 C-78 94 -78 94 -76 92 C-75.41605469 92.65355469 -75.41605469 92.65355469 -74.8203125 93.3203125 C-68.04547268 100.53223876 -61.15648368 105.55809152 -51.03125 105.89453125 C-49 106 -49 106 -47 107 C-29.97354465 108.20632781 -16.65917796 105.52370747 -3.14453125 94.484375 C4.72030789 87.33136456 10.77402262 76.59594738 12 66 C12.13449389 62.6860994 12.13970612 59.37872966 12.125 56.0625 C12.12886719 55.19431641 12.13273437 54.32613281 12.13671875 53.43164062 C12.12928461 48.51395393 11.8310599 43.84784944 11 39 C10.34 39 9.68 39 9 39 C9 38.05125 9 37.1025 9 36.125 C8.13575945 29.62325189 2.46207573 24.46207573 -2 20 C-2 18.68 -2 17.36 -2 16 C-2.66 16 -3.32 16 -4 16 C-5.125 12.6875 -5.125 12.6875 -6 9 C-5.34 8.01 -4.68 7.02 -4 6 C0.64591294 7.30666301 3.56007627 10.06003033 7.03515625 13.24609375 C8.9490684 14.9545362 10.92719584 16.49040766 13 18 C8.2005519 7.45958528 -3.22003017 1.35076569 -13.5 -2.8125 C-39.06935957 -11.95730625 -64.86051045 -6.34310114 -84 13 Z " fill="#070707" transform="translate(153,52)"/>
<path d="M0 0 C2.59765625 2.19921875 2.59765625 2.19921875 3.59765625 5.19921875 C4.21125 5.50601563 4.82484375 5.8128125 5.45703125 6.12890625 C8.08650026 7.44364075 9.15666325 8.94145588 10.84765625 11.32421875 C11.3684375 12.04867187 11.88921875 12.773125 12.42578125 13.51953125 C12.8125 14.07382812 13.19921875 14.628125 13.59765625 15.19921875 C9.75244281 13.68859918 8.11280153 11.40074013 5.59765625 8.19921875 C3.82475286 6.63240547 2.0099646 5.11194732 0.16015625 3.63671875 C-0.76667969 2.89292969 -1.69351563 2.14914063 -2.6484375 1.3828125 C-4.01162109 0.30193359 -4.01162109 0.30193359 -5.40234375 -0.80078125 C-6.29695312 -1.53425781 -7.1915625 -2.26773438 -8.11328125 -3.0234375 C-10.32342749 -4.73950668 -11.62079021 -5.60894997 -14.40234375 -5.80078125 C-15.06234375 -5.14078125 -15.72234375 -4.48078125 -16.40234375 -3.80078125 C-17.39234375 -3.80078125 -18.38234375 -3.80078125 -19.40234375 -3.80078125 C-19.40234375 -3.14078125 -19.40234375 -2.48078125 -19.40234375 -1.80078125 C-17.42234375 -2.29578125 -17.42234375 -2.29578125 -15.40234375 -2.80078125 C-15.29921875 -2.16140625 -15.19609375 -1.52203125 -15.08984375 -0.86328125 C-14.86296875 -0.18265625 -14.63609375 0.49796875 -14.40234375 1.19921875 C-13.41234375 1.52921875 -12.42234375 1.85921875 -11.40234375 2.19921875 C-10.453125 4.265625 -10.453125 4.265625 -9.71484375 6.76171875 C-9.33779297 8.00115234 -9.33779297 8.00115234 -8.953125 9.265625 C-8.77136719 9.90371094 -8.58960938 10.54179688 -8.40234375 11.19921875 C-7.49484375 11.01359375 -6.58734375 10.82796875 -5.65234375 10.63671875 C-1.05917032 10.01840694 -1.05917032 10.01840694 1.59765625 11.19921875 C1.92765625 12.18921875 2.25765625 13.17921875 2.59765625 14.19921875 C3.11328125 14.65296875 3.62890625 15.10671875 4.16015625 15.57421875 C5.59765625 17.19921875 5.59765625 17.19921875 5.47265625 19.69921875 C5.51390625 20.52421875 5.55515625 21.34921875 5.59765625 22.19921875 C8.00820879 23.8622184 8.00820879 23.8622184 10.59765625 25.19921875 C10.92765625 26.18921875 11.25765625 27.17921875 11.59765625 28.19921875 C12.09265625 28.63234375 12.58765625 29.06546875 13.09765625 29.51171875 C15.18542955 31.86046371 15.0884447 34.14394943 15.59765625 37.19921875 C17.0345758 39.05723114 17.0345758 39.05723114 18.59765625 40.19921875 C17.60765625 41.18921875 17.60765625 41.18921875 16.59765625 42.19921875 C16.94828125 42.81796875 17.29890625 43.43671875 17.66015625 44.07421875 C19.0086906 48.56933324 18.25725491 52.60876862 17.59765625 57.19921875 C18.91765625 57.19921875 20.23765625 57.19921875 21.59765625 57.19921875 C21.92765625 60.49921875 22.25765625 63.79921875 22.59765625 67.19921875 C18.59765625 68.19921875 18.59765625 68.19921875 15.91015625 67.63671875 C13.59765625 66.19921875 13.59765625 66.19921875 12.72265625 63.19921875 C12.59765625 60.19921875 12.59765625 60.19921875 13.59765625 58.19921875 C12.93765625 57.53921875 12.27765625 56.87921875 11.59765625 56.19921875 C12.58765625 55.86921875 13.57765625 55.53921875 14.59765625 55.19921875 C13.93765625 54.86921875 13.27765625 54.53921875 12.59765625 54.19921875 C10.07976366 48.46401896 9.59300897 42.21316059 11.59765625 36.19921875 C9.12265625 36.69421875 9.12265625 36.69421875 6.59765625 37.19921875 C2.98121771 33.20210247 1.28017747 30.36696251 -0.40234375 25.19921875 C-1.39234375 24.86921875 -2.38234375 24.53921875 -3.40234375 24.19921875 C-3.73234375 24.85921875 -4.06234375 25.51921875 -4.40234375 26.19921875 C-6.72390972 26.60651103 -9.05922245 26.94360552 -11.40234375 27.19921875 C-11.40234375 26.53921875 -11.40234375 25.87921875 -11.40234375 25.19921875 C-12.06234375 25.19921875 -12.72234375 25.19921875 -13.40234375 25.19921875 C-13.40234375 24.53921875 -13.40234375 23.87921875 -13.40234375 23.19921875 C-14.33046875 22.73515625 -14.33046875 22.73515625 -15.27734375 22.26171875 C-16.65234375 21.57421875 -18.02734375 20.88671875 -19.40234375 20.19921875 C-19.40234375 19.53921875 -19.40234375 18.87921875 -19.40234375 18.19921875 C-20.72234375 17.86921875 -22.04234375 17.53921875 -23.40234375 17.19921875 C-23.40234375 16.53921875 -23.40234375 15.87921875 -23.40234375 15.19921875 C-24.16546875 14.97234375 -24.92859375 14.74546875 -25.71484375 14.51171875 C-28.83894232 13.39975146 -31.67150753 12.13255702 -34.65234375 10.69921875 C-50.9966438 3.2719832 -70.10312715 4.86045472 -86.65234375 11.01171875 C-95.03660594 14.62467384 -104.23792378 19.45258879 -109.40234375 27.19921875 C-110.06234375 27.19921875 -110.72234375 27.19921875 -111.40234375 27.19921875 C-111.73234375 28.18921875 -112.06234375 29.17921875 -112.40234375 30.19921875 C-113.06234375 30.19921875 -113.72234375 30.19921875 -114.40234375 30.19921875 C-114.66144531 30.89660156 -114.92054687 31.59398437 -115.1875 32.3125 C-116.52429503 35.4890001 -118.14165244 38.38840678 -119.83984375 41.38671875 C-124.37495291 49.74979946 -126.92749383 57.70222041 -127.40234375 67.19921875 C-127.46679688 68.38515625 -127.53125 69.57109375 -127.59765625 70.79296875 C-128.26975774 89.01388732 -122.42794987 105.37597047 -110.40234375 119.19921875 C-109.41234375 120.18921875 -109.41234375 120.18921875 -108.40234375 121.19921875 C-109.06234375 121.98296875 -109.72234375 122.76671875 -110.40234375 123.57421875 C-112.60435816 125.91434687 -112.60435816 125.91434687 -112.40234375 128.19921875 C-111.41234375 128.52921875 -110.42234375 128.85921875 -109.40234375 129.19921875 C-109.73234375 130.51921875 -110.06234375 131.83921875 -110.40234375 133.19921875 C-109.08234375 133.19921875 -107.76234375 133.19921875 -106.40234375 133.19921875 C-106.73234375 134.18921875 -107.06234375 135.17921875 -107.40234375 136.19921875 C-106.41234375 136.52921875 -105.42234375 136.85921875 -104.40234375 137.19921875 C-104.40234375 137.85921875 -104.40234375 138.51921875 -104.40234375 139.19921875 C-103.26796875 139.46734375 -102.13359375 139.73546875 -100.96484375 140.01171875 C-99.20140625 140.59953125 -99.20140625 140.59953125 -97.40234375 141.19921875 C-97.07234375 142.18921875 -96.74234375 143.17921875 -96.40234375 144.19921875 C-95.28859375 144.15796875 -94.17484375 144.11671875 -93.02734375 144.07421875 C-89.40234375 144.19921875 -89.40234375 144.19921875 -87.40234375 146.19921875 C-85.41877892 146.91330209 -83.41918938 147.58539617 -81.40234375 148.19921875 C-80.77734375 151.57421875 -80.77734375 151.57421875 -80.40234375 155.19921875 C-82.40234375 157.19921875 -82.40234375 157.19921875 -85.71484375 157.51171875 C-91.1181019 157.05381552 -94.2265163 154.44708455 -98.40234375 151.19921875 C-98.07234375 150.20921875 -97.74234375 149.21921875 -97.40234375 148.19921875 C-99.71234375 148.52921875 -102.02234375 148.85921875 -104.40234375 149.19921875 C-104.73234375 148.53921875 -105.06234375 147.87921875 -105.40234375 147.19921875 C-107.38234375 148.18921875 -109.36234375 149.17921875 -111.40234375 150.19921875 C-108.43234375 152.17921875 -108.43234375 152.17921875 -105.40234375 154.19921875 C-106.39234375 154.52921875 -107.38234375 154.85921875 -108.40234375 155.19921875 C-128.28429488 145.08847321 -143.78952071 123.37671744 -150.56640625 102.63671875 C-157.78816843 78.11390042 -156.51103058 52.02837915 -144.65234375 29.19921875 C-131.48236217 5.52841448 -110.34379411 -11.08639384 -84.40234375 -18.80078125 C-53.46574351 -26.11743022 -25.05708428 -18.40332006 0 0 Z " fill="#2C2B29" transform="translate(176.40234375,36.80078125)"/>
<path d="M0 0 C2.59765625 2.19921875 2.59765625 2.19921875 3.59765625 5.19921875 C4.21125 5.50601563 4.82484375 5.8128125 5.45703125 6.12890625 C8.08650026 7.44364075 9.15666325 8.94145588 10.84765625 11.32421875 C11.3684375 12.04867187 11.88921875 12.773125 12.42578125 13.51953125 C12.8125 14.07382812 13.19921875 14.628125 13.59765625 15.19921875 C9.75244281 13.68859918 8.11280153 11.40074013 5.59765625 8.19921875 C3.82475286 6.63240547 2.0099646 5.11194732 0.16015625 3.63671875 C-0.76667969 2.89292969 -1.69351563 2.14914063 -2.6484375 1.3828125 C-4.01162109 0.30193359 -4.01162109 0.30193359 -5.40234375 -0.80078125 C-6.15257812 -1.45820312 -6.9028125 -2.115625 -7.67578125 -2.79296875 C-11.40714955 -5.54070987 -15.40086282 -7.40886293 -19.58984375 -9.36328125 C-20.78963867 -9.94239258 -20.78963867 -9.94239258 -22.01367188 -10.53320312 C-29.73261284 -14.17257529 -37.44363925 -16.98922866 -46.02734375 -17.48828125 C-47.05085938 -17.55402344 -48.074375 -17.61976562 -49.12890625 -17.6875 C-50.25425781 -17.74357422 -50.25425781 -17.74357422 -51.40234375 -17.80078125 C-52.72234375 -15.16078125 -54.04234375 -12.52078125 -55.40234375 -9.80078125 C-52.76234375 -10.46078125 -50.12234375 -11.12078125 -47.40234375 -11.80078125 C-47.40234375 -11.14078125 -47.40234375 -10.48078125 -47.40234375 -9.80078125 C-46.8403125 -9.67832031 -46.27828125 -9.55585938 -45.69921875 -9.4296875 C-43.21247856 -8.74879435 -40.99719599 -7.807258 -38.65234375 -6.73828125 C-37.853125 -6.37605469 -37.05390625 -6.01382812 -36.23046875 -5.640625 C-35.6271875 -5.36347656 -35.02390625 -5.08632813 -34.40234375 -4.80078125 C-34.07234375 -5.46078125 -33.74234375 -6.12078125 -33.40234375 -6.80078125 C-31.75234375 -6.14078125 -30.10234375 -5.48078125 -28.40234375 -4.80078125 C-28.40234375 -4.14078125 -28.40234375 -3.48078125 -28.40234375 -2.80078125 C-27.41234375 -2.80078125 -26.42234375 -2.80078125 -25.40234375 -2.80078125 C-25.73234375 -1.15078125 -26.06234375 0.49921875 -26.40234375 2.19921875 C-28.02800981 1.72231671 -29.65285686 1.24262209 -31.27734375 0.76171875 C-32.18226563 0.49488281 -33.0871875 0.22804688 -34.01953125 -0.046875 C-36.40234375 -0.80078125 -36.40234375 -0.80078125 -38.40234375 -1.80078125 C-39.59859375 -1.45015625 -40.79484375 -1.09953125 -42.02734375 -0.73828125 C-46.79403524 0.54037504 -49.79658352 -0.05376875 -54.40234375 -1.80078125 C-55.90234375 -3.92578125 -55.90234375 -3.92578125 -56.40234375 -5.80078125 C-57.06234375 -5.80078125 -57.72234375 -5.80078125 -58.40234375 -5.80078125 C-58.73234375 -5.14078125 -59.06234375 -4.48078125 -59.40234375 -3.80078125 C-62.75324995 -2.54613962 -65.990741 -2.76527901 -69.52734375 -2.86328125 C-75.40225157 -2.92302608 -80.7175439 -2.23802185 -86.40234375 -0.80078125 C-87.6478078 -3.29170936 -87.17910155 -4.21158858 -86.40234375 -6.80078125 C-87.06234375 -6.80078125 -87.72234375 -6.80078125 -88.40234375 -6.80078125 C-88.07234375 -8.78078125 -87.74234375 -10.76078125 -87.40234375 -12.80078125 C-88.06234375 -12.80078125 -88.72234375 -12.80078125 -89.40234375 -12.80078125 C-89.40234375 -13.46078125 -89.40234375 -14.12078125 -89.40234375 -14.80078125 C-90.55734375 -14.20265625 -91.71234375 -13.60453125 -92.90234375 -12.98828125 C-95.63237332 -11.57451594 -98.34747962 -10.46468057 -101.24609375 -9.4609375 C-105.45450052 -7.90631753 -108.82219376 -5.72194445 -112.40234375 -3.05078125 C-113.00320801 -2.60976074 -113.60407227 -2.16874023 -114.22314453 -1.71435547 C-121.30489899 3.21991626 -121.30489899 3.21991626 -127.40234375 9.19921875 C-127.40234375 10.51921875 -127.40234375 11.83921875 -127.40234375 13.19921875 C-125.91734375 12.70421875 -125.91734375 12.70421875 -124.40234375 12.19921875 C-123.74234375 12.52921875 -123.08234375 12.85921875 -122.40234375 13.19921875 C-122.40234375 13.85921875 -122.40234375 14.51921875 -122.40234375 15.19921875 C-120.75234375 15.52921875 -119.10234375 15.85921875 -117.40234375 16.19921875 C-117.42296875 15.29171875 -117.44359375 14.38421875 -117.46484375 13.44921875 C-117.41282486 10.74423626 -117.11056747 8.76443852 -116.40234375 6.19921875 C-115.37173828 6.00005859 -115.37173828 6.00005859 -114.3203125 5.796875 C-112.96873047 5.53197266 -112.96873047 5.53197266 -111.58984375 5.26171875 C-110.24986328 5.00068359 -110.24986328 5.00068359 -108.8828125 4.734375 C-106.28837204 4.22180722 -106.28837204 4.22180722 -103.40234375 3.19921875 C-103.40234375 2.53921875 -103.40234375 1.87921875 -103.40234375 1.19921875 C-102.41234375 1.19921875 -101.42234375 1.19921875 -100.40234375 1.19921875 C-100.40234375 0.53921875 -100.40234375 -0.12078125 -100.40234375 -0.80078125 C-97.11538142 -1.60031263 -95.69211183 -1.89737061 -92.40234375 -0.80078125 C-91.90734375 2.16921875 -91.90734375 2.16921875 -91.40234375 5.19921875 C-94.35469656 7.16745396 -96.60040418 8.24621614 -100.08984375 9.07421875 C-103.59460354 9.84823097 -103.59460354 9.84823097 -104.83984375 12.82421875 C-105.02546875 13.60796875 -105.21109375 14.39171875 -105.40234375 15.19921875 C-106.39234375 14.70421875 -106.39234375 14.70421875 -107.40234375 14.19921875 C-107.73234375 14.52921875 -108.06234375 14.85921875 -108.40234375 15.19921875 C-108.97726563 15.43898437 -109.5521875 15.67875 -110.14453125 15.92578125 C-114.43644518 17.63759729 -114.43644518 17.63759729 -117.45703125 20.94921875 C-118.10592664 22.69904902 -118.75416069 24.44912449 -119.40234375 26.19921875 C-121.52734375 27.51171875 -121.52734375 27.51171875 -123.40234375 28.19921875 C-123.73234375 28.85921875 -124.06234375 29.51921875 -124.40234375 30.19921875 C-125.39234375 30.69421875 -125.39234375 30.69421875 -126.40234375 31.19921875 C-126.49162235 34.92747702 -126.49162235 34.92747702 -126.08984375 37.51171875 C-126.55492798 41.5114431 -128.76606589 44.22741462 -131.40234375 47.19921875 C-132.39234375 47.69421875 -132.39234375 47.69421875 -133.40234375 48.19921875 C-133.34046875 49.06546875 -133.27859375 49.93171875 -133.21484375 50.82421875 C-133.42895229 54.67817243 -134.41805457 56.91750973 -136.40234375 60.19921875 C-137.39234375 60.69421875 -137.39234375 60.69421875 -138.40234375 61.19921875 C-138.33273438 62.61074219 -138.33273438 62.61074219 -138.26171875 64.05078125 C-137.90322248 76.41890241 -137.90322248 76.41890241 -142.40234375 81.19921875 C-140.75234375 81.85921875 -139.10234375 82.51921875 -137.40234375 83.19921875 C-137.36496094 83.86308594 -137.32757813 84.52695313 -137.2890625 85.2109375 C-136.9001357 90.43475831 -136.31981576 93.75958744 -133.40234375 98.19921875 C-133.21484375 101.01171875 -133.21484375 101.01171875 -133.40234375 103.19921875 C-132.74234375 103.19921875 -132.08234375 103.19921875 -131.40234375 103.19921875 C-131.40234375 105.50921875 -131.40234375 107.81921875 -131.40234375 110.19921875 C-130.63921875 110.40546875 -129.87609375 110.61171875 -129.08984375 110.82421875 C-125.42863285 112.69739642 -124.75736035 114.34811893 -123.40234375 118.19921875 C-123.17698614 120.92310634 -123.26051787 123.45725182 -123.40234375 126.19921875 C-121.73171875 126.16828125 -121.73171875 126.16828125 -120.02734375 126.13671875 C-116.40234375 126.19921875 -116.40234375 126.19921875 -114.40234375 127.19921875 C-113.34881532 129.50887723 -112.34515279 131.84219615 -111.40234375 134.19921875 C-112.39234375 135.51921875 -113.38234375 136.83921875 -114.40234375 138.19921875 C-117.71484375 138.01171875 -117.71484375 138.01171875 -121.40234375 137.19921875 C-124.14118128 133.93028364 -124.40234375 132.53313325 -124.40234375 128.19921875 C-125.16546875 127.97234375 -125.92859375 127.74546875 -126.71484375 127.51171875 C-129.97109971 125.92145421 -130.71607574 124.33085935 -132.40234375 121.19921875 C-133.06234375 120.86921875 -133.72234375 120.53921875 -134.40234375 120.19921875 C-134.40234375 117.88921875 -134.40234375 115.57921875 -134.40234375 113.19921875 C-135.39234375 112.86921875 -136.38234375 112.53921875 -137.40234375 112.19921875 C-137.40234375 111.20921875 -137.40234375 110.21921875 -137.40234375 109.19921875 C-138.72234375 108.53921875 -140.04234375 107.87921875 -141.40234375 107.19921875 C-141.37914062 106.50054687 -141.3559375 105.801875 -141.33203125 105.08203125 C-141.31398438 104.17195313 -141.2959375 103.261875 -141.27734375 102.32421875 C-141.24253906 100.96683594 -141.24253906 100.96683594 -141.20703125 99.58203125 C-141.15909539 97.01114881 -141.15909539 97.01114881 -143.40234375 95.19921875 C-146.72805553 90.02588932 -146.50382441 87.00702589 -145.40234375 81.19921875 C-144.74234375 81.19921875 -144.08234375 81.19921875 -143.40234375 81.19921875 C-143.73234375 79.87921875 -144.06234375 78.55921875 -144.40234375 77.19921875 C-145.72234375 77.19921875 -147.04234375 77.19921875 -148.40234375 77.19921875 C-148.40234375 76.20921875 -148.40234375 75.21921875 -148.40234375 74.19921875 C-149.39234375 74.19921875 -150.38234375 74.19921875 -151.40234375 74.19921875 C-152.71981732 94.04915394 -146.37136591 114.4700063 -133.43359375 129.81640625 C-132.40234375 131.19921875 -132.40234375 131.19921875 -132.40234375 133.19921875 C-131.49742187 133.59367187 -131.49742187 133.59367187 -130.57421875 133.99609375 C-128.27878953 135.26766245 -127.23290402 136.38519299 -125.65234375 138.44921875 C-120.14097415 145.12087669 -112.58534598 149.51031452 -105.40234375 154.19921875 C-106.39234375 154.52921875 -107.38234375 154.85921875 -108.40234375 155.19921875 C-128.28429488 145.08847321 -143.78952071 123.37671744 -150.56640625 102.63671875 C-157.78816843 78.11390042 -156.51103058 52.02837915 -144.65234375 29.19921875 C-131.48236217 5.52841448 -110.34379411 -11.08639384 -84.40234375 -18.80078125 C-53.46574351 -26.11743022 -25.05708428 -18.40332006 0 0 Z " fill="#32302E" transform="translate(176.40234375,36.80078125)"/>
<path d="M0 0 C13.85360753 0.25698092 25.92102902 4.32103958 38 11 C38 11.99 38 12.98 38 14 C36.35 14.33 34.7 14.66 33 15 C33 15.66 33 16.32 33 17 C34.32 16.67 35.64 16.34 37 16 C37.103125 16.639375 37.20625 17.27875 37.3125 17.9375 C37.539375 18.618125 37.76625 19.29875 38 20 C38.99 20.33 39.98 20.66 41 21 C41.94921875 23.06640625 41.94921875 23.06640625 42.6875 25.5625 C42.93886719 26.38878906 43.19023437 27.21507813 43.44921875 28.06640625 C43.63097656 28.70449219 43.81273437 29.34257813 44 30 C44.9075 29.814375 45.815 29.62875 46.75 29.4375 C51.34317343 28.81918819 51.34317343 28.81918819 54 30 C54.495 31.485 54.495 31.485 55 33 C55.515625 33.45375 56.03125 33.9075 56.5625 34.375 C58 36 58 36 57.875 38.5 C57.91625 39.325 57.9575 40.15 58 41 C60.41055254 42.66299965 60.41055254 42.66299965 63 44 C63.33 44.99 63.66 45.98 64 47 C64.495 47.433125 64.99 47.86625 65.5 48.3125 C67.5877733 50.66124496 67.49078845 52.94473068 68 56 C69.43691955 57.85801239 69.43691955 57.85801239 71 59 C70.01 59.99 70.01 59.99 69 61 C69.350625 61.61875 69.70125 62.2375 70.0625 62.875 C71.41103435 67.37011449 70.65959866 71.40954987 70 76 C71.32 76 72.64 76 74 76 C74.495 80.95 74.495 80.95 75 86 C71 87 71 87 68.3125 86.4375 C66 85 66 85 65.125 82 C65 79 65 79 66 77 C65.34 76.34 64.68 75.68 64 75 C64.99 74.67 65.98 74.34 67 74 C66.34 73.67 65.68 73.34 65 73 C62.48210741 67.26480021 61.99535272 61.01394184 64 55 C62.35 55.33 60.7 55.66 59 56 C55.38356146 52.00288372 53.68252122 49.16774376 52 44 C50.515 43.505 50.515 43.505 49 43 C48.505 43.99 48.505 43.99 48 45 C45.67843403 45.40729228 43.3431213 45.74438677 41 46 C41 45.34 41 44.68 41 44 C40.34 44 39.68 44 39 44 C39 43.34 39 42.68 39 42 C38.38125 41.690625 37.7625 41.38125 37.125 41.0625 C35.75 40.375 34.375 39.6875 33 39 C33 38.34 33 37.68 33 37 C31.68 36.67 30.36 36.34 29 36 C29 35.34 29 34.68 29 34 C28.236875 33.773125 27.47375 33.54625 26.6875 33.3125 C23.56340143 32.20053271 20.73083622 30.93333827 17.75 29.5 C6.05752144 24.20794362 -5.39173184 24.7614156 -18 25 C-17.67 23.02 -17.34 21.04 -17 19 C-16.14535156 18.87882812 -15.29070312 18.75765625 -14.41015625 18.6328125 C-13.30542969 18.46523438 -12.20070313 18.29765625 -11.0625 18.125 C-9.96035156 17.96257813 -8.85820313 17.80015625 -7.72265625 17.6328125 C-6.37494141 17.31957031 -6.37494141 17.31957031 -5 17 C-4.67 16.34 -4.34 15.68 -4 15 C-3.29875 15.309375 -2.5975 15.61875 -1.875 15.9375 C3.66890749 17.98633538 8.19738062 18.25154536 14 17 C14.33 16.34 14.66 15.68 15 15 C15.495 15.99 15.495 15.99 16 17 C18.34386809 17.91031272 18.34386809 17.91031272 21.0625 18.625 C21.98160156 18.88539062 22.90070313 19.14578125 23.84765625 19.4140625 C24.55792969 19.60742188 25.26820313 19.80078125 26 20 C26.33 18.68 26.66 17.36 27 16 C26.01 16 25.02 16 24 16 C23.505 15.01 23.505 15.01 23 14 C20.0262656 12.90963072 19.11592499 12.96135834 16 14 C12.86242461 12.58787043 9.91764436 10.91958448 6.91015625 9.25 C3.8149107 7.92049856 3.03197248 7.84745755 0 9 C-0.99 9 -1.98 9 -3 9 C-2.30004181 5.85018814 -1.21744864 2.98423386 0 0 Z " fill="#252422" transform="translate(124,18)"/>
<path d="M0 0 C4.36986873 3.26513305 8.45819368 6.84776872 12 11 C12 11.99 12 12.98 12 14 C11.40832031 13.38511719 10.81664062 12.77023438 10.20703125 12.13671875 C9.41683594 11.32847656 8.62664062 10.52023438 7.8125 9.6875 C7.03519531 8.88699219 6.25789063 8.08648437 5.45703125 7.26171875 C1.30327147 3.35731503 1.30327147 3.35731503 -4 2 C-5.85776765 5.13498292 -6.20140476 7.37471432 -6 11 C-6.99 11 -7.98 11 -9 11 C-10.485 11.495 -10.485 11.495 -12 12 C-12.66 11.5875 -13.32 11.175 -14 10.75 C-24.61495763 4.55794138 -38.93894457 4.21145333 -50.75 6.83203125 C-53.58743352 7.76045619 -56.28507236 8.76224597 -59 10 C-59.74894531 10.309375 -60.49789062 10.61875 -61.26953125 10.9375 C-63.37746879 11.95116682 -63.37746879 11.95116682 -63.75 15.125 C-63.8325 16.07375 -63.915 17.0225 -64 18 C-63.34 18 -62.68 18 -62 18 C-61.67 17.34 -61.34 16.68 -61 16 C-60.49632243 17.45706726 -59.99717444 18.91570096 -59.5 20.375 C-59.2215625 21.18710938 -58.943125 21.99921875 -58.65625 22.8359375 C-58 25 -58 25 -58 27 C-57.01 27.495 -57.01 27.495 -56 28 C-55 29 -55 29 -54.9375 31.5625 C-54.958125 32.366875 -54.97875 33.17125 -55 34 C-57.475 34.495 -57.475 34.495 -60 35 C-60.33 34.01 -60.66 33.02 -61 32 C-63.89558441 30.5522078 -65.74188938 30 -69 30 C-69.33 29.34 -69.66 28.68 -70 28 C-74.42576775 28.50580203 -76.66763686 30.1179562 -80 33 C-80.99 33.495 -80.99 33.495 -82 34 C-85.64369482 42.03434708 -86.08622153 51.33523006 -87 60 C-87.33 60 -87.66 60 -88 60 C-88.63226477 44.16996347 -85.94904974 32.37088359 -76 20 C-72.01638881 15.8384923 -67.6101472 12.42912073 -63 9 C-64.65 8.01 -66.3 7.02 -68 6 C-66.35 3.03 -64.7 0.06 -63 -3 C-63.75925781 -2.57847656 -64.51851562 -2.15695313 -65.30078125 -1.72265625 C-66.79158203 -0.90087891 -66.79158203 -0.90087891 -68.3125 -0.0625 C-69.29863281 0.48277344 -70.28476563 1.02804688 -71.30078125 1.58984375 C-74 3 -74 3 -77 4 C-77 4.66 -77 5.32 -77 6 C-78.1119784 6.95745279 -79.2671624 7.86483238 -80.4375 8.75 C-91.0461979 17.81355895 -97.19085663 31.34013769 -99 45 C-100.14804913 61.37856941 -98.59579947 78.45263192 -87.66992188 91.60058594 C-85.28068449 94.32546186 -82.81322118 96.96277441 -80.29296875 99.56640625 C-78 102 -78 102 -77 104 C-88.90696428 98.62606037 -95.55911809 84.55624453 -100 73 C-103.64746248 60.66104864 -104.00183366 44.94694728 -99 33 C-98.62875 32.104021 -98.62875 32.104021 -98.25 31.18994141 C-90.85593483 13.81303246 -78.81675586 0.87322328 -61.31640625 -6.7109375 C-40.87087658 -14.65796317 -18.31674474 -12.01785903 0 0 Z " fill="#272727" transform="translate(153,56)"/>
<path d="M0 0 C0.99 0.33 1.98 0.66 3 1 C3 1.99 3 2.98 3 4 C4.32 4 5.64 4 7 4 C7.33 5.32 7.66 6.64 8 8 C7.34 8 6.68 8 6 8 C5.55878376 15.48494576 5.55878376 15.48494576 9 22 C9.66 22.66 10.32 23.32 11 24 C11.1953125 26.3828125 11.1953125 26.3828125 11.125 29.125 C11.09792969 30.49011719 11.09792969 30.49011719 11.0703125 31.8828125 C11.04710937 32.58148438 11.02390625 33.28015625 11 34 C11.9590625 34.1546875 11.9590625 34.1546875 12.9375 34.3125 C13.9584375 34.6528125 13.9584375 34.6528125 15 35 C15.33 35.99 15.66 36.98 16 38 C16.37125 38.61875 16.7425 39.2375 17.125 39.875 C18.24799846 42.60228197 17.77548466 44.20825522 17 47 C18.485 47.495 18.485 47.495 20 48 C20.28875 48.61875 20.5775 49.2375 20.875 49.875 C21.85117797 52.22386967 21.85117797 52.22386967 24.4375 53.1875 C28.28049929 55.90571901 28.8591684 59.57579942 30 64 C32.31 64 34.62 64 37 64 C37.66 62.68 38.32 61.36 39 60 C38.34 59.01 37.68 58.02 37 57 C37 56.01 37 55.02 37 54 C34.03 53.67 31.06 53.34 28 53 C27.87625 51.989375 27.7525 50.97875 27.625 49.9375 C27.01914665 46.12062388 26.12806088 42.68499888 25 39 C23.7934375 38.814375 23.7934375 38.814375 22.5625 38.625 C21.716875 38.41875 20.87125 38.2125 20 38 C18.18000093 34.36000186 19.45451227 30.02513086 19.84375 26.06640625 C20.18864454 22.95910704 20.18864454 22.95910704 19 20 C19.66 19.67 20.32 19.34 21 19 C21.33 18.01 21.66 17.02 22 16 C21.34 15.67 20.68 15.34 20 15 C20.66 15 21.32 15 22 15 C22.33 14.34 22.66 13.68 23 13 C23.66 13.33 24.32 13.66 25 14 C25.640625 16.08203125 25.640625 16.08203125 26.25 18.8125 C29.15127686 29.9969223 34.82726681 39.82726681 43 48 C42.34 48.78375 41.68 49.5675 41 50.375 C38.79798559 52.71512812 38.79798559 52.71512812 39 55 C39.99 55.33 40.98 55.66 42 56 C41.67 57.32 41.34 58.64 41 60 C42.32 60 43.64 60 45 60 C44.67 60.99 44.34 61.98 44 63 C44.99 63.33 45.98 63.66 47 64 C47 64.66 47 65.32 47 66 C48.134375 66.268125 49.26875 66.53625 50.4375 66.8125 C52.2009375 67.4003125 52.2009375 67.4003125 54 68 C54.33 68.99 54.66 69.98 55 71 C56.11375 70.95875 57.2275 70.9175 58.375 70.875 C62 71 62 71 64 73 C65.98356483 73.71408334 67.98315437 74.38617742 70 75 C70.625 78.375 70.625 78.375 71 82 C69 84 69 84 65.6875 84.3125 C60.28424185 83.85459677 57.17582745 81.2478658 53 78 C53.495 76.515 53.495 76.515 54 75 C50.535 75.495 50.535 75.495 47 76 C46.67 75.34 46.34 74.68 46 74 C45.01 74.66 44.02 75.32 43 76 C39.18578267 76.51415859 37.47726121 76.29787454 34.18359375 74.2421875 C29.34176162 70.06843178 24.90836556 66.05788484 21 61 C19.83597656 59.89398438 19.83597656 59.89398438 18.6484375 58.765625 C15.72408659 55.71187803 13.63781022 52.62378046 11.5 49 C11.11054199 48.34281982 10.72108398 47.68563965 10.31982422 47.00854492 C6.80386916 40.92120881 4.14858216 34.69852085 2 28 C1.68160156 27.02675781 1.36320312 26.05351562 1.03515625 25.05078125 C-1.28235972 17.05161322 -1.56872063 9.27925995 -1 1 C-0.67 0.67 -0.34 0.34 0 0 Z " fill="#1F1E1C" transform="translate(25,110)"/>
<path d="M0 0 C2.59765625 2.19921875 2.59765625 2.19921875 3.59765625 5.19921875 C4.21125 5.50601563 4.82484375 5.8128125 5.45703125 6.12890625 C8.08650026 7.44364075 9.15666325 8.94145588 10.84765625 11.32421875 C11.3684375 12.04867187 11.88921875 12.773125 12.42578125 13.51953125 C12.8125 14.07382812 13.19921875 14.628125 13.59765625 15.19921875 C9.75244281 13.68859918 8.11280153 11.40074013 5.59765625 8.19921875 C3.82475286 6.63240547 2.0099646 5.11194732 0.16015625 3.63671875 C-0.76667969 2.89292969 -1.69351563 2.14914063 -2.6484375 1.3828125 C-4.01162109 0.30193359 -4.01162109 0.30193359 -5.40234375 -0.80078125 C-6.15257812 -1.45820312 -6.9028125 -2.115625 -7.67578125 -2.79296875 C-11.40714955 -5.54070987 -15.40086282 -7.40886293 -19.58984375 -9.36328125 C-20.78963867 -9.94239258 -20.78963867 -9.94239258 -22.01367188 -10.53320312 C-29.73261284 -14.17257529 -37.44363925 -16.98922866 -46.02734375 -17.48828125 C-47.05085938 -17.55402344 -48.074375 -17.61976562 -49.12890625 -17.6875 C-50.25425781 -17.74357422 -50.25425781 -17.74357422 -51.40234375 -17.80078125 C-52.72234375 -15.16078125 -54.04234375 -12.52078125 -55.40234375 -9.80078125 C-52.76234375 -10.46078125 -50.12234375 -11.12078125 -47.40234375 -11.80078125 C-47.40234375 -11.14078125 -47.40234375 -10.48078125 -47.40234375 -9.80078125 C-46.8403125 -9.67832031 -46.27828125 -9.55585938 -45.69921875 -9.4296875 C-43.21247856 -8.74879435 -40.99719599 -7.807258 -38.65234375 -6.73828125 C-37.853125 -6.37605469 -37.05390625 -6.01382812 -36.23046875 -5.640625 C-35.6271875 -5.36347656 -35.02390625 -5.08632813 -34.40234375 -4.80078125 C-34.07234375 -5.46078125 -33.74234375 -6.12078125 -33.40234375 -6.80078125 C-31.75234375 -6.14078125 -30.10234375 -5.48078125 -28.40234375 -4.80078125 C-28.40234375 -4.14078125 -28.40234375 -3.48078125 -28.40234375 -2.80078125 C-27.41234375 -2.80078125 -26.42234375 -2.80078125 -25.40234375 -2.80078125 C-25.89734375 -0.32578125 -25.89734375 -0.32578125 -26.40234375 2.19921875 C-28.02800981 1.72231671 -29.65285686 1.24262209 -31.27734375 0.76171875 C-32.18226563 0.49488281 -33.0871875 0.22804688 -34.01953125 -0.046875 C-36.40234375 -0.80078125 -36.40234375 -0.80078125 -38.40234375 -1.80078125 C-39.59859375 -1.45015625 -40.79484375 -1.09953125 -42.02734375 -0.73828125 C-46.79403524 0.54037504 -49.79658352 -0.05376875 -54.40234375 -1.80078125 C-55.90234375 -3.92578125 -55.90234375 -3.92578125 -56.40234375 -5.80078125 C-57.06234375 -5.80078125 -57.72234375 -5.80078125 -58.40234375 -5.80078125 C-58.73234375 -5.14078125 -59.06234375 -4.48078125 -59.40234375 -3.80078125 C-62.75324995 -2.54613962 -65.990741 -2.76527901 -69.52734375 -2.86328125 C-75.40225157 -2.92302608 -80.7175439 -2.23802185 -86.40234375 -0.80078125 C-87.6478078 -3.29170936 -87.17910155 -4.21158858 -86.40234375 -6.80078125 C-87.06234375 -6.80078125 -87.72234375 -6.80078125 -88.40234375 -6.80078125 C-88.07234375 -8.78078125 -87.74234375 -10.76078125 -87.40234375 -12.80078125 C-88.06234375 -12.80078125 -88.72234375 -12.80078125 -89.40234375 -12.80078125 C-89.40234375 -13.46078125 -89.40234375 -14.12078125 -89.40234375 -14.80078125 C-90.55734375 -14.20265625 -91.71234375 -13.60453125 -92.90234375 -12.98828125 C-95.63237332 -11.57451594 -98.34747962 -10.46468057 -101.24609375 -9.4609375 C-105.45449215 -7.90632062 -108.82222702 -5.72193542 -112.40234375 -3.05078125 C-113.00900879 -2.60541016 -113.61567383 -2.16003906 -114.24072266 -1.70117188 C-135.9133822 14.36638958 -146.63482809 35.38110455 -152.40234375 61.19921875 C-152.73234375 61.19921875 -153.06234375 61.19921875 -153.40234375 61.19921875 C-154.25853066 40.65073289 -141.37396919 21.67177946 -128.375 6.89453125 C-93.56683641 -29.6931908 -38.8146641 -28.5076539 0 0 Z " fill="#2F2D2C" transform="translate(176.40234375,36.80078125)"/>
<path d="M0 0 C0.33 0.66 0.66 1.32 1 2 C1.66 2 2.32 2 3 2 C3.2493357 3.60115576 3.47378648 5.20620159 3.6875 6.8125 C3.81511719 7.70582031 3.94273438 8.59914063 4.07421875 9.51953125 C4 12 4 12 2.515625 13.3984375 C0.65712814 15.01403195 0.65712814 15.01403195 0.84765625 18.14453125 C0.91855469 19.35496094 0.98945312 20.56539062 1.0625 21.8125 C1.21413495 27.67774003 1.0309998 30.71706272 -3 35 C-1.35 35.66 0.3 36.32 2 37 C2.03738281 37.66386719 2.07476562 38.32773438 2.11328125 39.01171875 C2.50220805 44.23553956 3.08252799 47.56036869 6 52 C6.1875 54.8125 6.1875 54.8125 6 57 C6.66 57 7.32 57 8 57 C8 59.31 8 61.62 8 64 C8.763125 64.20625 9.52625 64.4125 10.3125 64.625 C13.9737109 66.49817767 14.6449834 68.14890018 16 72 C16.22535761 74.72388759 16.14182588 77.25803307 16 80 C17.11375 79.979375 18.2275 79.95875 19.375 79.9375 C23 80 23 80 25 81 C26.05352843 83.30965848 27.05719096 85.6429774 28 88 C27.01 89.32 26.02 90.64 25 92 C21.6875 91.8125 21.6875 91.8125 18 91 C15.26116247 87.73106489 15 86.3339145 15 82 C14.236875 81.773125 13.47375 81.54625 12.6875 81.3125 C9.43124404 79.72223546 8.68626801 78.1316406 7 75 C6.34 74.67 5.68 74.34 5 74 C5 71.69 5 69.38 5 67 C4.01 66.67 3.02 66.34 2 66 C2 65.01 2 64.02 2 63 C0.68 62.34 -0.64 61.68 -2 61 C-1.97679687 60.30132812 -1.95359375 59.60265625 -1.9296875 58.8828125 C-1.91164063 57.97273438 -1.89359375 57.06265625 -1.875 56.125 C-1.84019531 54.76761719 -1.84019531 54.76761719 -1.8046875 53.3828125 C-1.75675164 50.81193006 -1.75675164 50.81193006 -4 49 C-7.32571178 43.82667057 -7.10148066 40.80780714 -6 35 C-5.34 35 -4.68 35 -4 35 C-4.495 34.195625 -4.99 33.39125 -5.5 32.5625 C-7.34527349 28.17997546 -7.28061086 24.67684769 -7 20 C-6.34 20 -5.68 20 -5 20 C-5 19.34 -5 18.68 -5 18 C-3.68 18.33 -2.36 18.66 -1 19 C-1.30035156 18.50371094 -1.60070313 18.00742188 -1.91015625 17.49609375 C-4.73956036 12.44153116 -5.40913826 9.63655304 -4 4 C-3.34 4 -2.68 4 -2 4 C-2 3.01 -2 2.02 -2 1 C-1.34 0.67 -0.68 0.34 0 0 Z " fill="#422E18" transform="translate(37,83)"/>
<path d="M0 0 C4.41651802 1.25636797 7.42153409 2.80958118 10.9375 5.75 C12.23494141 6.83474609 12.23494141 6.83474609 13.55859375 7.94140625 C14.36425781 8.62074219 15.16992188 9.30007812 16 10 C16.60972656 10.46277344 17.21945313 10.92554688 17.84765625 11.40234375 C26.38873351 18.04540384 32.56321021 27.69781359 37.75 37.0625 C38.10956787 37.69341553 38.46913574 38.32433105 38.83959961 38.97436523 C39.796875 40.78515625 39.796875 40.78515625 41 44 C40.265625 46.24609375 40.265625 46.24609375 39 48 C37.84058962 51.47823115 38.29179116 53.45895578 39 57 C38.34 57 37.68 57 37 57 C37 57.99 37 58.98 37 60 C37.99 60.495 37.99 60.495 39 61 C41.87184723 63.87184723 41.70422318 66.50481657 42.046875 70.4453125 C41.98391535 73.87661332 40.86719461 76.16186419 39 79 C36.125 79.125 36.125 79.125 33 79 C32.01 78.01 32.01 78.01 31 77 C31.375 74.375 31.375 74.375 32 72 C32.99 72.99 32.99 72.99 34 74 C34.99 74 35.98 74 37 74 C37 70.7 37 67.4 37 64 C35.68 64 34.36 64 33 64 C32.67 64.66 32.34 65.32 32 66 C32.33 63.69 32.66 61.38 33 59 C32.01 58.505 32.01 58.505 31 58 C31.99 58 32.98 58 34 58 C33.01 54.7 32.02 51.4 31 48 C31.66 47.34 32.32 46.68 33 46 C32.01 45.34 31.02 44.68 30 44 C29.29947539 41.336937 29.22255182 38.75964263 29 36 C28.01 35.67 27.02 35.34 26 35 C25.5359375 34.0409375 25.5359375 34.0409375 25.0625 33.0625 C23.7657662 30.54531085 22.5778263 30.03113052 20 29 C20 26.69 20 24.38 20 22 C19.01 21.67 18.02 21.34 17 21 C17 20.01 17 19.02 17 18 C13.7 18 10.4 18 7 18 C6.08854167 15.98177083 5.17708333 13.96354167 4.265625 11.9453125 C2.78070314 9.6629326 1.49584592 8.99624102 -1 8 C-0.67 6.68 -0.34 5.36 0 4 C-1.32 4.33 -2.64 4.66 -4 5 C-4 4.34 -4 3.68 -4 3 C-2.68 2.34 -1.36 1.68 0 1 C0 0.67 0 0.34 0 0 Z " fill="#151312" transform="translate(161,30)"/>
<path d="M0 0 C0.99 0.33 1.98 0.66 3 1 C3 1.99 3 2.98 3 4 C4.32 4 5.64 4 7 4 C7.33 5.32 7.66 6.64 8 8 C7.34 8 6.68 8 6 8 C5.55878376 15.48494576 5.55878376 15.48494576 9 22 C9.66 22.66 10.32 23.32 11 24 C11.1953125 26.3828125 11.1953125 26.3828125 11.125 29.125 C11.09792969 30.49011719 11.09792969 30.49011719 11.0703125 31.8828125 C11.04710937 32.58148438 11.02390625 33.28015625 11 34 C11.9590625 34.1546875 11.9590625 34.1546875 12.9375 34.3125 C13.9584375 34.6528125 13.9584375 34.6528125 15 35 C15.33 35.99 15.66 36.98 16 38 C16.37125 38.61875 16.7425 39.2375 17.125 39.875 C18.24799846 42.60228197 17.77548466 44.20825522 17 47 C18.485 47.495 18.485 47.495 20 48 C20.28875 48.61875 20.5775 49.2375 20.875 49.875 C21.86304624 52.21779096 21.86304624 52.21779096 24.4375 53.3125 C27.94618582 55.62309798 28.67279155 58.08822773 30 62 C30 62.99 30 63.98 30 65 C32.64 65.33 35.28 65.66 38 66 C38.12375 66.804375 38.2475 67.60875 38.375 68.4375 C38.58125 69.283125 38.7875 70.12875 39 71 C39.99 71.495 39.99 71.495 41 72 C42.125 74.0625 42.125 74.0625 43 76 C39.24955158 76.36455021 37.42520255 76.26538301 34.18359375 74.2421875 C29.34176162 70.06843178 24.90836556 66.05788484 21 61 C19.83597656 59.89398438 19.83597656 59.89398438 18.6484375 58.765625 C15.72408659 55.71187803 13.63781022 52.62378046 11.5 49 C11.11054199 48.34281982 10.72108398 47.68563965 10.31982422 47.00854492 C6.80386916 40.92120881 4.14858216 34.69852085 2 28 C1.68160156 27.02675781 1.36320312 26.05351562 1.03515625 25.05078125 C-1.28235972 17.05161322 -1.56872063 9.27925995 -1 1 C-0.67 0.67 -0.34 0.34 0 0 Z " fill="#282625" transform="translate(25,110)"/>
<path d="M0 0 C0.99 2.97 1.98 5.94 3 9 C3.9075 8.814375 4.815 8.62875 5.75 8.4375 C10.34317343 7.81918819 10.34317343 7.81918819 13 9 C13.33 9.99 13.66 10.98 14 12 C14.515625 12.45375 15.03125 12.9075 15.5625 13.375 C17 15 17 15 16.875 17.5 C16.91625 18.325 16.9575 19.15 17 20 C19.41055254 21.66299965 19.41055254 21.66299965 22 23 C22.33 23.99 22.66 24.98 23 26 C23.495 26.433125 23.99 26.86625 24.5 27.3125 C26.5877733 29.66124496 26.49078845 31.94473068 27 35 C28.43691955 36.85801239 28.43691955 36.85801239 30 38 C29.34 38.66 28.68 39.32 28 40 C28.350625 40.61875 28.70125 41.2375 29.0625 41.875 C30.41103435 46.37011449 29.65959866 50.40954987 29 55 C30.32 55 31.64 55 33 55 C33.495 59.95 33.495 59.95 34 65 C30 66 30 66 27.3125 65.4375 C25 64 25 64 24.125 61 C24 58 24 58 25 56 C24.34 55.34 23.68 54.68 23 54 C23.99 53.67 24.98 53.34 26 53 C25.01 52.505 25.01 52.505 24 52 C21.48210741 46.26480021 20.99535272 40.01394184 23 34 C20.525 34.495 20.525 34.495 18 35 C13.21915584 29.71590909 13.21915584 29.71590909 12.0625 25.9375 C10.63458301 21.98972949 8.27283204 20.55280899 5 18 C4.38125 17.175 3.7625 16.35 3.125 15.5 C0.65952443 12.59944051 -1.88145025 11.11558656 -5.1953125 9.30859375 C-7.35441739 7.74300904 -8.07529041 6.48336956 -9 4 C-9 3.01 -9 2.02 -9 1 C-5.64919071 -1.10976881 -3.77897651 -1.0497157 0 0 Z " fill="#2D2011" transform="translate(165,39)"/>
<path d="M0 0 C-0.66 2.31 -1.32 4.62 -2 7 C-1.34 7 -0.68 7 0 7 C0 8.65 0 10.3 0 12 C0.77601562 11.855625 1.55203125 11.71125 2.3515625 11.5625 C10.64205134 10.13788139 18.59786717 9.77325579 27 10 C27.33 9.01 27.66 8.02 28 7 C29.32 7.66 30.64 8.32 32 9 C31.67 9.99 31.34 10.98 31 12 C30.34 12 29.68 12 29 12 C27.66101564 12.28732373 26.32799969 12.6030589 25 12.9375 C23.948125 13.19853516 23.948125 13.19853516 22.875 13.46484375 C20.9323034 13.95694872 20.9323034 13.95694872 19 15 C19 14.34 19 13.68 19 13 C13.35705329 12.69220291 9.32153442 13.31952294 4.078125 15.44140625 C1.65474082 16.09280463 0.38610252 15.59652563 -2 15 C-2.66 15.66 -3.32 16.32 -4 17 C-4.99 16.67 -5.98 16.34 -7 16 C-6.505 14.515 -6.505 14.515 -6 13 C-8.64 13 -11.28 13 -14 13 C-14 13.66 -14 14.32 -14 15 C-14.99 15 -15.98 15 -17 15 C-17 15.66 -17 16.32 -17 17 C-17.66 17 -18.32 17 -19 17 C-19.33 17.66 -19.66 18.32 -20 19 C-22.95820059 19.90591398 -25.96010437 20.40058396 -29 21 C-29.66 23.97 -30.32 26.94 -31 30 C-32.98 30 -34.96 30 -37 30 C-36.67 29.01 -36.34 28.02 -36 27 C-37.65 27 -39.3 27 -41 27 C-41.33 25.68 -41.66 24.36 -42 23 C-32.61202764 13.65180718 -14.24918275 -3.7182631 0 0 Z " fill="#313130" transform="translate(90,23)"/>
<path d="M0 0 C13.85360753 0.25698092 25.92102902 4.32103958 38 11 C38 11.99 38 12.98 38 14 C36.35 14.33 34.7 14.66 33 15 C33 15.66 33 16.32 33 17 C34.32 16.67 35.64 16.34 37 16 C36.34 17.98 35.68 19.96 35 22 C34.01 22 33.02 22 32 22 C32.66 23.98 33.32 25.96 34 28 C33.01 28.495 33.01 28.495 32 29 C31.01 27.68 30.02 26.36 29 25 C27.68 25.33 26.36 25.66 25 26 C25 25.34 25 24.68 25 24 C22.36 23.67 19.72 23.34 17 23 C17 22.34 17 21.68 17 21 C15.35 20.34 13.7 19.68 12 19 C12.66 18.67 13.32 18.34 14 18 C14.33 17.01 14.66 16.02 15 15 C15.33 15.66 15.66 16.32 16 17 C18.34386809 17.91031272 18.34386809 17.91031272 21.0625 18.625 C21.98160156 18.88539062 22.90070313 19.14578125 23.84765625 19.4140625 C24.55792969 19.60742188 25.26820313 19.80078125 26 20 C26.33 18.68 26.66 17.36 27 16 C26.01 16 25.02 16 24 16 C23.67 15.34 23.34 14.68 23 14 C20.0262656 12.90963072 19.11592499 12.96135834 16 14 C12.86242461 12.58787043 9.91764436 10.91958448 6.91015625 9.25 C3.8149107 7.92049856 3.03197248 7.84745755 0 9 C-0.99 9 -1.98 9 -3 9 C-2.30004181 5.85018814 -1.21744864 2.98423386 0 0 Z " fill="#282625" transform="translate(124,18)"/>
<path d="M0 0 C0.495 2.97 0.495 2.97 1 6 C-1.95235281 7.96823521 -4.19806043 9.04699739 -7.6875 9.875 C-11.19225979 10.64901222 -11.19225979 10.64901222 -12.4375 13.625 C-12.7159375 14.800625 -12.7159375 14.800625 -13 16 C-13.66 15.67 -14.32 15.34 -15 15 C-15.33 15.33 -15.66 15.66 -16 16 C-16.57492188 16.23976563 -17.14984375 16.47953125 -17.7421875 16.7265625 C-22.03410143 18.43837854 -22.03410143 18.43837854 -25.0546875 21.75 C-25.70358289 23.49983027 -26.35181694 25.24990574 -27 27 C-29.125 28.3125 -29.125 28.3125 -31 29 C-31.33 29.66 -31.66 30.32 -32 31 C-32.99 31.495 -32.99 31.495 -34 32 C-34 33.32 -34 34.64 -34 36 C-34.30404678 37.67225729 -34.63128912 39.34080104 -35 41 C-35.66 41 -36.32 41 -37 41 C-37.66 42.32 -38.32 43.64 -39 45 C-40.65 44.67 -42.3 44.34 -44 44 C-44.8034083 41.18807094 -45.06904352 39.31453161 -44.4375 36.4375 C-42.54344547 33.22584233 -40.17795904 31.86532379 -37 30 C-37.226875 29.443125 -37.45375 28.88625 -37.6875 28.3125 C-38.12976604 25.03973131 -36.90226251 23.60680418 -35 21 C-34.34 20.67 -33.68 20.34 -33 20 C-32.67 19.01 -32.34 18.02 -32 17 C-29.69 17 -27.38 17 -25 17 C-25.020625 16.0925 -25.04125 15.185 -25.0625 14.25 C-25.01048111 11.54501751 -24.70822372 9.56521977 -24 7 C-22.96939453 6.80083984 -22.96939453 6.80083984 -21.91796875 6.59765625 C-20.56638672 6.33275391 -20.56638672 6.33275391 -19.1875 6.0625 C-18.29417969 5.88847656 -17.40085937 5.71445312 -16.48046875 5.53515625 C-13.88602829 5.02258847 -13.88602829 5.02258847 -11 4 C-11 3.34 -11 2.68 -11 2 C-10.01 2 -9.02 2 -8 2 C-8 1.34 -8 0.68 -8 0 C-5.13822943 -1.43088528 -3.06624227 -0.59991697 0 0 Z " fill="#4A3924" transform="translate(84,36)"/>
<path d="M0 0 C0 0.33 0 0.66 0 1 C-1.01578125 1.09796875 -2.0315625 1.1959375 -3.078125 1.296875 C-11.80565599 2.21601039 -19.8091504 3.66105494 -28 7 C-28.7528125 7.30679688 -29.505625 7.61359375 -30.28125 7.9296875 C-32.3759173 8.95499383 -32.3759173 8.95499383 -32.75 12.125 C-32.8325 13.07375 -32.915 14.0225 -33 15 C-32.34 15 -31.68 15 -31 15 C-30.67 14.34 -30.34 13.68 -30 13 C-29.49632243 14.45706726 -28.99717444 15.91570096 -28.5 17.375 C-28.2215625 18.18710938 -27.943125 18.99921875 -27.65625 19.8359375 C-27 22 -27 22 -27 24 C-26.34 24.33 -25.68 24.66 -25 25 C-24 26 -24 26 -23.9375 28.5625 C-23.958125 29.366875 -23.97875 30.17125 -24 31 C-25.65 31.33 -27.3 31.66 -29 32 C-29.33 31.01 -29.66 30.02 -30 29 C-32.89558441 27.5522078 -34.74188938 27 -38 27 C-38.33 26.34 -38.66 25.68 -39 25 C-43.42576775 25.50580203 -45.66763686 27.1179562 -49 30 C-49.66 30.33 -50.32 30.66 -51 31 C-54.64369482 39.03434708 -55.08622153 48.33523006 -56 57 C-56.33 57 -56.66 57 -57 57 C-57.63425975 41.12001519 -54.91116335 29.42941195 -45 17 C-42.20853507 13.99126368 -39.29742103 11.43748209 -36 9 C-35.36578125 8.52175781 -34.7315625 8.04351562 -34.078125 7.55078125 C-23.41803435 0.21646268 -12.47760117 -0.57004269 0 0 Z " fill="#363431" transform="translate(122,59)"/>
<path d="M0 0 C0.33 0.66 0.66 1.32 1 2 C1.66 2 2.32 2 3 2 C3.2493357 3.60115576 3.47378648 5.20620159 3.6875 6.8125 C3.81511719 7.70582031 3.94273438 8.59914063 4.07421875 9.51953125 C4 12 4 12 2.515625 13.3984375 C0.65712814 15.01403195 0.65712814 15.01403195 0.84765625 18.14453125 C0.91855469 19.35496094 0.98945312 20.56539062 1.0625 21.8125 C1.21413495 27.67774003 1.0309998 30.71706272 -3 35 C-1.35 35.66 0.3 36.32 2 37 C2.07347656 37.99580078 2.07347656 37.99580078 2.1484375 39.01171875 C2.71125812 45.7112236 2.71125812 45.7112236 5 52 C2.15827618 52.23681032 0.4214648 52.22312842 -2.125 50.875 C-4.62470219 48.37529781 -5.80182194 46.34228618 -7 43 C-6.94978892 40.21328509 -6.52285234 37.75685779 -6 35 C-5.34 35 -4.68 35 -4 35 C-4.495 34.195625 -4.99 33.39125 -5.5 32.5625 C-7.34527349 28.17997546 -7.28061086 24.67684769 -7 20 C-6.34 20 -5.68 20 -5 20 C-5 19.34 -5 18.68 -5 18 C-3.68 18.33 -2.36 18.66 -1 19 C-1.30035156 18.50371094 -1.60070313 18.00742188 -1.91015625 17.49609375 C-4.73956036 12.44153116 -5.40913826 9.63655304 -4 4 C-3.34 4 -2.68 4 -2 4 C-2 3.01 -2 2.02 -2 1 C-1.34 0.67 -0.68 0.34 0 0 Z " fill="#48351E" transform="translate(37,83)"/>
<path d="M0 0 C-3.6236925 1.2078975 -4.29966438 0.69261378 -7.6875 -0.8125 C-22.66666115 -7.43008794 -39.83333904 -6.74441662 -55 -1 C-57.97182081 0.42414885 -60.8093577 1.9352213 -63.6328125 3.6328125 C-66.0262755 5.01517562 -68.41410813 6.03374147 -71 7 C-71 7.66 -71 8.32 -71 9 C-72.1119784 9.95745279 -73.2671624 10.86483238 -74.4375 11.75 C-85.0461979 20.81355895 -91.19085663 34.34013769 -93 48 C-94.14804913 64.37856941 -92.59579947 81.45263192 -81.66992188 94.60058594 C-79.28068449 97.32546186 -76.81322118 99.96277441 -74.29296875 102.56640625 C-72 105 -72 105 -71 107 C-82.90696428 101.62606037 -89.55911809 87.55624453 -94 76 C-97.64746248 63.66104864 -98.00183366 47.94694728 -93 36 C-92.62875 35.104021 -92.62875 35.104021 -92.25 34.18994141 C-84.85593483 16.81303246 -72.81675586 3.87322328 -55.31640625 -3.7109375 C-37.31682383 -10.70724162 -16.79384875 -9.99727937 0 0 Z " fill="#595959" transform="translate(147,53)"/>
<path d="M0 0 C0.66 0 1.32 0 2 0 C2 0.66 2 1.32 2 2 C2.66 2 3.32 2 4 2 C4.33 1.34 4.66 0.68 5 0 C7.64540597 2.64540597 6.18562153 10.37404185 6.1875 13.9375 C6.19974609 15.15630859 6.21199219 16.37511719 6.22460938 17.63085938 C6.22750977 19.37399414 6.22750977 19.37399414 6.23046875 21.15234375 C6.23457764 22.22476318 6.23868652 23.29718262 6.24291992 24.40209961 C6 27 6 27 4 29 C3.19335496 31.50059961 3 33.33946789 3 36 C2.68330179 38.33564933 2.35179197 40.6693782 2 43 C1.34 43 0.68 43 0 43 C-3.1865285 33.65284974 -3.1865285 33.65284974 -2.5 31.25 C-1.72519569 27.76338063 -2.14248169 24.45206087 -3 21 C-4.39493544 19.01157259 -4.39493544 19.01157259 -6 18 C-5.50886719 17.17242187 -5.50886719 17.17242187 -5.0078125 16.328125 C-3.83212285 13.61219077 -3.79751362 11.69448241 -3.875 8.75 C-3.89304688 7.85796875 -3.91109375 6.9659375 -3.9296875 6.046875 C-3.95289063 5.37140625 -3.97609375 4.6959375 -4 4 C-3.34 4 -2.68 4 -2 4 C-2 3.34 -2 2.68 -2 2 C-1.34 2 -0.68 2 0 2 C0 1.34 0 0.68 0 0 Z " fill="#272624" transform="translate(43,97)"/>
<path d="M0 0 C2.39047894 2.39047894 4 4.54145481 4 8 C4.99 8.33 5.98 8.66 7 9 C7.28875 9.61875 7.5775 10.2375 7.875 10.875 C8.86304624 13.21779096 8.86304624 13.21779096 11.4375 14.3125 C14.94618582 16.62309798 15.67279155 19.08822773 17 23 C17 23.99 17 24.98 17 26 C19.64 26.33 22.28 26.66 25 27 C25.12375 27.804375 25.2475 28.60875 25.375 29.4375 C25.58125 30.283125 25.7875 31.12875 26 32 C26.66 32.33 27.32 32.66 28 33 C29.125 35.0625 29.125 35.0625 30 37 C26.24955158 37.36455021 24.42520255 37.26538301 21.18359375 35.2421875 C16.34176162 31.06843178 11.90836556 27.05788484 8 22 C7.21625 21.29875 6.4325 20.5975 5.625 19.875 C1.61145479 15.47921239 -1.44416938 10.37359419 -4 5 C-3.67 4.34 -3.34 3.68 -3 3 C-3.33 2.34 -3.66 1.68 -4 1 C-2 0 -2 0 0 0 Z " fill="#1B1917" transform="translate(38,149)"/>
<path d="M0 0 C1.32 0.33 2.64 0.66 4 1 C4 1.66 4 2.32 4 3 C5.134375 3.268125 6.26875 3.53625 7.4375 3.8125 C8.613125 4.204375 9.78875 4.59625 11 5 C11.33 5.99 11.66 6.98 12 8 C13.11375 7.95875 14.2275 7.9175 15.375 7.875 C19 8 19 8 21 10 C22.98356483 10.71408334 24.98315437 11.38617742 27 12 C27.625 15.375 27.625 15.375 28 19 C26 21 26 21 22.6875 21.3125 C17.28424185 20.85459677 14.17582745 18.2478658 10 15 C10.33 14.01 10.66 13.02 11 12 C8.69 12.33 6.38 12.66 4 13 C3.67 12.34 3.34 11.68 3 11 C2.01 11.33 1.02 11.66 0 12 C-1.5 10.875 -1.5 10.875 -3 9 C-3.1875 5.8125 -3.1875 5.8125 -3 3 C-2.01 2.67 -1.02 2.34 0 2 C0 1.34 0 0.68 0 0 Z " fill="#241A10" transform="translate(68,173)"/>
<path d="M0 0 C5.63434717 1.60280413 9.08920527 4.19575216 13.515625 7.91796875 C15.04684273 9.20120625 16.61462608 10.44377722 18.234375 11.61328125 C20.08660493 12.98763586 21.61486243 14.15473111 23 16 C22.9375 19.875 22.9375 19.875 22 23 C20.35 22.34 18.7 21.68 17 21 C17 20.01 17 19.02 17 18 C13.7 18 10.4 18 7 18 C6.08854167 15.98177083 5.17708333 13.96354167 4.265625 11.9453125 C2.78070314 9.6629326 1.49584592 8.99624102 -1 8 C-0.67 6.68 -0.34 5.36 0 4 C-1.32 4.33 -2.64 4.66 -4 5 C-4 4.34 -4 3.68 -4 3 C-2.68 2.34 -1.36 1.68 0 1 C0 0.67 0 0.34 0 0 Z " fill="#1D1C1A" transform="translate(161,30)"/>
<path d="M0 0 C1.04736328 0.00902344 2.09472656 0.01804687 3.17382812 0.02734375 C5.72030514 0.05059925 8.26627031 0.08327431 10.8125 0.125 C10.8125 0.455 10.8125 0.785 10.8125 1.125 C9.61496094 1.16238281 8.41742188 1.19976563 7.18359375 1.23828125 C-17.17674477 2.15616331 -38.76617749 7.78605749 -58.1875 23.125 C-58.90808594 23.69089844 -59.62867188 24.25679687 -60.37109375 24.83984375 C-78.16043446 39.57760165 -86.30466246 60.26712137 -91.1875 82.125 C-91.5175 82.125 -91.8475 82.125 -92.1875 82.125 C-93.04368691 61.57651414 -80.15912544 42.59756071 -67.16015625 27.8203125 C-49.8481365 9.62322016 -24.87260241 -0.41480928 0 0 Z " fill="#8B8B8B" transform="translate(115.1875,15.875)"/>
<path d="M0 0 C0.5259375 0.7734375 0.5259375 0.7734375 1.0625 1.5625 C2.0215625 2.2740625 2.0215625 2.2740625 3 3 C4.5778125 2.690625 4.5778125 2.690625 6.1875 2.375 C11.4565358 1.85673418 13.88692616 3.96884341 18 7 C18.99 7.66 19.98 8.32 21 9 C23.95350741 11.03053634 25.96313297 13.04654281 28 16 C27.4375 17.9375 27.4375 17.9375 26 20 C22.375 20.75 22.375 20.75 19 21 C19 20.34 19 19.68 19 19 C18.34 19 17.68 19 17 19 C17 18.34 17 17.68 17 17 C16.071875 16.5359375 16.071875 16.5359375 15.125 16.0625 C13.75 15.375 12.375 14.6875 11 14 C11 13.34 11 12.68 11 12 C9.68 11.67 8.36 11.34 7 11 C7 10.34 7 9.68 7 9 C6.0925 8.731875 5.185 8.46375 4.25 8.1875 C1.28528037 7.10423706 -0.6169754 6.01640543 -3 4 C-2.34 3.34 -1.68 2.68 -1 2 C-0.67 1.34 -0.34 0.68 0 0 Z " fill="#1E1C1A" transform="translate(146,43)"/>
<path d="M0 0 C3.4375 0.75 3.4375 0.75 5.4375 2.75 C5.4375 3.41 5.4375 4.07 5.4375 4.75 C3.7875 5.08 2.1375 5.41 0.4375 5.75 C0.4375 6.41 0.4375 7.07 0.4375 7.75 C1.7575 7.42 3.0775 7.09 4.4375 6.75 C3.7775 8.73 3.1175 10.71 2.4375 12.75 C1.4475 12.75 0.4575 12.75 -0.5625 12.75 C0.0975 14.73 0.7575 16.71 1.4375 18.75 C0.7775 19.08 0.1175 19.41 -0.5625 19.75 C-1.5525 18.43 -2.5425 17.11 -3.5625 15.75 C-4.8825 16.08 -6.2025 16.41 -7.5625 16.75 C-7.5625 16.09 -7.5625 15.43 -7.5625 14.75 C-10.2025 14.42 -12.8425 14.09 -15.5625 13.75 C-15.5625 13.09 -15.5625 12.43 -15.5625 11.75 C-18.0375 10.76 -18.0375 10.76 -20.5625 9.75 C-19.9025 9.42 -19.2425 9.09 -18.5625 8.75 C-18.2325 7.76 -17.9025 6.77 -17.5625 5.75 C-17.2325 6.41 -16.9025 7.07 -16.5625 7.75 C-14.21863191 8.66031272 -14.21863191 8.66031272 -11.5 9.375 C-10.58089844 9.63539062 -9.66179687 9.89578125 -8.71484375 10.1640625 C-8.00457031 10.35742188 -7.29429687 10.55078125 -6.5625 10.75 C-6.59730469 10.12351562 -6.63210937 9.49703125 -6.66796875 8.8515625 C-6.69503906 8.03429688 -6.72210938 7.21703125 -6.75 6.375 C-6.78480469 5.56289063 -6.81960937 4.75078125 -6.85546875 3.9140625 C-6.75878906 3.19992188 -6.66210938 2.48578125 -6.5625 1.75 C-3.5625 -0.25 -3.5625 -0.25 0 0 Z " fill="#212121" transform="translate(156.5625,27.25)"/>
<path d="M0 0 C0.99 2.97 1.98 5.94 3 9 C4.98 8.67 6.96 8.34 9 8 C9.33 9.65 9.66 11.3 10 13 C10.9590625 13.1546875 10.9590625 13.1546875 11.9375 13.3125 C12.618125 13.539375 13.29875 13.76625 14 14 C15 17 15 17 14 20 C10.64404172 19.40072174 8.62198774 18.15377564 6 16 C5.67 16.66 5.34 17.32 5 18 C4.505 17.278125 4.01 16.55625 3.5 15.8125 C0.82545182 12.8036333 -1.70005444 11.21449862 -5.1953125 9.30859375 C-7.35441739 7.74300904 -8.07529041 6.48336956 -9 4 C-9 3.01 -9 2.02 -9 1 C-5.64919071 -1.10976881 -3.77897651 -1.0497157 0 0 Z " fill="#3E2B15" transform="translate(165,39)"/>
<path d="M0 0 C0.33 0.66 0.66 1.32 1 2 C1.99 2.33 2.98 2.66 4 3 C7.22236782 9.32965107 7.17659871 14.08216665 6 21 C7.32 21 8.64 21 10 21 C10.33 24.3 10.66 27.6 11 31 C7 32 7 32 4.3125 31.4375 C2 30 2 30 1.125 27 C1 24 1 24 2 22 C1.34 21.34 0.68 20.68 0 20 C0.99 19.67 1.98 19.34 3 19 C2.34 18.67 1.68 18.34 1 18 C-1.51789259 12.26480021 -2.00464728 6.01394184 0 0 Z " fill="#1D150F" transform="translate(188,73)"/>
<path d="M0 0 C0.66 0 1.32 0 2 0 C2 0.66 2 1.32 2 2 C2.66 2 3.32 2 4 2 C4.7109375 3.7421875 4.7109375 3.7421875 5 6 C3.6015625 8.0703125 3.6015625 8.0703125 1.625 10.125 C-1.01012093 12.83618016 -1.01012093 12.83618016 -3 16 C-2.71758117 18.3400417 -2.38749213 20.67504723 -2 23 C-2.99 23.33 -3.98 23.66 -5 24 C-6.20882096 26.00016466 -6.20882096 26.00016466 -7 28 C-8.65 27.67 -10.3 27.34 -12 27 C-12.8034083 24.18807094 -13.06904352 22.31453161 -12.4375 19.4375 C-10.54344547 16.22584233 -8.17795904 14.86532379 -5 13 C-5.3403125 12.1646875 -5.3403125 12.1646875 -5.6875 11.3125 C-6.12976604 8.03973131 -4.90226251 6.60680418 -3 4 C-2.34 3.67 -1.68 3.34 -1 3 C-0.67 2.01 -0.34 1.02 0 0 Z " fill="#513B20" transform="translate(52,53)"/>
<path d="M0 0 C1.6328125 0.8203125 1.6328125 0.8203125 3.8828125 2.2578125 C4.2128125 1.5978125 4.5428125 0.9378125 4.8828125 0.2578125 C6.5328125 0.9178125 8.1828125 1.5778125 9.8828125 2.2578125 C9.8828125 2.9178125 9.8828125 3.5778125 9.8828125 4.2578125 C10.8728125 4.2578125 11.8628125 4.2578125 12.8828125 4.2578125 C12.5528125 5.9078125 12.2228125 7.5578125 11.8828125 9.2578125 C10.25714644 8.78091046 8.63229939 8.30121584 7.0078125 7.8203125 C6.10289062 7.55347656 5.19796875 7.28664063 4.265625 7.01171875 C1.8828125 6.2578125 1.8828125 6.2578125 -0.1171875 5.2578125 C-1.3134375 5.6084375 -2.5096875 5.9590625 -3.7421875 6.3203125 C-8.5277032 7.59528566 -11.5105818 7.08456993 -16.1171875 5.2578125 C-17.6171875 2.6328125 -17.6171875 2.6328125 -18.1171875 0.2578125 C-12.80671555 -3.03264739 -5.72134108 -2.00563617 0 0 Z " fill="#4C361D" transform="translate(138.1171875,29.7421875)"/>
<path d="M0 0 C0 1.65 0 3.3 0 5 C0.77601562 4.855625 1.55203125 4.71125 2.3515625 4.5625 C10.64205134 3.13788139 18.59786717 2.77325579 27 3 C27.33 2.01 27.66 1.02 28 0 C29.32 0.66 30.64 1.32 32 2 C31.67 2.99 31.34 3.98 31 5 C30.34 5 29.68 5 29 5 C27.66101564 5.28732373 26.32799969 5.6030589 25 5.9375 C23.948125 6.19853516 23.948125 6.19853516 22.875 6.46484375 C20.9323034 6.95694872 20.9323034 6.95694872 19 8 C19 7.34 19 6.68 19 6 C13.35705329 5.69220291 9.32153442 6.31952294 4.078125 8.44140625 C1.65474082 9.09280463 0.38610252 8.59652563 -2 8 C-2.66 8.66 -3.32 9.32 -4 10 C-4.99 9.67 -5.98 9.34 -7 9 C-6.67 8.01 -6.34 7.02 -6 6 C-8.64 6 -11.28 6 -14 6 C-14 6.66 -14 7.32 -14 8 C-14.99 8 -15.98 8 -17 8 C-17.33 8.66 -17.66 9.32 -18 10 C-18.66 9.34 -19.32 8.68 -20 8 C-19.34 8 -18.68 8 -18 8 C-18 7.01 -18 6.02 -18 5 C-17.34 5 -16.68 5 -16 5 C-15.34 4.34 -14.68 3.68 -14 3 C-10.86650268 1.95550089 -10.01031744 2.06576355 -7 3 C-6.67 2.34 -6.34 1.68 -6 1 C-3.911361 0.32624548 -2.19636905 0 0 0 Z " fill="#413629" transform="translate(90,30)"/>
<path d="M0 0 C1.3303125 0.10054687 1.3303125 0.10054687 2.6875 0.203125 C5 0.75 5 0.75 7 3.75 C4.77375638 6.31018016 3.3248495 7.16729442 0 7.75 C-2.04168112 7.76936554 -4.08401052 7.74405754 -6.125 7.6875 C-11.99990782 7.62775517 -17.31520015 8.3127594 -23 9.75 C-24.24546405 7.25907189 -23.7767578 6.33919267 -23 3.75 C-21.89591797 3.55083984 -21.89591797 3.55083984 -20.76953125 3.34765625 C-19.30580078 3.08275391 -19.30580078 3.08275391 -17.8125 2.8125 C-16.84957031 2.63847656 -15.88664062 2.46445312 -14.89453125 2.28515625 C-13.46173828 2.02025391 -13.46173828 2.02025391 -12 1.75 C-10.64455078 1.50056641 -10.64455078 1.50056641 -9.26171875 1.24609375 C-2.56205575 -0.22343509 -2.56205575 -0.22343509 0 0 Z " fill="#4C381F" transform="translate(113,26.25)"/>
<path d="M0 0 C0.33 0 0.66 0 1 0 C1.03738281 1.19753906 1.07476563 2.39507812 1.11328125 3.62890625 C1.95221235 25.89390767 6.26051255 48.92385319 20.93359375 66.546875 C22 68 22 68 22 70 C22.90492187 70.39445312 22.90492187 70.39445312 23.828125 70.796875 C26.12355422 72.0684437 27.16943973 73.18597424 28.75 75.25 C34.2613696 81.92165794 41.81699777 86.31109577 49 91 C48.01 91.33 47.02 91.66 46 92 C26.11804887 81.88925446 10.61282304 60.17749869 3.8359375 39.4375 C0.94622974 29.62496716 -0.14870628 20.75473492 -0.0625 10.5625 C-0.05798828 9.54478516 -0.05347656 8.52707031 -0.04882812 7.47851562 C-0.03712437 4.98561491 -0.02072848 2.49283926 0 0 Z " fill="#646464" transform="translate(22,100)"/>
<path d="M0 0 C0.66 0 1.32 0 2 0 C2.061875 0.8971875 2.061875 0.8971875 2.125 1.8125 C2.85722521 4.27106063 2.85722521 4.27106063 5.625 5.625 C9.07232494 7.02946572 12.40187506 8.06448752 16 9 C16 9.99 16 10.98 16 12 C14 14 14 14 12.07421875 14.00390625 C2.73058276 12.27586882 -6.52979962 8.09534051 -13 1 C-8.2963207 -1.49882963 -5.08091445 -0.83293679 0 0 Z " fill="#15110E" transform="translate(77,185)"/>
<path d="M0 0 C0.33 0.66 0.66 1.32 1 2 C1.66 2 2.32 2 3 2 C3.2493357 3.60115576 3.47378648 5.20620159 3.6875 6.8125 C3.81511719 7.70582031 3.94273438 8.59914063 4.07421875 9.51953125 C4.04972656 10.33808594 4.02523437 11.15664062 4 12 C3.51402344 12.45632812 3.02804688 12.91265625 2.52734375 13.3828125 C0.65190541 15.02968115 0.65190541 15.02968115 0.7421875 18.28515625 C0.78601562 19.53167969 0.82984375 20.77820313 0.875 22.0625 C1.0845481 28.83090379 1.0845481 28.83090379 0 31 C-1.32 30.67 -2.64 30.34 -4 30 C-4 26.7 -4 23.4 -4 20 C-3.01 19.67 -2.02 19.34 -1 19 C-1.45052734 18.25556641 -1.45052734 18.25556641 -1.91015625 17.49609375 C-4.73956036 12.44153116 -5.40913826 9.63655304 -4 4 C-3.34 4 -2.68 4 -2 4 C-2 3.01 -2 2.02 -2 1 C-1.34 0.67 -0.68 0.34 0 0 Z " fill="#553E22" transform="translate(37,83)"/>
<path d="M0 0 C0.66 0.33 1.32 0.66 2 1 C2.64158599 3.56634394 3.02199146 6.13823206 3.4375 8.75 C3.623125 9.4925 3.80875 10.235 4 11 C4.66 11.33 5.32 11.66 6 12 C7 13 7 13 7.0625 15.5625 C7.041875 16.366875 7.02125 17.17125 7 18 C5.35 18.33 3.7 18.66 2 19 C1.67 18.01 1.34 17.02 1 16 C-0.32407669 15.31513275 -1.65909241 14.65129797 -3 14 C-5.25 12.1875 -5.25 12.1875 -7 10 C-7.25 7.25 -7.25 7.25 -7 5 C-7.99 4.67 -8.98 4.34 -10 4 C-9.34 4 -8.68 4 -8 4 C-8 3.34 -8 2.68 -8 2 C-4.94736336 1.01879536 -3.05263664 1.01879536 0 2 C0 1.34 0 0.68 0 0 Z " fill="#41372C" transform="translate(91,72)"/>
<path d="M0 0 C2.25245881 2.68841859 3.88213958 4.64641875 5 8 C6.32 7.67 7.64 7.34 9 7 C9 7.66 9 8.32 9 9 C10.670625 8.9690625 10.670625 8.9690625 12.375 8.9375 C16 9 16 9 18 10 C19.05352843 12.30965848 20.05719096 14.6429774 21 17 C20.01 18.32 19.02 19.64 18 21 C14.6875 20.8125 14.6875 20.8125 11 20 C8.26116247 16.73106489 8 15.3339145 8 11 C6.88625 10.690625 6.88625 10.690625 5.75 10.375 C2.1486353 8.57431765 0.86759004 6.51968892 -1 3 C-0.67 2.01 -0.34 1.02 0 0 Z " fill="#3D2913" transform="translate(44,154)"/>
<path d="M0 0 C0.99 0 1.98 0 3 0 C4.32229189 2.64458379 4.09677194 4.67761301 4.0625 7.625 C4.05347656 8.62789062 4.04445312 9.63078125 4.03515625 10.6640625 C4.02355469 11.43492188 4.01195312 12.20578125 4 13 C4.99 13.33 5.98 13.66 7 14 C9.87184723 16.87184723 9.70422318 19.50481657 10.046875 23.4453125 C9.98391535 26.87661332 8.86719461 29.16186419 7 32 C4.125 32.125 4.125 32.125 1 32 C0.34 31.34 -0.32 30.68 -1 30 C-0.625 27.375 -0.625 27.375 0 25 C0.66 25.66 1.32 26.32 2 27 C2.99 27 3.98 27 5 27 C5 23.7 5 20.4 5 17 C3.68 17 2.36 17 1 17 C0.67 17.66 0.34 18.32 0 19 C0.33 16.69 0.66 14.38 1 12 C0.34 11.67 -0.32 11.34 -1 11 C-0.01 11 0.98 11 2 11 C1.01 7.7 0.02 4.4 -1 1 C-0.67 0.67 -0.34 0.34 0 0 Z " fill="#1F130A" transform="translate(193,77)"/>
<path d="M0 0 C0.99 0.33 1.98 0.66 3 1 C2.505 1.7425 2.01 2.485 1.5 3.25 C-0.31923475 6.06318188 -0.31923475 6.06318188 0 10 C-3.21428571 13 -3.21428571 13 -6 13 C-6.185625 14.27875 -6.37125 15.5575 -6.5625 16.875 C-6.66691406 17.59429687 -6.77132812 18.31359375 -6.87890625 19.0546875 C-7.1684297 21.08140667 -7.1684297 21.08140667 -6 23 C-3.52733235 22.65555119 -3.52733235 22.65555119 -1 22 C-0.67 21.34 -0.34 20.68 0 20 C0.66 20.33 1.32 20.66 2 21 C-1.75 26.875 -1.75 26.875 -4 28 C-4 29.98 -4 31.96 -4 34 C-4.99 34.495 -4.99 34.495 -6 35 C-6.33 32.69 -6.66 30.38 -7 28 C-7.66 28 -8.32 28 -9 28 C-10.33500455 22.65998179 -9.512545 19.16044765 -8 14 C-8.99 14.33 -9.98 14.66 -11 15 C-11 14.34 -11 13.68 -11 13 C-11.66 13 -12.32 13 -13 13 C-13.33 12.01 -13.66 11.02 -14 10 C-10.00999834 8.57499941 -6.19469571 7.59924224 -2 7 C-2.226875 6.401875 -2.45375 5.80375 -2.6875 5.1875 C-2.790625 4.465625 -2.89375 3.74375 -3 3 C-1.5625 1.25 -1.5625 1.25 0 0 Z " fill="#39332E" transform="translate(47,57)"/>
<path d="M0 0 C1.12399381 3.37198144 0.96157944 6.50611085 0.90234375 10.02734375 C1.03136685 12.63361028 1.84070816 14.68141632 3 17 C3.99 17 4.98 17 6 17 C6.19573608 18.43640171 6.38127816 19.87419504 6.5625 21.3125 C6.71912109 22.51326172 6.71912109 22.51326172 6.87890625 23.73828125 C7 26 7 26 6 29 C3.1875 29.6875 3.1875 29.6875 0 30 C-1.6875 28.5625 -1.6875 28.5625 -3 27 C-3.99 27 -4.98 27 -6 27 C-6.33 24.69 -6.66 22.38 -7 20 C-4.37098712 21.52206009 -2.15634036 22.84365964 0 25 C0.99 25 1.98 25 3 25 C3.33 23.35 3.66 21.7 4 20 C3.34 19.67 2.68 19.34 2 19 C-2 12.76470588 -2 12.76470588 -2 8 C-2.99 8.33 -3.98 8.66 -5 9 C-5.3125 6.1875 -5.3125 6.1875 -5 3 C-2.5 1.125 -2.5 1.125 0 0 Z " fill="#33302F" transform="translate(94,65)"/>
<path d="M0 0 C0.33 0 0.66 0 1 0 C0.97905273 0.79994385 0.95810547 1.5998877 0.93652344 2.42407227 C0.42603039 24.87122681 0.68902499 44.22735923 16.8125 61.5625 C17.77521622 62.56584779 18.73991737 63.56729661 19.70703125 64.56640625 C22 67 22 67 23 69 C11.09303572 63.62606037 4.44088191 49.55624453 0 38 C-1.88448556 31.66087195 -2.31078493 25.58503384 -2.25 19 C-2.25773437 18.16210938 -2.26546875 17.32421875 -2.2734375 16.4609375 C-2.25560014 10.69947123 -1.41857389 5.58422738 0 0 Z " fill="#3D3D3D" transform="translate(53,91)"/>
<path d="M0 0 C15.53084015 3.13871769 28.57688644 8.70765618 41.546875 17.83984375 C42.14443604 18.26023926 42.74199707 18.68063477 43.35766602 19.11376953 C46.15546419 21.16782829 47.4862008 22.15782116 48.609375 25.52734375 C49.22296875 25.83414063 49.8365625 26.1409375 50.46875 26.45703125 C53.09821901 27.77176575 54.168382 29.26958088 55.859375 31.65234375 C56.38015625 32.37679687 56.9009375 33.10125 57.4375 33.84765625 C57.82421875 34.40195312 58.2109375 34.95625 58.609375 35.52734375 C54.76416156 34.01672418 53.12452028 31.72886513 50.609375 28.52734375 C48.83647161 26.96053047 47.02168335 25.44007232 45.171875 23.96484375 C44.24503906 23.22105469 43.31820312 22.47726563 42.36328125 21.7109375 C41.45449219 20.99035156 40.54570312 20.26976563 39.609375 19.52734375 C38.85914063 18.86992188 38.10890625 18.2125 37.3359375 17.53515625 C33.6045692 14.78741513 29.61085593 12.91926207 25.421875 10.96484375 C24.62201172 10.57876953 23.82214844 10.19269531 22.99804688 9.79492188 C14.91262819 5.98276061 6.85091475 3.46989293 -2.015625 2.33984375 C-3.22476563 2.18128906 -4.43390625 2.02273437 -5.6796875 1.859375 C-6.57429688 1.74980469 -7.46890625 1.64023437 -8.390625 1.52734375 C-5.04273573 -0.70458243 -3.8433237 -0.62418943 0 0 Z " fill="#5C5C5C" transform="translate(131.390625,16.47265625)"/>
<path d="M0 0 C1.32 0.33 2.64 0.66 4 1 C4 1.66 4 2.32 4 3 C4.78375 3.268125 5.5675 3.53625 6.375 3.8125 C9 5 9 5 11 8 C10.125 10.6875 10.125 10.6875 9 13 C7.02 13 5.04 13 3 13 C3 12.34 3 11.68 3 11 C2.01 11.33 1.02 11.66 0 12 C-1.5 10.875 -1.5 10.875 -3 9 C-3.1875 5.8125 -3.1875 5.8125 -3 3 C-2.01 2.67 -1.02 2.34 0 2 C0 1.34 0 0.68 0 0 Z " fill="#3A240D" transform="translate(68,173)"/>
<path d="M0 0 C2.39047894 2.39047894 4 4.54145481 4 8 C4.99 8.33 5.98 8.66 7 9 C7.69937532 10.31647119 8.36729133 11.65022151 9 13 C9.66 13.33 10.32 13.66 11 14 C10.67 15.32 10.34 16.64 10 18 C5.35426009 18 5.35426009 18 3 17 C1.04296875 14.34765625 1.04296875 14.34765625 -0.8125 11.0625 C-1.43769531 9.98097656 -2.06289063 8.89945313 -2.70703125 7.78515625 C-3.13371094 6.86605469 -3.56039062 5.94695312 -4 5 C-3.67 4.34 -3.34 3.68 -3 3 C-3.33 2.34 -3.66 1.68 -4 1 C-2 0 -2 0 0 0 Z " fill="#221F1C" transform="translate(38,149)"/>
<path d="M0 0 C0.66 0.66 1.32 1.32 2 2 C7.90182947 4.44920528 12.76929005 5.48995238 19 4 C19.33 4.99 19.66 5.98 20 7 C19.34 7 18.68 7 18 7 C18.66 8.98 19.32 10.96 20 13 C19.01 13.495 19.01 13.495 18 14 C17.01 12.68 16.02 11.36 15 10 C13.68 10.33 12.36 10.66 11 11 C11 10.34 11 9.68 11 9 C8.36 8.67 5.72 8.34 3 8 C3 7.34 3 6.68 3 6 C0.525 5.01 0.525 5.01 -2 4 C-1.34 3.67 -0.68 3.34 0 3 C0 2.01 0 1.02 0 0 Z " fill="#322517" transform="translate(138,33)"/>
<path d="M0 0 C3 2 3 2 4 3 C4.66 2.34 5.32 1.68 6 1 C6.83905565 2.12073862 7.67107831 3.24674547 8.5 4.375 C8.9640625 5.00148438 9.428125 5.62796875 9.90625 6.2734375 C11 8 11 8 11 10 C11.66 10.33 12.32 10.66 13 11 C13 11.66 13 12.32 13 13 C12.01 13.495 12.01 13.495 11 14 C11.33 16.97 11.66 19.94 12 23 C9.28855755 21.64427878 9.25450791 20.38657707 8.25 17.5625 C6.39338148 12.6748111 3.98292001 8.42872635 1.171875 4.03125 C0 2 0 2 0 0 Z " fill="#141314" transform="translate(166,70)"/>
<path d="M0 0 C0.66 0.33 1.32 0.66 2 1 C1.25556641 1.58394531 1.25556641 1.58394531 0.49609375 2.1796875 C-11.15093944 11.77136189 -17.77102855 24.30358206 -19.33984375 39.234375 C-19.59009602 42.15512756 -19.81190661 45.0746528 -20 48 C-20.33 48 -20.66 48 -21 48 C-21.63095681 32.20271092 -18.97318194 20.33230473 -9 8 C-6.16676664 5.08557292 -3.23303251 2.46107912 0 0 Z " fill="#707071" transform="translate(86,68)"/>
<path d="M0 0 C0.33 0.66 0.66 1.32 1 2 C1.99 2.33 2.98 2.66 4 3 C4.94921875 4.70703125 4.94921875 4.70703125 5.6875 6.8125 C5.93886719 7.49957031 6.19023437 8.18664062 6.44921875 8.89453125 C7 11 7 11 7 15 C3.62537285 14.45276317 1.91765 13.9451 -1 12 C-1.27060777 7.8055795 -1.34152439 4.02457316 0 0 Z " fill="#3B250E" transform="translate(188,73)"/>
<path d="M0 0 C0.66 0 1.32 0 2 0 C2 0.66 2 1.32 2 2 C2.66 2 3.32 2 4 2 C4.68359375 3.765625 4.68359375 3.765625 5 6 C3.78515625 7.921875 3.78515625 7.921875 2.0625 9.75 C1.49660156 10.36359375 0.93070313 10.9771875 0.34765625 11.609375 C-0.09707031 12.06828125 -0.54179688 12.5271875 -1 13 C-2.32 12.34 -3.64 11.68 -5 11 C-5 7.79604584 -4.25664978 5.90600261 -3 3 C-2.34 3 -1.68 3 -1 3 C-0.67 2.01 -0.34 1.02 0 0 Z " fill="#55422A" transform="translate(52,53)"/>
<path d="M0 0 C1.8125 3.375 1.8125 3.375 3 7 C2.01 8.485 2.01 8.485 1 10 C-3.24822374 9.52797514 -5.19989709 7.03344482 -8 4 C-7 1 -7 1 -5.125 -0.25 C-3 -1 -3 -1 0 0 Z " fill="#402D16" transform="translate(62,164)"/>
<path d="M0 0 C0.66 0.66 1.32 1.32 2 2 C1.67 2.33 1.34 2.66 1 3 C1.22424614 5.72756527 1.58573776 8.42727778 1.94140625 11.140625 C2.00562574 14.27453592 1.34493888 16.19761784 0 19 C0.99 19.66 1.98 20.32 3 21 C3.546875 23.05859375 3.546875 23.05859375 3.75 25.4375 C3.82734375 26.21996094 3.9046875 27.00242187 3.984375 27.80859375 C4 30 4 30 3 33 C2.34 33 1.68 33 1 33 C0.97421875 32.30132812 0.9484375 31.60265625 0.921875 30.8828125 C0.86515625 29.97273438 0.8084375 29.06265625 0.75 28.125 C0.70359375 27.22007813 0.6571875 26.31515625 0.609375 25.3828125 C0.24388852 22.82889456 0.24388852 22.82889456 -2.046875 21.6796875 C-2.69140625 21.45539063 -3.3359375 21.23109375 -4 21 C-3 19 -2 17 -1 15 C-0.95435202 12.64627594 -0.961687 10.29135488 -1 7.9375 C-1.0375585 5.62530502 -1.04676667 3.31202706 -1 1 C-0.67 0.67 -0.34 0.34 0 0 Z " fill="#392F25" transform="translate(38,97)"/>
<path d="M0 0 C0.99 0 1.98 0 3 0 C4.63757663 5.25748287 4.63757663 5.25748287 5 8 C3.875 10 3.875 10 2 11 C-2 11 -2 11 -3.5625 9.5 C-4.036875 9.005 -4.51125 8.51 -5 8 C-5.99 8 -6.98 8 -8 8 C-8.33 5.69 -8.66 3.38 -9 1 C-6.37098712 2.52206009 -4.15634036 3.84365964 -2 6 C-1.01 6 -0.02 6 1 6 C1.33 4.35 1.66 2.7 2 1 C1.34 0.67 0.68 0.34 0 0 Z " fill="#3E3327" transform="translate(96,84)"/>
<path d="M0 0 C0.66 0.33 1.32 0.66 2 1 C2.625 3.5625 2.625 3.5625 3 6 C5.47266765 5.65555119 5.47266765 5.65555119 8 5 C8.33 4.34 8.66 3.68 9 3 C9.66 3.33 10.32 3.66 11 4 C7.25 9.875 7.25 9.875 5 11 C5 12.98 5 14.96 5 17 C4.34 17.33 3.68 17.66 3 18 C2.67 15.69 2.34 13.38 2 11 C1.34 11 0.68 11 0 11 C-0.84098656 6.98195309 -1.05404945 3.98196457 0 0 Z " fill="#423526" transform="translate(38,74)"/>
<path d="M0 0 C0.33 0 0.66 0 1 0 C0.67 9.9 0.34 19.8 0 30 C-0.66 29.67 -1.32 29.34 -2 29 C-2.05896868 25.85424793 -2.09391603 22.7086414 -2.125 19.5625 C-2.14175781 18.68400391 -2.15851562 17.80550781 -2.17578125 16.90039062 C-2.21967784 10.95240262 -1.48881322 5.7618244 0 0 Z " fill="#494949" transform="translate(53,91)"/>
<path d="M0 0 C0 0.33 0 0.66 0 1 C-1.01578125 1.09796875 -2.0315625 1.1959375 -3.078125 1.296875 C-11.86138263 2.22210477 -19.69600473 3.86456816 -28 7 C-29.99764852 7.67368006 -31.99708258 8.34215029 -34 9 C-25.38735748 -0.78329296 -11.98782624 -0.70058725 0 0 Z " fill="#686868" transform="translate(122,59)"/>
<path d="M0 0 C4.08332902 1.55466197 6.08208993 4.25087844 8.75 7.625 C9.54921875 8.62789062 10.3484375 9.63078125 11.171875 10.6640625 C12.07679687 11.82035156 12.07679687 11.82035156 13 13 C12.67 13.66 12.34 14.32 12 15 C10 15 10 15 8.37890625 13.390625 C7.77949219 12.68421875 7.18007812 11.9778125 6.5625 11.25 C5.96566406 10.55390625 5.36882812 9.8578125 4.75390625 9.140625 C3.88572266 8.08101562 3.88572266 8.08101562 3 7 C2.43152344 6.31421875 1.86304687 5.6284375 1.27734375 4.921875 C0 3 0 3 0 0 Z " fill="#D8AD6E" transform="translate(85,76)"/>
<path d="M0 0 C1.32 0.66 2.64 1.32 4 2 C3.67 2.99 3.34 3.98 3 5 C2.34 5 1.68 5 1 5 C-0.33898436 5.28732373 -1.67200031 5.6030589 -3 5.9375 C-4.051875 6.19853516 -4.051875 6.19853516 -5.125 6.46484375 C-7.0676966 6.95694872 -7.0676966 6.95694872 -9 8 C-9 7.34 -9 6.68 -9 6 C-10.65 6 -12.3 6 -14 6 C-14 5.01 -14 4.02 -14 3 C-9.71 3 -5.42 3 -1 3 C-0.67 2.01 -0.34 1.02 0 0 Z " fill="#3A3026" transform="translate(118,30)"/>
<path d="M0 0 C0.99 0 1.98 0 3 0 C4.63735427 2.11981593 6.04309229 4.16514261 7.4375 6.4375 C8.03473877 7.39233276 8.03473877 7.39233276 8.64404297 8.36645508 C14.78931753 18.35221051 14.78931753 18.35221051 16 23 C15.67 23.99 15.34 24.98 15 26 C14.72325439 25.46109131 14.44650879 24.92218262 14.16137695 24.36694336 C12.88404778 21.88751585 11.59834398 19.41252167 10.3125 16.9375 C9.65991211 15.66616211 9.65991211 15.66616211 8.99414062 14.36914062 C6.33107527 9.26000042 3.46672618 4.60356251 0 0 Z " fill="#333332" transform="translate(188,52)"/>
<path d="M0 0 C-0.99 0.33 -1.98 0.66 -3 1 C-3.66 0.5875 -4.32 0.175 -5 -0.25 C-13.52839684 -5.22489816 -23.34727249 -5.59134438 -33 -6 C-33 -6.33 -33 -6.66 -33 -7 C-19.567951 -8.60493233 -11.70536448 -6.29656544 0 0 Z " fill="#474747" transform="translate(144,67)"/>
<path d="M0 0 C4.3737932 0.41004311 7.09781292 2.24650351 10.6640625 4.58984375 C14.90124227 7.1477399 19.46287383 9.04002822 24 11 C23.67 11.66 23.34 12.32 23 13 C14.74362632 9.87324069 7.14863078 6.23482412 0 1 C0 0.67 0 0.34 0 0 Z " fill="#1E1E1E" transform="translate(75,160)"/>
<path d="M0 0 C0.99 0.66 1.98 1.32 3 2 C3.4375 4.375 3.4375 4.375 3 7 C1.70766393 8.37310707 0.37562854 9.71034824 -1 11 C-1 11.99 -1 12.98 -1 14 C-1.99 13.67 -2.98 13.34 -4 13 C-3.71682074 11.39431334 -3.42312209 9.79047953 -3.125 8.1875 C-2.96257812 7.29417969 -2.80015625 6.40085938 -2.6328125 5.48046875 C-2 3 -2 3 0 0 Z " fill="#161717" transform="translate(76,143)"/>
<path d="M0 0 C0.99 0.33 1.98 0.66 3 1 C2.2884375 1.6496875 2.2884375 1.6496875 1.5625 2.3125 C-0.23686957 4.02309613 -0.23686957 4.02309613 -1 7 C-1.99 7.33 -2.98 7.66 -4 8 C-4 8.99 -4 9.98 -4 11 C-4.66 11 -5.32 11 -6 11 C-6 11.99 -6 12.98 -6 14 C-6.66 14 -7.32 14 -8 14 C-8.73080266 12.02253397 -9.39421747 10.01927511 -10 8 C-9.67 7.34 -9.34 6.68 -9 6 C-8.4225 5.896875 -7.845 5.79375 -7.25 5.6875 C-3.96486163 4.68370772 -2.28947698 2.48026672 0 0 Z " fill="#3A3229" transform="translate(58,60)"/>
<path d="M0 0 C0.66 0.66 1.32 1.32 2 2 C-0.57784846 4.64752004 -2.91648098 6.94432065 -6 9 C-6.66 8.67 -7.32 8.34 -8 8 C-8.99 8.33 -9.98 8.66 -11 9 C-9.72648692 5.17946076 -8.37362475 4.76978625 -4.9375 2.8125 C-4.01839844 2.28269531 -3.09929687 1.75289062 -2.15234375 1.20703125 C-1.44207031 0.80871094 -0.73179688 0.41039062 0 0 Z " fill="#313030" transform="translate(89,52)"/>
<path d="M0 0 C0.78375 0.185625 1.5675 0.37125 2.375 0.5625 C4.97089775 1.25962266 4.97089775 1.25962266 7 0 C7.66 0.66 8.32 1.32 9 2 C7.21190303 3.17213045 5.41940875 4.33755526 3.625 5.5 C2.62726563 6.1496875 1.62953125 6.799375 0.6015625 7.46875 C-2 9 -2 9 -4 9 C-4 7 -4 7 -2 5 C-1.29289322 3.35008418 -0.62056011 1.68437744 0 0 Z " fill="#181819" transform="translate(64,24)"/>
<path d="M0 0 C1.32 0 2.64 0 4 0 C4.53625 1.010625 5.0725 2.02125 5.625 3.0625 C7.94071903 7.14416304 10.84783981 10.54313099 14 14 C13.01 14 12.02 14 11 14 C11 13.34 11 12.68 11 12 C10.13375 11.62875 10.13375 11.62875 9.25 11.25 C6.6011728 9.77842934 4.89625859 8.37032324 3 6 C2.75 3.25 2.75 3.25 3 1 C2.01 0.67 1.02 0.34 0 0 Z " fill="#5D4220" transform="translate(81,76)"/>
<path d="M0 0 C0.66 0.33 1.32 0.66 2 1 C0.50871999 4.79598549 -1.65733441 6.71720399 -5 9 C-5.99 9 -6.98 9 -8 9 C-7.61479436 6.46089803 -7.29902057 5.27248877 -5.37109375 3.515625 C-4.73300781 3.09796875 -4.09492187 2.6803125 -3.4375 2.25 C-2.79683594 1.82203125 -2.15617187 1.3940625 -1.49609375 0.953125 C-1.00238281 0.63859375 -0.50867188 0.3240625 0 0 Z " fill="#CEA569" transform="translate(68,44)"/>
<path d="M0 0 C0 0.33 0 0.66 0 1 C-1.09699219 1.20496094 -2.19398437 1.40992188 -3.32421875 1.62109375 C-4.77864887 1.89321293 -6.23307578 2.16534925 -7.6875 2.4375 C-8.40873047 2.57220703 -9.12996094 2.70691406 -9.87304688 2.84570312 C-13.58688798 3.54098845 -17.29716254 4.24774702 -21 5 C-21.33 4.34 -21.66 3.68 -22 3 C-14.5345605 0.22523488 -7.93285519 -0.36801906 0 0 Z " fill="#555556" transform="translate(114,46)"/>
<path d="M0 0 C0.97582031 0.08378906 1.95164062 0.16757812 2.95703125 0.25390625 C4.86548828 0.40666016 4.86548828 0.40666016 6.8125 0.5625 C8.07707031 0.66691406 9.34164062 0.77132813 10.64453125 0.87890625 C13.99581184 1.19597178 13.99581184 1.19597178 17 0 C17 0.66 17 1.32 17 2 C18.32 2.33 19.64 2.66 21 3 C18.2181287 3.92729043 15.83784125 4.35859532 12.9375 4.6875 C12.05964844 4.79449219 11.18179688 4.90148437 10.27734375 5.01171875 C8 5 8 5 6 3 C4.01643517 2.28591666 2.01684563 1.61382258 0 1 C0 0.67 0 0.34 0 0 Z " fill="#392E22" transform="translate(112,25)"/>
<path d="M0 0 C3.39417765 3.12621626 5.6062718 5.56541027 7 10 C6.01 10.33 5.02 10.66 4 11 C3.13341385 9.73760288 2.28207941 8.46472499 1.4375 7.1875 C0.72400391 6.12595703 0.72400391 6.12595703 -0.00390625 5.04296875 C-1 3 -1 3 0 0 Z " fill="#CDA56B" transform="translate(45,151)"/>
<path d="M0 0 C0.99 0.33 1.98 0.66 3 1 C3.33 4.3 3.66 7.6 4 11 C3.01 11.33 2.02 11.66 1 12 C-0.26237731 9.47524538 -0.09856404 7.68799534 -0.0625 4.875 C-0.05347656 3.96492188 -0.04445312 3.05484375 -0.03515625 2.1171875 C-0.02355469 1.41851562 -0.01195312 0.71984375 0 0 Z " fill="#CDA365" transform="translate(34,119)"/>
<path d="M0 0 C0.99 0 1.98 0 3 0 C4.32229189 2.64458379 4.09677194 4.67761301 4.0625 7.625 C4.05347656 8.62789062 4.04445312 9.63078125 4.03515625 10.6640625 C4.02355469 11.43492188 4.01195312 12.20578125 4 13 C3.34 13 2.68 13 2 13 C1.86722656 12.38511719 1.73445312 11.77023438 1.59765625 11.13671875 C1.42105469 10.32847656 1.24445313 9.52023438 1.0625 8.6875 C0.88847656 7.88699219 0.71445313 7.08648437 0.53515625 6.26171875 C0.00113841 3.854599 0.00113841 3.854599 -1 1 C-0.67 0.67 -0.34 0.34 0 0 Z " fill="#341F0B" transform="translate(193,77)"/>
<path d="M0 0 C0.66 0 1.32 0 2 0 C3.125 3.75 3.125 3.75 2 6 C2 7.32 2 8.64 2 10 C1.34 10 0.68 10 0 10 C-0.185625 9.38125 -0.37125 8.7625 -0.5625 8.125 C-2.71437233 4.94397134 -5.37533763 4.80548053 -9 4 C-6 3 -6 3 -3.375 2.5625 C-2.59125 2.376875 -1.8075 2.19125 -1 2 C-0.67 1.34 -0.34 0.68 0 0 Z " fill="#2C1F14" transform="translate(64,171)"/>
<path d="M0 0 C4.05910468 1.35303489 4.9213069 3.34436731 7 7 C7 8.32 7 9.64 7 11 C2.94089532 9.64696511 2.0786931 7.65563269 0 4 C0 2.68 0 1.36 0 0 Z " fill="#CDA368" transform="translate(181,62)"/>
<path d="M0 0 C0.99 0.33 1.98 0.66 3 1 C1.85569823 4.87302138 0.76679902 8.00263439 -2 11 C-2.66 11 -3.32 11 -4 11 C-4.33 11.66 -4.66 12.32 -5 13 C-5.33 12.34 -5.66 11.68 -6 11 C-5.195625 10.113125 -4.39125 9.22625 -3.5625 8.3125 C-1.2960841 5.61712968 -0.31582634 3.57936522 0 0 Z " fill="#563E22" transform="translate(57,54)"/>
<path d="M0 0 C0.66 0.33 1.32 0.66 2 1 C1.938125 1.94875 1.87625 2.8975 1.8125 3.875 C1.874375 4.90625 1.93625 5.9375 2 7 C2.99 7.66 3.98 8.32 5 9 C4.67 9.99 4.34 10.98 4 12 C-2.57142857 6.85714286 -2.57142857 6.85714286 -4 3 C-3.01 2.67 -2.02 2.34 -1 2 C-0.67 1.34 -0.34 0.68 0 0 Z " fill="#19191A" transform="translate(182,35)"/>
<path d="M0 0 C0.99 0 1.98 0 3 0 C3.53229326 1.26607607 4.05044544 2.53810412 4.5625 3.8125 C4.85253906 4.52019531 5.14257812 5.22789062 5.44140625 5.95703125 C6 8 6 8 5 11 C2.27042661 8.64264116 1.11106604 6.41866474 0 3 C0 2.01 0 1.02 0 0 Z " fill="#D2A86B" transform="translate(37,136)"/>
<path d="M0 0 C0.99 0 1.98 0 3 0 C3.33 3.3 3.66 6.6 4 10 C3.01 10.33 2.02 10.66 1 11 C-0.17571451 7.32589215 -0.07366746 3.83070817 0 0 Z " fill="#CBA166" transform="translate(195,94)"/>
<path d="M0 0 C0.66 0.33 1.32 0.66 2 1 C0.9154334 7.26638478 0.9154334 7.26638478 -1.69140625 9.35546875 C-3.41659751 10.32087881 -5.20599015 11.16943988 -7 12 C-5.44298069 7.32894208 -2.91552627 3.91294315 0 0 Z " fill="#303030" transform="translate(67,69)"/>
<path d="M0 0 C0 0.99 0 1.98 0 3 C-1.28913487 3.67154933 -2.58140204 4.33708859 -3.875 5 C-4.59429687 5.37125 -5.31359375 5.7425 -6.0546875 6.125 C-8 7 -8 7 -10 7 C-9.875 5.1875 -9.875 5.1875 -9 3 C-5.79116175 1.04679411 -3.7794561 0 0 0 Z " fill="#D4AA6D" transform="translate(84,36)"/>
<path d="M0 0 C4.38462134 0.50109958 6.8000997 1.98295115 10 5 C10 5.66 10 6.32 10 7 C5.61537866 6.49890042 3.1999003 5.01704885 0 2 C0 1.34 0 0.68 0 0 Z " fill="#D5AB6D" transform="translate(67,177)"/>
<path d="M0 0 C0.66 0 1.32 0 2 0 C2 3.63 2 7.26 2 11 C1.01 11 0.02 11 -1 11 C-1.02688151 9.35425434 -1.04634123 7.70838587 -1.0625 6.0625 C-1.07410156 5.14597656 -1.08570313 4.22945313 -1.09765625 3.28515625 C-1 1 -1 1 0 0 Z " fill="#D4AA6F" transform="translate(34,102)"/>
<path d="M0 0 C3.99881788 0.61520275 6.80358226 2.60268669 10 5 C10 5.66 10 6.32 10 7 C6.06380262 6.43768609 3.20807554 5.38314183 0 3 C0 2.01 0 1.02 0 0 Z " fill="#D3A96C" transform="translate(156,40)"/>
<path d="M0 0 C3.3 0.66 6.6 1.32 10 2 C10 2.66 10 3.32 10 4 C6.7 4 3.4 4 0 4 C0 2.68 0 1.36 0 0 Z " fill="#CFA569" transform="translate(124,29)"/>
<path d="M0 0 C0 0.99 0 1.98 0 3 C-3.3 3.66 -6.6 4.32 -10 5 C-10 4.01 -10 3.02 -10 2 C-6.38026598 0.68373308 -3.90432869 0 0 0 Z " fill="#D3A96C" transform="translate(100,31)"/>
<path d="M0 0 C3.3 0 6.6 0 10 0 C10 0.99 10 1.98 10 3 C6.37 3 2.74 3 -1 3 C-0.67 2.01 -0.34 1.02 0 0 Z " fill="#D1A86C" transform="translate(107,29)"/>
<path d="M0 0 C1.34173403 0.92543709 2.67320159 1.86577405 4 2.8125 C5.11375 3.59560547 5.11375 3.59560547 6.25 4.39453125 C7.11625 5.18923828 7.11625 5.18923828 8 6 C8 6.99 8 7.98 8 9 C3.75177626 8.52797514 1.80010291 6.03344482 -1 3 C-0.67 2.01 -0.34 1.02 0 0 Z " fill="#D8AE71" transform="translate(55,165)"/>
<path d="M0 0 C-1.13273539 4.44380808 -2.28317615 8.26436721 -5 12 C-5.66 12 -6.32 12 -7 12 C-6.45119974 8.06693147 -5.74199701 4.58646443 -4 1 C-2 0 -2 0 0 0 Z " fill="#302F2F" transform="translate(62,82)"/>
<path d="M0 0 C3.12270126 2.51830747 3.94523098 3.7261549 4.75 7.75 C4.8325 8.8225 4.915 9.895 5 11 C4.01 10.67 3.02 10.34 2 10 C1.05078125 7.93359375 1.05078125 7.93359375 0.3125 5.4375 C0.06113281 4.61121094 -0.19023437 3.78492187 -0.44921875 2.93359375 C-0.63097656 2.29550781 -0.81273437 1.65742187 -1 1 C-0.67 0.67 -0.34 0.34 0 0 Z " fill="#D3AA6E" transform="translate(190,77)"/>
<path d="M0 0 C0.99 0 1.98 0 3 0 C2.29445932 3.66881155 0.72264494 6.70450534 -1 10 C-1.99 10 -2.98 10 -4 10 C-2.8905928 6.51329166 -1.73662334 3.22515763 0 0 Z " fill="#D8AD6F" transform="translate(44,70)"/>
<path d="M0 0 C0.66 0.33 1.32 0.66 2 1 C0.4722133 4.43752007 -1.50181056 7.18953688 -4 10 C-4.66 10 -5.32 10 -6 10 C-5.58578031 5.16743695 -3.53586014 3.17320782 0 0 Z " fill="#D5AA6D" transform="translate(55,56)"/>
<path d="M0 0 C0.66 0.33 1.32 0.66 2 1 C-1.3 4.3 -4.6 7.6 -8 11 C-8.33 10.01 -8.66 9.02 -9 8 C-7.890625 6.2109375 -7.890625 6.2109375 -6.25 4.375 C-5.71890625 3.76398437 -5.1878125 3.15296875 -4.640625 2.5234375 C-3 1 -3 1 0 0 Z " fill="#161616" transform="translate(52,38)"/>
<path d="M0 0 C6.01893759 3.08453491 11.00623769 6.43123874 16 11 C12.45826225 11 11.86187185 10.35548192 9.1875 8.1875 C5.9463423 5.65328612 2.7696071 3.6963232 -1 2 C-0.67 1.34 -0.34 0.68 0 0 Z " fill="#565656" transform="translate(161,27)"/>
<path d="M0 0 C3.3 0.99 6.6 1.98 10 3 C10 3.99 10 4.98 10 6 C6.28111761 5.49287967 3.26545761 4.88391785 0 3 C0 2.01 0 1.02 0 0 Z " fill="#D7AC6F" transform="translate(82,185)"/>
<path d="M0 0 C5.75 -0.125 5.75 -0.125 8 1 C10.54615009 1.23172827 13.07396225 1.41894529 15.625 1.5625 C16.33140625 1.60568359 17.0378125 1.64886719 17.765625 1.69335938 C19.51018537 1.79944751 21.25506697 1.90022889 23 2 C23 2.33 23 2.66 23 3 C19.72933434 3.08706892 16.45896635 3.14041241 13.1875 3.1875 C12.25873047 3.21263672 11.32996094 3.23777344 10.37304688 3.26367188 C9.0340332 3.27817383 9.0340332 3.27817383 7.66796875 3.29296875 C6.84578857 3.3086792 6.0236084 3.32438965 5.17651367 3.34057617 C2.52497566 2.92566921 1.66736408 2.04470249 0 0 Z " fill="#131313" transform="translate(98,157)"/>
<path d="M0 0 C0.99 0 1.98 0 3 0 C2.34 3.3 1.68 6.6 1 10 C0.01 10 -0.98 10 -2 10 C-1.54177532 6.53058454 -1.10868317 3.32604951 0 0 Z " fill="#D6AC6F" transform="translate(37,86)"/>
<path d="M0 0 C2.475 0.99 2.475 0.99 5 2 C5 2.99 5 3.98 5 5 C5.99 5 6.98 5 8 5 C8 5.66 8 6.32 8 7 C8.66 7.33 9.32 7.66 10 8 C10.625 10.5625 10.625 10.5625 11 13 C6.78185183 9.0299782 3.38772897 4.69159716 0 0 Z " fill="#5A3E1A" transform="translate(87,76)"/>
<path d="M0 0 C4.24822374 0.47202486 6.19989709 2.96655518 9 6 C8.67 6.99 8.34 7.98 8 9 C6.84775972 8.07038578 5.70340824 7.1309875 4.5625 6.1875 C3.60537109 5.40439453 3.60537109 5.40439453 2.62890625 4.60546875 C1 3 1 3 0 0 Z " fill="#DDB072" transform="translate(169,50)"/>
<path d="M0 0 C4.3890815 0.51035831 7.33708062 1.52214277 11 4 C10.67 4.66 10.34 5.32 10 6 C6.7 5.01 3.4 4.02 0 3 C0 2.01 0 1.02 0 0 Z " fill="#D8AF73" transform="translate(140,33)"/>
<path d="M0 0 C0.9075 0.185625 1.815 0.37125 2.75 0.5625 C5.68314324 0.95734621 7.2644657 0.94691572 10 0 C9.34 1.98 8.68 3.96 8 6 C7.34 5.34 6.68 4.68 6 4 C3.39719432 4.32041397 3.39719432 4.32041397 1 5 C0.67 3.35 0.34 1.7 0 0 Z " fill="#2D231A" transform="translate(151,34)"/>
<path d="M0 0 C2.475 0.99 2.475 0.99 5 2 C4.67 3.32 4.34 4.64 4 6 C5.32 6 6.64 6 8 6 C7.34 7.65 6.68 9.3 6 11 C2.80623468 9.40311734 1.42408504 6.16616965 0 3 C0 2.01 0 1.02 0 0 Z " fill="#1D1813" transform="translate(62,164)"/>
<path d="M0 0 C6 7.71428571 6 7.71428571 6 11 C4.125 10.6875 4.125 10.6875 2 10 C-0.4294516 6.3558226 -0.16179575 4.28758728 0 0 Z " fill="#402A11" transform="translate(180,63)"/>
<path d="M0 0 C0.33 1.32 0.66 2.64 1 4 C0.01 3.67 -0.98 3.34 -2 3 C-2 2.34 -2 1.68 -2 1 C-5.3 1.66 -8.6 2.32 -12 3 C-12 2.01 -12 1.02 -12 0 C-7.74433453 -1.16063604 -4.3164922 -0.76173392 0 0 Z " fill="#5B4222" transform="translate(102,30)"/>
<path d="M0 0 C2.31 0.33 4.62 0.66 7 1 C6.67 3.97 6.34 6.94 6 10 C5.34 9.67 4.68 9.34 4 9 C4 7.35 4 5.7 4 4 C2.68 3.34 1.36 2.68 0 2 C0 1.34 0 0.68 0 0 Z " fill="#1D160F" transform="translate(181,72)"/>
<path d="M0 0 C1.65 0.33 3.3 0.66 5 1 C4.67 1.66 4.34 2.32 4 3 C3.34 3 2.68 3 2 3 C1.34 4.32 0.68 5.64 0 7 C-1.32 6.67 -2.64 6.34 -4 6 C-3.34 6 -2.68 6 -2 6 C-1.34 4.02 -0.68 2.04 0 0 Z " fill="#564127" transform="translate(45,74)"/>
<path d="M0 0 C3.23087421 0.55704728 5.02361137 1.33187535 7 4 C7 5.32 7 6.64 7 8 C2.60841671 6.5361389 2.12052567 4.02168662 0 0 Z " fill="#452D12" transform="translate(46,151)"/>
<path d="M0 0 C0.99 0.33 1.98 0.66 3 1 C3.19477739 2.62414378 3.38059458 4.24936423 3.5625 5.875 C3.66691406 6.77992187 3.77132812 7.68484375 3.87890625 8.6171875 C4 11 4 11 3 13 C0.41073669 10.41073669 0.62601957 8.97294721 0.375 5.375 C0.30023438 4.37210937 0.22546875 3.36921875 0.1484375 2.3359375 C0.09945312 1.56507812 0.05046875 0.79421875 0 0 Z " fill="#503617" transform="translate(36,119)"/>
<path d="M0 0 C1.875 0.3125 1.875 0.3125 4 1 C6.29013653 4.4352048 6.17842973 5.985331 6 10 C5.01 10.495 5.01 10.495 4 11 C3.67 8.03 3.34 5.06 3 2 C2.01 2 1.02 2 0 2 C0 1.34 0 0.68 0 0 Z " fill="#361D08" transform="translate(195,92)"/>
<path d="M0 0 C0 1.32 0 2.64 0 4 C-2.31 4.33 -4.62 4.66 -7 5 C-7 4.34 -7 3.68 -7 3 C-7.66 3 -8.32 3 -9 3 C-7.04184491 -0.91631018 -3.95131158 -0.08589808 0 0 Z " fill="#171716" transform="translate(172,59)"/>
<path d="M0 0 C0.66 0.33 1.32 0.66 2 1 C1.67 1.99 1.34 2.98 1 4 C-1.61497339 5.23867161 -4.25511949 6.08503983 -7 7 C-7.66 7.66 -8.32 8.32 -9 9 C-8.875 7.1875 -8.875 7.1875 -8 5 C-2.96428571 2 -2.96428571 2 0 2 C0 1.34 0 0.68 0 0 Z " fill="#3C3329" transform="translate(68,50)"/>
<path d="M0 0 C-1.70828921 2.10633718 -2.52148416 2.93801608 -5.26171875 3.29296875 C-6.06222656 3.25816406 -6.86273438 3.22335938 -7.6875 3.1875 C-8.49574219 3.16042969 -9.30398437 3.13335937 -10.13671875 3.10546875 C-10.75160156 3.07066406 -11.36648437 3.03585938 -12 3 C-8.62803192 -0.37196808 -4.5120049 -1.50400163 0 0 Z " fill="#4E381E" transform="translate(103,34)"/>
<path d="M0 0 C2.64 0.33 5.28 0.66 8 1 C8.103125 1.61875 8.20625 2.2375 8.3125 2.875 C8.87525373 5.36526484 8.87525373 5.36526484 12 7 C7.65432161 7 6.99459211 6.61611416 3.75 4.0625 C3.04359375 3.51722656 2.3371875 2.97195312 1.609375 2.41015625 C1.07828125 1.94480469 0.5471875 1.47945312 0 1 C0 0.67 0 0.34 0 0 Z " fill="#181819" transform="translate(167,30)"/>
<path d="M0 0 C0.33 0.66 0.66 1.32 1 2 C4.02934491 2.65772428 4.02934491 2.65772428 7 3 C7.33 3.99 7.66 4.98 8 6 C4.85375007 6.26218749 3.38162983 6.24754367 0.6875 4.5 C0.130625 4.005 -0.42625 3.51 -1 3 C-0.67 2.01 -0.34 1.02 0 0 Z " fill="#382A1D" transform="translate(34,129)"/>
<path d="M0 0 C2 1.25 2 1.25 4 3 C4 4.32 4 5.64 4 7 C5.65 7 7.3 7 9 7 C9 7.33 9 7.66 9 8 C7.02 8 5.04 8 3 8 C3 7.34 3 6.68 3 6 C0.525 5.01 0.525 5.01 -2 4 C-1.34 3.67 -0.68 3.34 0 3 C0 2.01 0 1.02 0 0 Z " fill="#372818" transform="translate(138,33)"/>
<path d="M0 0 C1.54571278 2.31856917 2.79618552 4.50638429 4 7 C3.01 8.485 3.01 8.485 2 10 C0.45428722 7.68143083 -0.79618552 5.49361571 -2 3 C-1.34 2.01 -0.68 1.02 0 0 Z " fill="#2D231B" transform="translate(39,145)"/>
<path d="M0 0 C0.33 0.99 0.66 1.98 1 3 C1.66 3.165 2.32 3.33 3 3.5 C3.66 3.665 4.32 3.83 5 4 C6 7 6 7 5 10 C2.43839216 8.71919608 2.23538607 7.5434419 1 5 C0.02418241 3.64886795 -0.97029741 2.31053056 -2 1 C-1.34 0.67 -0.68 0.34 0 0 Z " fill="#4C2F0E" transform="translate(174,49)"/>
<path d="M0 0 C5.75 1.875 5.75 1.875 8 3 C8 3.66 8 4.32 8 5 C5.36 4.67 2.72 4.34 0 4 C0 2.68 0 1.36 0 0 Z " fill="#513718" transform="translate(142,36)"/>
<path d="M0 0 C0.33 0.66 0.66 1.32 1 2 C3.34386809 2.91031272 3.34386809 2.91031272 6.0625 3.625 C6.98160156 3.88539063 7.90070313 4.14578125 8.84765625 4.4140625 C9.55792969 4.60742188 10.26820312 4.80078125 11 5 C10.67 5.66 10.34 6.32 10 7 C5.545 6.01 5.545 6.01 1 5 C0.67 3.35 0.34 1.7 0 0 Z " fill="#42270C" transform="translate(81,186)"/>
<path d="M0 0 C3 0 3 0 6 1 C6 1.66 6 2.32 6 3 C6.66 3.33 7.32 3.66 8 4 C7.67 4.66 7.34 5.32 7 6 C4.50638429 4.79618552 2.31856917 3.54571278 0 2 C0 1.34 0 0.68 0 0 Z " fill="#171717" transform="translate(143,65)"/>
<path d="M0 0 C1.98 0.66 3.96 1.32 6 2 C4.515 4.475 4.515 4.475 3 7 C2.01 6.67 1.02 6.34 0 6 C0.185625 5.38125 0.37125 4.7625 0.5625 4.125 C1.23686176 1.95839822 1.23686176 1.95839822 0 0 Z " fill="#1D1D1D" transform="translate(144,54)"/>
<path d="M0 0 C-0.33 0.99 -0.66 1.98 -1 3 C-3.64 3.33 -6.28 3.66 -9 4 C-9 3.34 -9 2.68 -9 2 C-3.375 -1.125 -3.375 -1.125 0 0 Z " fill="#573F20" transform="translate(85,40)"/>
<path d="M0 0 C4.51478398 0.53115106 7.34666857 2.36620292 11 5 C8 6 8 6 5.95703125 5.0390625 C5.24933594 4.57242188 4.54164062 4.10578125 3.8125 3.625 C3.09707031 3.16351563 2.38164063 2.70203125 1.64453125 2.2265625 C1.10183594 1.82179687 0.55914062 1.41703125 0 1 C0 0.67 0 0.34 0 0 Z " fill="#353534" transform="translate(60,186)"/>
<path d="M0 0 C0.33 0 0.66 0 1 0 C1.103125 0.928125 1.20625 1.85625 1.3125 2.8125 C2.0070192 6.03254358 2.47740939 7.02579865 5 9 C4.01 9.33 3.02 9.66 2 10 C0.68 8.35 -0.64 6.7 -2 5 C-1.34 3.35 -0.68 1.7 0 0 Z " fill="#25180D" transform="translate(190,68)"/>
<path d="M0 0 C0.33 0.66 0.66 1.32 1 2 C3.02463255 2.65213292 3.02463255 2.65213292 5 3 C4.67 4.98 4.34 6.96 4 9 C1.98863724 6.44008376 0.37154504 3.95409701 -1 1 C-0.67 0.67 -0.34 0.34 0 0 Z " fill="#43280C" transform="translate(185,63)"/>
<path d="M0 0 C0 0.66 0 1.32 0 2 C-0.66 2 -1.32 2 -2 2 C-2.33 2.66 -2.66 3.32 -3 4 C-4.9375 3.6875 -4.9375 3.6875 -7 3 C-7.33 2.01 -7.66 1.02 -8 0 C-4.94736336 -0.98120464 -3.05263664 -0.98120464 0 0 Z " fill="#453520" transform="translate(158,38)"/>
<path d="M0 0 C2.97 0.33 5.94 0.66 9 1 C8.01 2.485 8.01 2.485 7 4 C4.69 3.67 2.38 3.34 0 3 C0 2.01 0 1.02 0 0 Z " fill="#120E0C" transform="translate(192,105)"/>
<path d="M0 0 C0.33 0 0.66 0 1 0 C1.33 3.63 1.66 7.26 2 11 C-1 8 -1 8 -1.25 4.9375 C-1 2 -1 2 0 0 Z " fill="#4A2D0E" transform="translate(194,94)"/>
<path d="M0 0 C3.16115776 1.36983503 3.9927092 1.9890638 6 5 C5.34 5 4.68 5 4 5 C3.67 5.66 3.34 6.32 3 7 C0 3.375 0 3.375 0 0 Z " fill="#CBA268" transform="translate(85,76)"/>
<path d="M0 0 C3.86933162 0.57323431 6.15222057 2.38953552 9 5 C9 5.66 9 6.32 9 7 C5.18315774 5.44499019 2.80804268 2.96404505 0 0 Z " fill="#313131" transform="translate(143,68)"/>
<path d="M0 0 C0.66 0.33 1.32 0.66 2 1 C-1.17320782 4.53586014 -3.16743695 6.58578031 -8 7 C-5.42215154 4.35247996 -3.08351902 2.05567935 0 0 Z " fill="#553915" transform="translate(69,47)"/>
<path d="M0 0 C2.53910197 0.38520564 3.72751123 0.70097943 5.484375 2.62890625 C5.90203125 3.26699219 6.3196875 3.90507812 6.75 4.5625 C7.17796875 5.20316406 7.6059375 5.84382812 8.046875 6.50390625 C8.36140625 6.99761719 8.6759375 7.49132812 9 8 C4.7257442 6.4169423 2.73468206 3.49431596 0 0 Z " fill="#4B4B4B" transform="translate(43,170)"/>
<path d="M0 0 C0.66 0.66 1.32 1.32 2 2 C1.625 4.625 1.625 4.625 1 7 C0.01 6.34 -0.98 5.68 -2 5 C-2 3.68 -2 2.36 -2 1 C-1.34 0.67 -0.68 0.34 0 0 Z " fill="#191A1A" transform="translate(68,145)"/>
<path d="M0 0 C3.34373475 0.55728913 6.03312999 1.35173889 9 3 C6.21176345 4.0326802 5.1322726 4.04509293 2.25 3.0625 C1.5075 2.711875 0.765 2.36125 0 2 C0 1.34 0 0.68 0 0 Z " fill="#492D0E" transform="translate(84,184)"/>
<path d="M0 0 C0.66 0.33 1.32 0.66 2 1 C1.34 3.31 0.68 5.62 0 8 C-0.66 7.67 -1.32 7.34 -2 7 C-2.625 4.4375 -2.625 4.4375 -3 2 C-2.01 1.34 -1.02 0.68 0 0 Z " fill="#3D372E" transform="translate(59,45)"/>
<path d="M0 0 C0.33 0.66 0.66 1.32 1 2 C1.66 2.33 2.32 2.66 3 3 C1.68 3.33 0.36 3.66 -1 4 C-0.67 4.99 -0.34 5.98 0 7 C-0.99 7.495 -0.99 7.495 -2 8 C-2.33 6.35 -2.66 4.7 -3 3 C-2.01 2.67 -1.02 2.34 0 2 C0 1.34 0 0.68 0 0 Z " fill="#3E2A14" transform="translate(68,173)"/>
</svg>
